  0
SECTION
  2
HEADER
  9
$ACADVER
  1
AC1009
  0
ENDSEC
  0
SECTION
  2
TABLES
  0
TABLE
  2
LAYER
  70
1
  0
LAYER
  2
Layer_0
  70
0
  62
7
  6
CONTINUOUS
  0
ENDTAB
  0
ENDSEC
  0
SECTION
  2
ENTITIES
  0
POLYLINE
  5
90
  8
Layer_0
  62
7
  70
1
  66
1
  10
0
  20
0
  30
0
  0
VERTEX
  5
90
  8
Layer_0
  10
901.87354
  20
634.78467
  0
VERTEX
  5
91
  8
Layer_0
  10
900.54199
  20
634.74658
  0
VERTEX
  5
92
  8
Layer_0
  10
900.20117
  20
634.72949
  0
VERTEX
  5
93
  8
Layer_0
  10
898.87402
  20
634.63477
  0
VERTEX
  5
94
  8
Layer_0
  10
898.59912
  20
634.61035
  0
VERTEX
  5
95
  8
Layer_0
  10
897.771
  20
634.52246
  0
VERTEX
  5
96
  8
Layer_0
  10
897.55957
  20
634.49756
  0
VERTEX
  5
97
  8
Layer_0
  10
896.73438
  20
634.3877
  0
VERTEX
  5
98
  8
Layer_0
  10
896.52686
  20
634.35693
  0
VERTEX
  5
99
  8
Layer_0
  10
895.70557
  20
634.22559
  0
VERTEX
  5
9a
  8
Layer_0
  10
895.49463
  20
634.18896
  0
VERTEX
  5
9b
  8
Layer_0
  10
894.67676
  20
634.03564
  0
VERTEX
  5
9c
  8
Layer_0
  10
894.47363
  20
633.99512
  0
VERTEX
  5
9d
  8
Layer_0
  10
893.66064
  20
633.8208
  0
VERTEX
  5
9e
  8
Layer_0
  10
893.45068
  20
633.77295
  0
VERTEX
  5
9f
  8
Layer_0
  10
892.64209
  20
633.57666
  0
VERTEX
  5
a0
  8
Layer_0
  10
892.43604
  20
633.52344
  0
VERTEX
  5
a1
  8
Layer_0
  10
891.63281
  20
633.30566
  0
VERTEX
  5
a2
  8
Layer_0
  10
891.43262
  20
633.24854
  0
VERTEX
  5
a3
  8
Layer_0
  10
890.63477
  20
633.00977
  0
VERTEX
  5
a4
  8
Layer_0
  10
890.39648
  20
632.93457
  0
VERTEX
  5
a5
  8
Layer_0
  10
890.16016
  20
632.85156
  0
VERTEX
  5
a6
  8
Layer_0
  10
889.92725
  20
632.76172
  0
VERTEX
  5
a7
  8
Layer_0
  10
889.59473
  20
632.61816
  0
VERTEX
  5
a8
  8
Layer_0
  10
889.09619
  20
632.38965
  0
VERTEX
  5
a9
  8
Layer_0
  10
888.86035
  20
632.27686
  0
VERTEX
  5
aa
  8
Layer_0
  10
888.37061
  20
632.03271
  0
VERTEX
  5
ab
  8
Layer_0
  10
888.14355
  20
631.91504
  0
VERTEX
  5
ac
  8
Layer_0
  10
887.6626
  20
631.65576
  0
VERTEX
  5
ad
  8
Layer_0
  10
887.43604
  20
631.52881
  0
VERTEX
  5
ae
  8
Layer_0
  10
886.96436
  20
631.25439
  0
VERTEX
  5
af
  8
Layer_0
  10
886.74365
  20
631.12109
  0
VERTEX
  5
b0
  8
Layer_0
  10
886.28174
  20
630.83203
  0
VERTEX
  5
b1
  8
Layer_0
  10
886.06445
  20
630.69141
  0
VERTEX
  5
b2
  8
Layer_0
  10
885.6123
  20
630.3877
  0
VERTEX
  5
b3
  8
Layer_0
  10
885.39697
  20
630.2373
  0
VERTEX
  5
b4
  8
Layer_0
  10
884.95508
  20
629.91895
  0
VERTEX
  5
b5
  8
Layer_0
  10
884.75
  20
629.7666
  0
VERTEX
  5
b6
  8
Layer_0
  10
884.31885
  20
629.43457
  0
VERTEX
  5
b7
  8
Layer_0
  10
884.11914
  20
629.27539
  0
VERTEX
  5
b8
  8
Layer_0
  10
883.69873
  20
628.92969
  0
VERTEX
  5
b9
  8
Layer_0
  10
883.49707
  20
628.7583
  0
VERTEX
  5
ba
  8
Layer_0
  10
883.08838
  20
628.39893
  0
VERTEX
  5
bb
  8
Layer_0
  10
882.8999
  20
628.22803
  0
VERTEX
  5
bc
  8
Layer_0
  10
882.50244
  20
627.85547
  0
VERTEX
  5
bd
  8
Layer_0
  10
882.32031
  20
627.6792
  0
VERTEX
  5
be
  8
Layer_0
  10
881.93457
  20
627.29395
  0
VERTEX
  5
bf
  8
Layer_0
  10
881.74805
  20
627.10107
  0
VERTEX
  5
c0
  8
Layer_0
  10
881.375
  20
626.70264
  0
VERTEX
  5
c1
  8
Layer_0
  10
881.20508
  20
626.51514
  0
VERTEX
  5
c2
  8
Layer_0
  10
880.84473
  20
626.10498
  0
VERTEX
  5
c3
  8
Layer_0
  10
880.6748
  20
625.90527
  0
VERTEX
  5
c4
  8
Layer_0
  10
880.32715
  20
625.48242
  0
VERTEX
  5
c5
  8
Layer_0
  10
880.16699
  20
625.28125
  0
VERTEX
  5
c6
  8
Layer_0
  10
879.98828
  20
625.04883
  0
VERTEX
  5
c7
  8
Layer_0
  10
879.78418
  20
624.81689
  0
VERTEX
  5
c8
  8
Layer_0
  10
879.63135
  20
624.63818
  0
VERTEX
  5
c9
  8
Layer_0
  10
879.26367
  20
624.19434
  0
VERTEX
  5
ca
  8
Layer_0
  10
879.12061
  20
624.01709
  0
VERTEX
  5
cb
  8
Layer_0
  10
878.76611
  20
623.56348
  0
VERTEX
  5
cc
  8
Layer_0
  10
878.62549
  20
623.37744
  0
VERTEX
  5
cd
  8
Layer_0
  10
878.28467
  20
622.91406
  0
VERTEX
  5
ce
  8
Layer_0
  10
878.1499
  20
622.7251
  0
VERTEX
  5
cf
  8
Layer_0
  10
877.82227
  20
622.25146
  0
VERTEX
  5
d0
  8
Layer_0
  10
877.78271
  20
622.19238
  0
VERTEX
  5
d1
  8
Layer_0
  10
877.55078
  20
622.35986
  0
VERTEX
  5
d2
  8
Layer_0
  10
877.3457
  20
622.50293
  0
VERTEX
  5
d3
  8
Layer_0
  10
877.13672
  20
622.63965
  0
VERTEX
  5
d4
  8
Layer_0
  10
876.92334
  20
622.77002
  0
VERTEX
  5
d5
  8
Layer_0
  10
876.70557
  20
622.89355
  0
VERTEX
  5
d6
  8
Layer_0
  10
876.4248
  20
623.04004
  0
VERTEX
  5
d7
  8
Layer_0
  10
876.11328
  20
623.19482
  0
VERTEX
  5
d8
  8
Layer_0
  10
875.8877
  20
623.30225
  0
VERTEX
  5
d9
  8
Layer_0
  10
875.65918
  20
623.40283
  0
VERTEX
  5
da
  8
Layer_0
  10
875.42725
  20
623.49658
  0
VERTEX
  5
db
  8
Layer_0
  10
875.19238
  20
623.58252
  0
VERTEX
  5
dc
  8
Layer_0
  10
874.9165
  20
623.67334
  0
VERTEX
  5
dd
  8
Layer_0
  10
874.58643
  20
623.77539
  0
VERTEX
  5
de
  8
Layer_0
  10
874.34668
  20
623.8457
  0
VERTEX
  5
df
  8
Layer_0
  10
874.10449
  20
623.9082
  0
VERTEX
  5
e0
  8
Layer_0
  10
873.86084
  20
623.96289
  0
VERTEX
  5
e1
  8
Layer_0
  10
873.61523
  20
624.01025
  0
VERTEX
  5
e2
  8
Layer_0
  10
873.32959
  20
624.05566
  0
VERTEX
  5
e3
  8
Layer_0
  10
872.98682
  20
624.10352
  0
VERTEX
  5
e4
  8
Layer_0
  10
872.73877
  20
624.13428
  0
VERTEX
  5
e5
  8
Layer_0
  10
872.48975
  20
624.15674
  0
VERTEX
  5
e6
  8
Layer_0
  10
872.24023
  20
624.17188
  0
VERTEX
  5
e7
  8
Layer_0
  10
871.99072
  20
624.1792
  0
VERTEX
  5
e8
  8
Layer_0
  10
871.68945
  20
624.17773
  0
VERTEX
  5
e9
  8
Layer_0
  10
871.34229
  20
624.16943
  0
VERTEX
  5
ea
  8
Layer_0
  10
871.09277
  20
624.15967
  0
VERTEX
  5
eb
  8
Layer_0
  10
870.84326
  20
624.14209
  0
VERTEX
  5
ec
  8
Layer_0
  10
870.59473
  20
624.1167
  0
VERTEX
  5
ed
  8
Layer_0
  10
870.34668
  20
624.0835
  0
VERTEX
  5
ee
  8
Layer_0
  10
870.03711
  20
624.03076
  0
VERTEX
  5
ef
  8
Layer_0
  10
869.69092
  20
623.96484
  0
VERTEX
  5
f0
  8
Layer_0
  10
869.44629
  20
623.91406
  0
VERTEX
  5
f1
  8
Layer_0
  10
869.20313
  20
623.85596
  0
VERTEX
  5
f2
  8
Layer_0
  10
868.96191
  20
623.79004
  0
VERTEX
  5
f3
  8
Layer_0
  10
868.72314
  20
623.7168
  0
VERTEX
  5
f4
  8
Layer_0
  10
868.41406
  20
623.60986
  0
VERTEX
  5
f5
  8
Layer_0
  10
868.07715
  20
623.48535
  0
VERTEX
  5
f6
  8
Layer_0
  10
867.84424
  20
623.39502
  0
VERTEX
  5
f7
  8
Layer_0
  10
867.61426
  20
623.29736
  0
VERTEX
  5
f8
  8
Layer_0
  10
867.38721
  20
623.19287
  0
VERTEX
  5
f9
  8
Layer_0
  10
867.18799
  20
623.09375
  0
VERTEX
  5
fa
  8
Layer_0
  10
866.78027
  20
622.88379
  0
VERTEX
  5
fb
  8
Layer_0
  10
866.55957
  20
622.76611
  0
VERTEX
  5
fc
  8
Layer_0
  10
866.34326
  20
622.64111
  0
VERTEX
  5
fd
  8
Layer_0
  10
866.14697
  20
622.52002
  0
VERTEX
  5
fe
  8
Layer_0
  10
865.7627
  20
622.27539
  0
VERTEX
  5
ff
  8
Layer_0
  10
865.55371
  20
622.1377
  0
VERTEX
  5
100
  8
Layer_0
  10
865.34912
  20
621.99414
  0
VERTEX
  5
101
  8
Layer_0
  10
865.16162
  20
621.85254
  0
VERTEX
  5
102
  8
Layer_0
  10
864.80273
  20
621.57471
  0
VERTEX
  5
103
  8
Layer_0
  10
864.60742
  20
621.41895
  0
VERTEX
  5
104
  8
Layer_0
  10
864.41699
  20
621.25684
  0
VERTEX
  5
105
  8
Layer_0
  10
864.25391
  20
621.10938
  0
VERTEX
  5
106
  8
Layer_0
  10
863.92236
  20
620.80127
  0
VERTEX
  5
107
  8
Layer_0
  10
863.7417
  20
620.62793
  0
VERTEX
  5
108
  8
Layer_0
  10
863.56689
  20
620.44971
  0
VERTEX
  5
109
  8
Layer_0
  10
863.42139
  20
620.29199
  0
VERTEX
  5
10a
  8
Layer_0
  10
863.11865
  20
619.95557
  0
VERTEX
  5
10b
  8
Layer_0
  10
862.95459
  20
619.76709
  0
VERTEX
  5
10c
  8
Layer_0
  10
862.7959
  20
619.57373
  0
VERTEX
  5
10d
  8
Layer_0
  10
862.72021
  20
619.4751
  0
VERTEX
  5
10e
  8
Layer_0
  10
862.66162
  20
619.55371
  0
VERTEX
  5
10f
  8
Layer_0
  10
862.50928
  20
619.75195
  0
VERTEX
  5
110
  8
Layer_0
  10
862.35107
  20
619.94531
  0
VERTEX
  5
111
  8
Layer_0
  10
862.18652
  20
620.13379
  0
VERTEX
  5
112
  8
Layer_0
  10
862.0166
  20
620.31689
  0
VERTEX
  5
113
  8
Layer_0
  10
861.84082
  20
620.49463
  0
VERTEX
  5
114
  8
Layer_0
  10
861.65967
  20
620.66699
  0
VERTEX
  5
115
  8
Layer_0
  10
861.47314
  20
620.8335
  0
VERTEX
  5
116
  8
Layer_0
  10
861.31689
  20
620.96484
  0
VERTEX
  5
117
  8
Layer_0
  10
861.31104
  20
620.96973
  0
VERTEX
  5
118
  8
Layer_0
  10
861.19434
  20
621.07568
  0
VERTEX
  5
119
  8
Layer_0
  10
861.00635
  20
621.24121
  0
VERTEX
  5
11a
  8
Layer_0
  10
860.81396
  20
621.40039
  0
VERTEX
  5
11b
  8
Layer_0
  10
860.62598
  20
621.54639
  0
VERTEX
  5
11c
  8
Layer_0
  10
860.4502
  20
621.67871
  0
VERTEX
  5
11d
  8
Layer_0
  10
860.24805
  20
621.82568
  0
VERTEX
  5
11e
  8
Layer_0
  10
860.0415
  20
621.9668
  0
VERTEX
  5
11f
  8
Layer_0
  10
859.81543
  20
622.11035
  0
VERTEX
  5
120
  8
Layer_0
  10
859.63037
  20
622.22363
  0
VERTEX
  5
121
  8
Layer_0
  10
859.41504
  20
622.35059
  0
VERTEX
  5
122
  8
Layer_0
  10
859.1958
  20
622.47119
  0
VERTEX
  5
123
  8
Layer_0
  10
858.99512
  20
622.57373
  0
VERTEX
  5
124
  8
Layer_0
  10
858.80225
  20
622.66895
  0
VERTEX
  5
125
  8
Layer_0
  10
858.57617
  20
622.77637
  0
VERTEX
  5
126
  8
Layer_0
  10
858.34717
  20
622.87646
  0
VERTEX
  5
127
  8
Layer_0
  10
858.11768
  20
622.96826
  0
VERTEX
  5
128
  8
Layer_0
  10
857.91846
  20
623.04443
  0
VERTEX
  5
129
  8
Layer_0
  10
857.68359
  20
623.12988
  0
VERTEX
  5
12a
  8
Layer_0
  10
857.44629
  20
623.20801
  0
VERTEX
  5
12b
  8
Layer_0
  10
857.21289
  20
623.27686
  0
VERTEX
  5
12c
  8
Layer_0
  10
857.0083
  20
623.33398
  0
VERTEX
  5
12d
  8
Layer_0
  10
856.7666
  20
623.39746
  0
VERTEX
  5
12e
  8
Layer_0
  10
856.52295
  20
623.45361
  0
VERTEX
  5
12f
  8
Layer_0
  10
856.31543
  20
623.49463
  0
VERTEX
  5
130
  8
Layer_0
  10
856.10742
  20
623.5332
  0
VERTEX
  5
131
  8
Layer_0
  10
855.86133
  20
623.5752
  0
VERTEX
  5
132
  8
Layer_0
  10
855.61328
  20
623.60889
  0
VERTEX
  5
133
  8
Layer_0
  10
855.40674
  20
623.63135
  0
VERTEX
  5
134
  8
Layer_0
  10
855.19629
  20
623.65137
  0
VERTEX
  5
135
  8
Layer_0
  10
854.94678
  20
623.67139
  0
VERTEX
  5
136
  8
Layer_0
  10
854.69727
  20
623.68311
  0
VERTEX
  5
137
  8
Layer_0
  10
854.45703
  20
623.6875
  0
VERTEX
  5
138
  8
Layer_0
  10
854.24609
  20
623.68799
  0
VERTEX
  5
139
  8
Layer_0
  10
853.99609
  20
623.68457
  0
VERTEX
  5
13a
  8
Layer_0
  10
853.74658
  20
623.67334
  0
VERTEX
  5
13b
  8
Layer_0
  10
853.52637
  20
623.65723
  0
VERTEX
  5
13c
  8
Layer_0
  10
853.31543
  20
623.63867
  0
VERTEX
  5
13d
  8
Layer_0
  10
853.06689
  20
623.61279
  0
VERTEX
  5
13e
  8
Layer_0
  10
852.81934
  20
623.5791
  0
VERTEX
  5
13f
  8
Layer_0
  10
852.59668
  20
623.54248
  0
VERTEX
  5
140
  8
Layer_0
  10
852.38818
  20
623.50488
  0
VERTEX
  5
141
  8
Layer_0
  10
852.14307
  20
623.45654
  0
VERTEX
  5
142
  8
Layer_0
  10
851.89941
  20
623.40088
  0
VERTEX
  5
143
  8
Layer_0
  10
851.6875
  20
623.3457
  0
VERTEX
  5
144
  8
Layer_0
  10
851.48145
  20
623.28906
  0
VERTEX
  5
145
  8
Layer_0
  10
851.2417
  20
623.21924
  0
VERTEX
  5
146
  8
Layer_0
  10
851.00391
  20
623.1416
  0
VERTEX
  5
147
  8
Layer_0
  10
850.7793
  20
623.06055
  0
VERTEX
  5
148
  8
Layer_0
  10
850.57861
  20
622.98486
  0
VERTEX
  5
149
  8
Layer_0
  10
850.3457
  20
622.89307
  0
VERTEX
  5
14a
  8
Layer_0
  10
850.11621
  20
622.79395
  0
VERTEX
  5
14b
  8
Layer_0
  10
849.89551
  20
622.69043
  0
VERTEX
  5
14c
  8
Layer_0
  10
849.7002
  20
622.59521
  0
VERTEX
  5
14d
  8
Layer_0
  10
849.47754
  20
622.48242
  0
VERTEX
  5
14e
  8
Layer_0
  10
849.2583
  20
622.3623
  0
VERTEX
  5
14f
  8
Layer_0
  10
849.03027
  20
622.22803
  0
VERTEX
  5
150
  8
Layer_0
  10
848.84277
  20
622.11328
  0
VERTEX
  5
151
  8
Layer_0
  10
848.63135
  20
621.97949
  0
VERTEX
  5
152
  8
Layer_0
  10
848.4248
  20
621.83887
  0
VERTEX
  5
153
  8
Layer_0
  10
848.22119
  20
621.69141
  0
VERTEX
  5
154
  8
Layer_0
  10
848.04199
  20
621.55713
  0
VERTEX
  5
155
  8
Layer_0
  10
847.84424
  20
621.4043
  0
VERTEX
  5
156
  8
Layer_0
  10
847.65186
  20
621.24512
  0
VERTEX
  5
157
  8
Layer_0
  10
847.41602
  20
621.03662
  0
VERTEX
  5
158
  8
Layer_0
  10
847.21533
  20
620.85156
  0
VERTEX
  5
159
  8
Layer_0
  10
847.03418
  20
620.6792
  0
VERTEX
  5
15a
  8
Layer_0
  10
846.85889
  20
620.50098
  0
VERTEX
  5
15b
  8
Layer_0
  10
846.68848
  20
620.31787
  0
VERTEX
  5
15c
  8
Layer_0
  10
846.55859
  20
620.16943
  0
VERTEX
  5
15d
  8
Layer_0
  10
846.38281
  20
619.96387
  0
VERTEX
  5
15e
  8
Layer_0
  10
846.22314
  20
619.77148
  0
VERTEX
  5
15f
  8
Layer_0
  10
846.06982
  20
619.57373
  0
VERTEX
  5
160
  8
Layer_0
  10
845.92285
  20
619.37158
  0
VERTEX
  5
161
  8
Layer_0
  10
845.81982
  20
619.22217
  0
VERTEX
  5
162
  8
Layer_0
  10
845.67041
  20
618.99951
  0
VERTEX
  5
163
  8
Layer_0
  10
845.53467
  20
618.79004
  0
VERTEX
  5
164
  8
Layer_0
  10
845.40527
  20
618.57617
  0
VERTEX
  5
165
  8
Layer_0
  10
845.28223
  20
618.3584
  0
VERTEX
  5
166
  8
Layer_0
  10
845.20264
  20
618.20703
  0
VERTEX
  5
167
  8
Layer_0
  10
845.08008
  20
617.96924
  0
VERTEX
  5
168
  8
Layer_0
  10
844.96875
  20
617.74512
  0
VERTEX
  5
169
  8
Layer_0
  10
844.86475
  20
617.51807
  0
VERTEX
  5
16a
  8
Layer_0
  10
844.76807
  20
617.2876
  0
VERTEX
  5
16b
  8
Layer_0
  10
844.70801
  20
617.13379
  0
VERTEX
  5
16c
  8
Layer_0
  10
844.61328
  20
616.8833
  0
VERTEX
  5
16d
  8
Layer_0
  10
844.52881
  20
616.64844
  0
VERTEX
  5
16e
  8
Layer_0
  10
844.45117
  20
616.41064
  0
VERTEX
  5
16f
  8
Layer_0
  10
844.38135
  20
616.17041
  0
VERTEX
  5
170
  8
Layer_0
  10
844.33398
  20
615.99072
  0
VERTEX
  5
171
  8
Layer_0
  10
844.26904
  20
615.73047
  0
VERTEX
  5
172
  8
Layer_0
  10
844.2124
  20
615.48682
  0
VERTEX
  5
173
  8
Layer_0
  10
844.16357
  20
615.2417
  0
VERTEX
  5
174
  8
Layer_0
  10
844.12207
  20
614.99512
  0
VERTEX
  5
175
  8
Layer_0
  10
844.12158
  20
614.99268
  0
VERTEX
  5
176
  8
Layer_0
  10
844.0874
  20
614.89209
  0
VERTEX
  5
177
  8
Layer_0
  10
843.99414
  20
614.58252
  0
VERTEX
  5
178
  8
Layer_0
  10
843.76074
  20
613.74561
  0
VERTEX
  5
179
  8
Layer_0
  10
843.69727
  20
613.50391
  0
VERTEX
  5
17a
  8
Layer_0
  10
843.62793
  20
613.19336
  0
VERTEX
  5
17b
  8
Layer_0
  10
843.45459
  20
612.34229
  0
VERTEX
  5
17c
  8
Layer_0
  10
843.4082
  20
612.09668
  0
VERTEX
  5
17d
  8
Layer_0
  10
843.35986
  20
611.77441
  0
VERTEX
  5
17e
  8
Layer_0
  10
843.29346
  20
611.26221
  0
VERTEX
  5
17f
  8
Layer_0
  10
843.07861
  20
610.29199
  0
VERTEX
  5
180
  8
Layer_0
  10
843.03223
  20
610.06836
  0
VERTEX
  5
181
  8
Layer_0
  10
842.77783
  20
608.74121
  0
VERTEX
  5
182
  8
Layer_0
  10
842.73828
  20
608.51758
  0
VERTEX
  5
183
  8
Layer_0
  10
842.52197
  20
607.18555
  0
VERTEX
  5
184
  8
Layer_0
  10
842.48828
  20
606.95801
  0
VERTEX
  5
185
  8
Layer_0
  10
842.31055
  20
605.62158
  0
VERTEX
  5
186
  8
Layer_0
  10
842.28418
  20
605.39941
  0
VERTEX
  5
187
  8
Layer_0
  10
842.14404
  20
604.06006
  0
VERTEX
  5
188
  8
Layer_0
  10
842.12354
  20
603.83398
  0
VERTEX
  5
189
  8
Layer_0
  10
842.02148
  20
602.49121
  0
VERTEX
  5
18a
  8
Layer_0
  10
842.00732
  20
602.26221
  0
VERTEX
  5
18b
  8
Layer_0
  10
841.94385
  20
600.91846
  0
VERTEX
  5
18c
  8
Layer_0
  10
841.93652
  20
600.69482
  0
VERTEX
  5
18d
  8
Layer_0
  10
841.91064
  20
599.34961
  0
VERTEX
  5
18e
  8
Layer_0
  10
841.90967
  20
599.12012
  0
VERTEX
  5
18f
  8
Layer_0
  10
841.92236
  20
597.77441
  0
VERTEX
  5
190
  8
Layer_0
  10
841.92725
  20
597.55127
  0
VERTEX
  5
191
  8
Layer_0
  10
841.97754
  20
596.20654
  0
VERTEX
  5
192
  8
Layer_0
  10
841.98975
  20
595.97705
  0
VERTEX
  5
193
  8
Layer_0
  10
842.07861
  20
594.63379
  0
VERTEX
  5
194
  8
Layer_0
  10
842.09668
  20
594.4082
  0
VERTEX
  5
195
  8
Layer_0
  10
842.22363
  20
593.06738
  0
VERTEX
  5
196
  8
Layer_0
  10
842.24805
  20
592.84473
  0
VERTEX
  5
197
  8
Layer_0
  10
842.4126
  20
591.50684
  0
VERTEX
  5
198
  8
Layer_0
  10
842.44434
  20
591.27637
  0
VERTEX
  5
199
  8
Layer_0
  10
842.64795
  20
589.94238
  0
VERTEX
  5
19a
  8
Layer_0
  10
842.68457
  20
589.72119
  0
VERTEX
  5
19b
  8
Layer_0
  10
842.92578
  20
588.3916
  0
VERTEX
  5
19c
  8
Layer_0
  10
842.96973
  20
588.16846
  0
VERTEX
  5
19d
  8
Layer_0
  10
843.24902
  20
586.84473
  0
VERTEX
  5
19e
  8
Layer_0
  10
843.3042
  20
586.60059
  0
VERTEX
  5
19f
  8
Layer_0
  10
843.36768
  20
586.35889
  0
VERTEX
  5
1a0
  8
Layer_0
  10
843.43799
  20
586.11914
  0
VERTEX
  5
1a1
  8
Layer_0
  10
843.49365
  20
585.94727
  0
VERTEX
  5
1a2
  8
Layer_0
  10
843.72803
  20
585.25
  0
VERTEX
  5
1a3
  8
Layer_0
  10
843.82227
  20
584.98535
  0
VERTEX
  5
1a4
  8
Layer_0
  10
844.08057
  20
584.29785
  0
VERTEX
  5
1a5
  8
Layer_0
  10
844.18701
  20
584.02832
  0
VERTEX
  5
1a6
  8
Layer_0
  10
844.46924
  20
583.35254
  0
VERTEX
  5
1a7
  8
Layer_0
  10
844.58252
  20
583.09473
  0
VERTEX
  5
1a8
  8
Layer_0
  10
844.88818
  20
582.42969
  0
VERTEX
  5
1a9
  8
Layer_0
  10
845.0127
  20
582.17139
  0
VERTEX
  5
1aa
  8
Layer_0
  10
845.34131
  20
581.51904
  0
VERTEX
  5
1ab
  8
Layer_0
  10
845.4751
  20
581.26465
  0
VERTEX
  5
1ac
  8
Layer_0
  10
845.82666
  20
580.625
  0
VERTEX
  5
1ad
  8
Layer_0
  10
845.96484
  20
580.38379
  0
VERTEX
  5
1ae
  8
Layer_0
  10
846.33838
  20
579.75684
  0
VERTEX
  5
1af
  8
Layer_0
  10
846.48926
  20
579.51318
  0
VERTEX
  5
1b0
  8
Layer_0
  10
846.88477
  20
578.90039
  0
VERTEX
  5
1b1
  8
Layer_0
  10
847.04395
  20
578.66357
  0
VERTEX
  5
1b2
  8
Layer_0
  10
847.46094
  20
578.06543
  0
VERTEX
  5
1b3
  8
Layer_0
  10
847.62549
  20
577.83789
  0
VERTEX
  5
1b4
  8
Layer_0
  10
848.06348
  20
577.25439
  0
VERTEX
  5
1b5
  8
Layer_0
  10
848.23682
  20
577.03174
  0
VERTEX
  5
1b6
  8
Layer_0
  10
848.69531
  20
576.46387
  0
VERTEX
  5
1b7
  8
Layer_0
  10
848.88379
  20
576.23926
  0
VERTEX
  5
1b8
  8
Layer_0
  10
849.36328
  20
575.68799
  0
VERTEX
  5
1b9
  8
Layer_0
  10
849.54834
  20
575.48193
  0
VERTEX
  5
1ba
  8
Layer_0
  10
850.04736
  20
574.94678
  0
VERTEX
  5
1bb
  8
Layer_0
  10
850.24707
  20
574.74072
  0
VERTEX
  5
1bc
  8
Layer_0
  10
850.76563
  20
574.22314
  0
VERTEX
  5
1bd
  8
Layer_0
  10
850.97168
  20
574.02441
  0
VERTEX
  5
1be
  8
Layer_0
  10
851.50928
  20
573.5249
  0
VERTEX
  5
1bf
  8
Layer_0
  10
851.72119
  20
573.33496
  0
VERTEX
  5
1c0
  8
Layer_0
  10
852.11914
  20
572.99072
  0
VERTEX
  5
1c1
  8
Layer_0
  10
852.66162
  20
572.46924
  0
VERTEX
  5
1c2
  8
Layer_0
  10
852.83008
  20
572.31201
  0
VERTEX
  5
1c3
  8
Layer_0
  10
853.54248
  20
571.66553
  0
VERTEX
  5
1c4
  8
Layer_0
  10
853.71973
  20
571.50928
  0
VERTEX
  5
1c5
  8
Layer_0
  10
854.4502
  20
570.88477
  0
VERTEX
  5
1c6
  8
Layer_0
  10
854.62842
  20
570.73682
  0
VERTEX
  5
1c7
  8
Layer_0
  10
855.37598
  20
570.13428
  0
VERTEX
  5
1c8
  8
Layer_0
  10
855.55762
  20
569.99219
  0
VERTEX
  5
1c9
  8
Layer_0
  10
856.32129
  20
569.41211
  0
VERTEX
  5
1ca
  8
Layer_0
  10
856.50684
  20
569.27539
  0
VERTEX
  5
1cb
  8
Layer_0
  10
857.28662
  20
568.71777
  0
VERTEX
  5
1cc
  8
Layer_0
  10
857.47998
  20
568.58398
  0
VERTEX
  5
1cd
  8
Layer_0
  10
858.27539
  20
568.0498
  0
VERTEX
  5
1ce
  8
Layer_0
  10
858.46777
  20
567.92432
  0
VERTEX
  5
1cf
  8
Layer_0
  10
859.27832
  20
567.41309
  0
VERTEX
  5
1d0
  8
Layer_0
  10
859.47607
  20
567.29199
  0
VERTEX
  5
1d1
  8
Layer_0
  10
860.30078
  20
566.80469
  0
VERTEX
  5
1d2
  8
Layer_0
  10
860.50244
  20
566.68994
  0
VERTEX
  5
1d3
  8
Layer_0
  10
861.34131
  20
566.22656
  0
VERTEX
  5
1d4
  8
Layer_0
  10
861.54248
  20
566.11914
  0
VERTEX
  5
1d5
  8
Layer_0
  10
862.39453
  20
565.67969
  0
VERTEX
  5
1d6
  8
Layer_0
  10
862.60303
  20
565.57568
  0
VERTEX
  5
1d7
  8
Layer_0
  10
863.46777
  20
565.16113
  0
VERTEX
  5
1d8
  8
Layer_0
  10
863.6792
  20
565.06348
  0
VERTEX
  5
1d9
  8
Layer_0
  10
864.55664
  20
564.67383
  0
VERTEX
  5
1da
  8
Layer_0
  10
864.771
  20
564.58252
  0
VERTEX
  5
1db
  8
Layer_0
  10
865.66016
  20
564.21826
  0
VERTEX
  5
1dc
  8
Layer_0
  10
865.875
  20
564.13379
  0
VERTEX
  5
1dd
  8
Layer_0
  10
866.77539
  20
563.79492
  0
VERTEX
  5
1de
  8
Layer_0
  10
866.99561
  20
563.71582
  0
VERTEX
  5
1df
  8
Layer_0
  10
867.90723
  20
563.40283
  0
VERTEX
  5
1e0
  8
Layer_0
  10
868.02246
  20
563.36426
  0
VERTEX
  5
1e1
  8
Layer_0
  10
868.88867
  20
563.08154
  0
VERTEX
  5
1e2
  8
Layer_0
  10
869.07129
  20
563.02393
  0
VERTEX
  5
1e3
  8
Layer_0
  10
869.94336
  20
562.76221
  0
VERTEX
  5
1e4
  8
Layer_0
  10
870.12354
  20
562.71045
  0
VERTEX
  5
1e5
  8
Layer_0
  10
871.00146
  20
562.46924
  0
VERTEX
  5
1e6
  8
Layer_0
  10
871.18164
  20
562.42236
  0
VERTEX
  5
1e7
  8
Layer_0
  10
872.06494
  20
562.20166
  0
VERTEX
  5
1e8
  8
Layer_0
  10
872.25342
  20
562.15674
  0
VERTEX
  5
1e9
  8
Layer_0
  10
873.1416
  20
561.95752
  0
VERTEX
  5
1ea
  8
Layer_0
  10
873.32178
  20
561.91943
  0
VERTEX
  5
1eb
  8
Layer_0
  10
874.21436
  20
561.74072
  0
VERTEX
  5
1ec
  8
Layer_0
  10
874.40381
  20
561.70508
  0
VERTEX
  5
1ed
  8
Layer_0
  10
875.30078
  20
561.54785
  0
VERTEX
  5
1ee
  8
Layer_0
  10
875.48584
  20
561.51758
  0
VERTEX
  5
1ef
  8
Layer_0
  10
876.38672
  20
561.38135
  0
VERTEX
  5
1f0
  8
Layer_0
  10
876.63477
  20
561.34814
  0
VERTEX
  5
1f1
  8
Layer_0
  10
876.8833
  20
561.32227
  0
VERTEX
  5
1f2
  8
Layer_0
  10
877.05469
  20
561.30908
  0
VERTEX
  5
1f3
  8
Layer_0
  10
878.98828
  20
561.18115
  0
VERTEX
  5
1f4
  8
Layer_0
  10
879.09912
  20
561.17432
  0
VERTEX
  5
1f5
  8
Layer_0
  10
881.03369
  20
561.07324
  0
VERTEX
  5
1f6
  8
Layer_0
  10
881.14502
  20
561.06836
  0
VERTEX
  5
1f7
  8
Layer_0
  10
883.08154
  20
560.99414
  0
VERTEX
  5
1f8
  8
Layer_0
  10
883.19238
  20
560.99072
  0
VERTEX
  5
1f9
  8
Layer_0
  10
884.85791
  20
560.9502
  0
VERTEX
  5
1fa
  8
Layer_0
  10
891.59277
  20
560.32959
  0
VERTEX
  5
1fb
  8
Layer_0
  10
898.5918
  20
559.64355
  0
VERTEX
  5
1fc
  8
Layer_0
  10
898.90088
  20
559.61963
  0
VERTEX
  5
1fd
  8
Layer_0
  10
901.85107
  20
559.44531
  0
VERTEX
  5
1fe
  8
Layer_0
  10
901.98682
  20
559.43799
  0
VERTEX
  5
1ff
  8
Layer_0
  10
904.93896
  20
559.31396
  0
VERTEX
  5
200
  8
Layer_0
  10
905.07813
  20
559.30957
  0
VERTEX
  5
201
  8
Layer_0
  10
908.03174
  20
559.23682
  0
VERTEX
  5
202
  8
Layer_0
  10
908.16748
  20
559.23438
  0
VERTEX
  5
203
  8
Layer_0
  10
911.12158
  20
559.21191
  0
VERTEX
  5
204
  8
Layer_0
  10
911.26074
  20
559.2124
  0
VERTEX
  5
205
  8
Layer_0
  10
914.21484
  20
559.24121
  0
VERTEX
  5
206
  8
Layer_0
  10
914.35107
  20
559.24365
  0
VERTEX
  5
207
  8
Layer_0
  10
917.3042
  20
559.32275
  0
VERTEX
  5
208
  8
Layer_0
  10
917.44141
  20
559.32764
  0
VERTEX
  5
209
  8
Layer_0
  10
920.39355
  20
559.45752
  0
VERTEX
  5
20a
  8
Layer_0
  10
920.53125
  20
559.46484
  0
VERTEX
  5
20b
  8
Layer_0
  10
923.45898
  20
559.64404
  0
VERTEX
  5
20c
  8
Layer_0
  10
932.92432
  20
560.19775
  0
VERTEX
  5
20d
  8
Layer_0
  10
935.46143
  20
560.31836
  0
VERTEX
  5
20e
  8
Layer_0
  10
938.12012
  20
560.42578
  0
VERTEX
  5
20f
  8
Layer_0
  10
940.66016
  20
560.50928
  0
VERTEX
  5
210
  8
Layer_0
  10
943.16309
  20
560.57324
  0
VERTEX
  5
211
  8
Layer_0
  10
943.60742
  20
560.56641
  0
VERTEX
  5
212
  8
Layer_0
  10
943.85742
  20
560.56641
  0
VERTEX
  5
213
  8
Layer_0
  10
944.17432
  20
560.57764
  0
VERTEX
  5
214
  8
Layer_0
  10
944.70801
  20
560.60742
  0
VERTEX
  5
215
  8
Layer_0
  10
944.95752
  20
560.62549
  0
VERTEX
  5
216
  8
Layer_0
  10
945.229
  20
560.65381
  0
VERTEX
  5
217
  8
Layer_0
  10
945.7583
  20
560.71826
  0
VERTEX
  5
218
  8
Layer_0
  10
946.00635
  20
560.75244
  0
VERTEX
  5
219
  8
Layer_0
  10
946.27539
  20
560.79834
  0
VERTEX
  5
21a
  8
Layer_0
  10
946.79785
  20
560.89697
  0
VERTEX
  5
21b
  8
Layer_0
  10
947.04297
  20
560.94727
  0
VERTEX
  5
21c
  8
Layer_0
  10
947.30615
  20
561.01025
  0
VERTEX
  5
21d
  8
Layer_0
  10
947.8208
  20
561.14258
  0
VERTEX
  5
21e
  8
Layer_0
  10
948.06201
  20
561.2085
  0
VERTEX
  5
21f
  8
Layer_0
  10
948.3208
  20
561.28857
  0
VERTEX
  5
220
  8
Layer_0
  10
948.82568
  20
561.4541
  0
VERTEX
  5
221
  8
Layer_0
  10
949.06201
  20
561.53564
  0
VERTEX
  5
222
  8
Layer_0
  10
949.32373
  20
561.63574
  0
VERTEX
  5
223
  8
Layer_0
  10
949.81689
  20
561.83447
  0
VERTEX
  5
224
  8
Layer_0
  10
950.04736
  20
561.93164
  0
VERTEX
  5
225
  8
Layer_0
  10
950.28662
  20
562.04199
  0
VERTEX
  5
226
  8
Layer_0
  10
950.76709
  20
562.27246
  0
VERTEX
  5
227
  8
Layer_0
  10
950.99072
  20
562.38379
  0
VERTEX
  5
228
  8
Layer_0
  10
951.23682
  20
562.51709
  0
VERTEX
  5
229
  8
Layer_0
  10
951.70264
  20
562.77979
  0
VERTEX
  5
22a
  8
Layer_0
  10
951.91846
  20
562.90576
  0
VERTEX
  5
22b
  8
Layer_0
  10
952.13037
  20
563.03857
  0
VERTEX
  5
22c
  8
Layer_0
  10
952.33789
  20
563.17822
  0
VERTEX
  5
22d
  8
Layer_0
  10
952.54102
  20
563.32422
  0
VERTEX
  5
22e
  8
Layer_0
  10
952.73926
  20
563.47607
  0
VERTEX
  5
22f
  8
Layer_0
  10
952.93262
  20
563.63428
  0
VERTEX
  5
230
  8
Layer_0
  10
953.12109
  20
563.79883
  0
VERTEX
  5
231
  8
Layer_0
  10
953.30469
  20
563.96875
  0
VERTEX
  5
232
  8
Layer_0
  10
953.48242
  20
564.14404
  0
VERTEX
  5
233
  8
Layer_0
  10
953.65479
  20
564.3252
  0
VERTEX
  5
234
  8
Layer_0
  10
953.82129
  20
564.51172
  0
VERTEX
  5
235
  8
Layer_0
  10
953.98193
  20
564.70313
  0
VERTEX
  5
236
  8
Layer_0
  10
954.13672
  20
564.8999
  0
VERTEX
  5
237
  8
Layer_0
  10
954.28467
  20
565.10107
  0
VERTEX
  5
238
  8
Layer_0
  10
954.42676
  20
565.30664
  0
VERTEX
  5
239
  8
Layer_0
  10
954.53418
  20
565.47168
  0
VERTEX
  5
23a
  8
Layer_0
  10
954.66357
  20
565.67627
  0
VERTEX
  5
23b
  8
Layer_0
  10
954.79395
  20
565.88965
  0
VERTEX
  5
23c
  8
Layer_0
  10
954.91748
  20
566.10693
  0
VERTEX
  5
23d
  8
Layer_0
  10
955.03418
  20
566.32813
  0
VERTEX
  5
23e
  8
Layer_0
  10
955.14404
  20
566.55273
  0
VERTEX
  5
23f
  8
Layer_0
  10
955.229
  20
566.74023
  0
VERTEX
  5
240
  8
Layer_0
  10
955.32471
  20
566.9585
  0
VERTEX
  5
241
  8
Layer_0
  10
955.42139
  20
567.18896
  0
VERTEX
  5
242
  8
Layer_0
  10
955.51123
  20
567.42236
  0
VERTEX
  5
243
  8
Layer_0
  10
955.59326
  20
567.6582
  0
VERTEX
  5
244
  8
Layer_0
  10
955.66797
  20
567.89697
  0
VERTEX
  5
245
  8
Layer_0
  10
955.70703
  20
568.03223
  0
VERTEX
  5
246
  8
Layer_0
  10
955.77002
  20
568.25928
  0
VERTEX
  5
247
  8
Layer_0
  10
955.83301
  20
568.50146
  0
VERTEX
  5
248
  8
Layer_0
  10
955.88818
  20
568.74512
  0
VERTEX
  5
249
  8
Layer_0
  10
955.93604
  20
568.99023
  0
VERTEX
  5
24a
  8
Layer_0
  10
955.97656
  20
569.2373
  0
VERTEX
  5
24b
  8
Layer_0
  10
955.99854
  20
569.39941
  0
VERTEX
  5
24c
  8
Layer_0
  10
956.02783
  20
569.63232
  0
VERTEX
  5
24d
  8
Layer_0
  10
956.05518
  20
569.88086
  0
VERTEX
  5
24e
  8
Layer_0
  10
956.07471
  20
570.13037
  0
VERTEX
  5
24f
  8
Layer_0
  10
956.08643
  20
570.37988
  0
VERTEX
  5
250
  8
Layer_0
  10
956.09033
  20
570.62988
  0
VERTEX
  5
251
  8
Layer_0
  10
956.08887
  20
570.78076
  0
VERTEX
  5
252
  8
Layer_0
  10
956.08447
  20
571.01563
  0
VERTEX
  5
253
  8
Layer_0
  10
956.07617
  20
571.26514
  0
VERTEX
  5
254
  8
Layer_0
  10
956.05957
  20
571.51465
  0
VERTEX
  5
255
  8
Layer_0
  10
956.03564
  20
571.76367
  0
VERTEX
  5
256
  8
Layer_0
  10
956.00342
  20
572.01123
  0
VERTEX
  5
257
  8
Layer_0
  10
955.98096
  20
572.15674
  0
VERTEX
  5
258
  8
Layer_0
  10
955.94287
  20
572.38965
  0
VERTEX
  5
259
  8
Layer_0
  10
955.89893
  20
572.63574
  0
VERTEX
  5
25a
  8
Layer_0
  10
955.84717
  20
572.88037
  0
VERTEX
  5
25b
  8
Layer_0
  10
955.7876
  20
573.12305
  0
VERTEX
  5
25c
  8
Layer_0
  10
955.72021
  20
573.36377
  0
VERTEX
  5
25d
  8
Layer_0
  10
955.67578
  20
573.51025
  0
VERTEX
  5
25e
  8
Layer_0
  10
955.604
  20
573.7373
  0
VERTEX
  5
25f
  8
Layer_0
  10
955.5249
  20
573.97412
  0
VERTEX
  5
260
  8
Layer_0
  10
955.43848
  20
574.20898
  0
VERTEX
  5
261
  8
Layer_0
  10
955.34473
  20
574.44043
  0
VERTEX
  5
262
  8
Layer_0
  10
955.24365
  20
574.66943
  0
VERTEX
  5
263
  8
Layer_0
  10
955.16357
  20
574.83887
  0
VERTEX
  5
264
  8
Layer_0
  10
955.05713
  20
575.05664
  0
VERTEX
  5
265
  8
Layer_0
  10
954.94385
  20
575.2793
  0
VERTEX
  5
266
  8
Layer_0
  10
954.82373
  20
575.49854
  0
VERTEX
  5
267
  8
Layer_0
  10
954.69678
  20
575.71387
  0
VERTEX
  5
268
  8
Layer_0
  10
954.56299
  20
575.92529
  0
VERTEX
  5
269
  8
Layer_0
  10
954.42285
  20
576.13232
  0
VERTEX
  5
26a
  8
Layer_0
  10
954.27637
  20
576.33496
  0
VERTEX
  5
26b
  8
Layer_0
  10
954.12354
  20
576.53271
  0
VERTEX
  5
26c
  8
Layer_0
  10
953.96436
  20
576.72559
  0
VERTEX
  5
26d
  8
Layer_0
  10
953.87158
  20
576.83252
  0
VERTEX
  5
26e
  8
Layer_0
  10
953.6543
  20
577.0791
  0
VERTEX
  5
26f
  8
Layer_0
  10
953.48633
  20
577.26416
  0
VERTEX
  5
270
  8
Layer_0
  10
953.39209
  20
577.36279
  0
VERTEX
  5
271
  8
Layer_0
  10
953.16406
  20
577.59766
  0
VERTEX
  5
272
  8
Layer_0
  10
952.9873
  20
577.77441
  0
VERTEX
  5
273
  8
Layer_0
  10
952.88623
  20
577.87012
  0
VERTEX
  5
274
  8
Layer_0
  10
952.64795
  20
578.09277
  0
VERTEX
  5
275
  8
Layer_0
  10
952.46289
  20
578.26074
  0
VERTEX
  5
276
  8
Layer_0
  10
952.36182
  20
578.34766
  0
VERTEX
  5
277
  8
Layer_0
  10
952.11377
  20
578.55811
  0
VERTEX
  5
278
  8
Layer_0
  10
951.92041
  20
578.7168
  0
VERTEX
  5
279
  8
Layer_0
  10
951.66357
  20
578.91309
  0
VERTEX
  5
27a
  8
Layer_0
  10
951.14063
  20
579.2959
  0
VERTEX
  5
27b
  8
Layer_0
  10
950.93652
  20
579.44043
  0
VERTEX
  5
27c
  8
Layer_0
  10
950.72803
  20
579.57861
  0
VERTEX
  5
27d
  8
Layer_0
  10
950.50244
  20
579.71777
  0
VERTEX
  5
27e
  8
Layer_0
  10
949.94629
  20
580.04834
  0
VERTEX
  5
27f
  8
Layer_0
  10
949.72949
  20
580.17285
  0
VERTEX
  5
280
  8
Layer_0
  10
949.50879
  20
580.29004
  0
VERTEX
  5
281
  8
Layer_0
  10
949.27148
  20
580.40723
  0
VERTEX
  5
282
  8
Layer_0
  10
948.68652
  20
580.68311
  0
VERTEX
  5
283
  8
Layer_0
  10
948.4585
  20
580.78613
  0
VERTEX
  5
284
  8
Layer_0
  10
948.22803
  20
580.88184
  0
VERTEX
  5
285
  8
Layer_0
  10
947.98047
  20
580.97559
  0
VERTEX
  5
286
  8
Layer_0
  10
947.37061
  20
581.19482
  0
VERTEX
  5
287
  8
Layer_0
  10
947.13379
  20
581.27588
  0
VERTEX
  5
288
  8
Layer_0
  10
946.8125
  20
581.37256
  0
VERTEX
  5
289
  8
Layer_0
  10
946.49902
  20
581.45996
  0
VERTEX
  5
28a
  8
Layer_0
  10
946.25732
  20
581.52344
  0
VERTEX
  5
28b
  8
Layer_0
  10
946.13525
  20
581.55225
  0
VERTEX
  5
28c
  8
Layer_0
  10
945.81738
  20
581.625
  0
VERTEX
  5
28d
  8
Layer_0
  10
945.57324
  20
581.67676
  0
VERTEX
  5
28e
  8
Layer_0
  10
945.44092
  20
581.70166
  0
VERTEX
  5
28f
  8
Layer_0
  10
945.11865
  20
581.75928
  0
VERTEX
  5
290
  8
Layer_0
  10
944.87158
  20
581.79932
  0
VERTEX
  5
291
  8
Layer_0
  10
944.7334
  20
581.81836
  0
VERTEX
  5
292
  8
Layer_0
  10
944.55078
  20
581.8418
  0
VERTEX
  5
293
  8
Layer_0
  10
937.08496
  20
583.06348
  0
VERTEX
  5
294
  8
Layer_0
  10
936.96094
  20
583.08301
  0
VERTEX
  5
295
  8
Layer_0
  10
934.80371
  20
583.40137
  0
VERTEX
  5
296
  8
Layer_0
  10
933.02246
  20
583.69336
  0
VERTEX
  5
297
  8
Layer_0
  10
931.23291
  20
584.01465
  0
VERTEX
  5
298
  8
Layer_0
  10
929.45313
  20
584.36182
  0
VERTEX
  5
299
  8
Layer_0
  10
927.65723
  20
584.74023
  0
VERTEX
  5
29a
  8
Layer_0
  10
925.8667
  20
585.14648
  0
VERTEX
  5
29b
  8
Layer_0
  10
925.32568
  20
585.27734
  0
VERTEX
  5
29c
  8
Layer_0
  10
925.59424
  20
585.56738
  0
VERTEX
  5
29d
  8
Layer_0
  10
925.73047
  20
585.71875
  0
VERTEX
  5
29e
  8
Layer_0
  10
926.62891
  20
586.73926
  0
VERTEX
  5
29f
  8
Layer_0
  10
926.76172
  20
586.89355
  0
VERTEX
  5
2a0
  8
Layer_0
  10
927.63379
  20
587.93652
  0
VERTEX
  5
2a1
  8
Layer_0
  10
927.76416
  20
588.09619
  0
VERTEX
  5
2a2
  8
Layer_0
  10
928.60938
  20
589.16162
  0
VERTEX
  5
2a3
  8
Layer_0
  10
928.76123
  20
589.35986
  0
VERTEX
  5
2a4
  8
Layer_0
  10
928.95264
  20
589.62842
  0
VERTEX
  5
2a5
  8
Layer_0
  10
929.45313
  20
590.36279
  0
VERTEX
  5
2a6
  8
Layer_0
  10
929.59033
  20
590.57178
  0
VERTEX
  5
2a7
  8
Layer_0
  10
929.75049
  20
590.8335
  0
VERTEX
  5
2a8
  8
Layer_0
  10
930.19678
  20
591.59766
  0
VERTEX
  5
2a9
  8
Layer_0
  10
930.31934
  20
591.81543
  0
VERTEX
  5
2aa
  8
Layer_0
  10
930.46143
  20
592.08984
  0
VERTEX
  5
2ab
  8
Layer_0
  10
930.85254
  20
592.88184
  0
VERTEX
  5
2ac
  8
Layer_0
  10
930.95996
  20
593.10791
  0
VERTEX
  5
2ad
  8
Layer_0
  10
931.07861
  20
593.38232
  0
VERTEX
  5
2ae
  8
Layer_0
  10
931.41406
  20
594.19824
  0
VERTEX
  5
2af
  8
Layer_0
  10
931.50586
  20
594.43115
  0
VERTEX
  5
2b0
  8
Layer_0
  10
931.60791
  20
594.71973
  0
VERTEX
  5
2b1
  8
Layer_0
  10
931.88574
  20
595.55664
  0
VERTEX
  5
2b2
  8
Layer_0
  10
931.96045
  20
595.79492
  0
VERTEX
  5
2b3
  8
Layer_0
  10
932.0415
  20
596.08691
  0
VERTEX
  5
2b4
  8
Layer_0
  10
932.26123
  20
596.94238
  0
VERTEX
  5
2b5
  8
Layer_0
  10
932.31982
  20
597.18555
  0
VERTEX
  5
2b6
  8
Layer_0
  10
932.38086
  20
597.48535
  0
VERTEX
  5
2b7
  8
Layer_0
  10
932.54102
  20
598.35596
  0
VERTEX
  5
2b8
  8
Layer_0
  10
932.58203
  20
598.60254
  0
VERTEX
  5
2b9
  8
Layer_0
  10
932.62256
  20
598.90625
  0
VERTEX
  5
2ba
  8
Layer_0
  10
932.71387
  20
599.71338
  0
VERTEX
  5
2bb
  8
Layer_0
  10
932.82324
  20
600.53174
  0
VERTEX
  5
2bc
  8
Layer_0
  10
932.85254
  20
600.77979
  0
VERTEX
  5
2bd
  8
Layer_0
  10
932.86621
  20
600.92822
  0
VERTEX
  5
2be
  8
Layer_0
  10
932.94238
  20
601.84082
  0
VERTEX
  5
2bf
  8
Layer_0
  10
932.95947
  20
602.09033
  0
VERTEX
  5
2c0
  8
Layer_0
  10
932.96533
  20
602.23291
  0
VERTEX
  5
2c1
  8
Layer_0
  10
932.99658
  20
603.14746
  0
VERTEX
  5
2c2
  8
Layer_0
  10
933.00146
  20
603.39746
  0
VERTEX
  5
2c3
  8
Layer_0
  10
933.00049
  20
603.54443
  0
VERTEX
  5
2c4
  8
Layer_0
  10
932.99512
  20
603.90039
  0
VERTEX
  5
2c5
  8
Layer_0
  10
933.01025
  20
604.021
  0
VERTEX
  5
2c6
  8
Layer_0
  10
933.0376
  20
604.26953
  0
VERTEX
  5
2c7
  8
Layer_0
  10
933.05469
  20
604.48096
  0
VERTEX
  5
2c8
  8
Layer_0
  10
933.10059
  20
605.16357
  0
VERTEX
  5
2c9
  8
Layer_0
  10
933.11328
  20
605.41309
  0
VERTEX
  5
2ca
  8
Layer_0
  10
933.11816
  20
605.63721
  0
VERTEX
  5
2cb
  8
Layer_0
  10
933.12354
  20
606.32031
  0
VERTEX
  5
2cc
  8
Layer_0
  10
933.12207
  20
606.57031
  0
VERTEX
  5
2cd
  8
Layer_0
  10
933.11377
  20
606.78418
  0
VERTEX
  5
2ce
  8
Layer_0
  10
933.07959
  20
607.46582
  0
VERTEX
  5
2cf
  8
Layer_0
  10
933.06348
  20
607.71484
  0
VERTEX
  5
2d0
  8
Layer_0
  10
933.04248
  20
607.93506
  0
VERTEX
  5
2d1
  8
Layer_0
  10
932.96826
  20
608.61328
  0
VERTEX
  5
2d2
  8
Layer_0
  10
932.93701
  20
608.86133
  0
VERTEX
  5
2d3
  8
Layer_0
  10
932.90381
  20
609.0752
  0
VERTEX
  5
2d4
  8
Layer_0
  10
932.79004
  20
609.74902
  0
VERTEX
  5
2d5
  8
Layer_0
  10
932.74463
  20
609.99463
  0
VERTEX
  5
2d6
  8
Layer_0
  10
932.69971
  20
610.20508
  0
VERTEX
  5
2d7
  8
Layer_0
  10
932.54688
  20
610.87158
  0
VERTEX
  5
2d8
  8
Layer_0
  10
932.48682
  20
611.11426
  0
VERTEX
  5
2d9
  8
Layer_0
  10
932.42822
  20
611.32617
  0
VERTEX
  5
2da
  8
Layer_0
  10
932.36816
  20
611.53174
  0
VERTEX
  5
2db
  8
Layer_0
  10
932.29297
  20
611.98145
  0
VERTEX
  5
2dc
  8
Layer_0
  10
932.24805
  20
612.22754
  0
VERTEX
  5
2dd
  8
Layer_0
  10
932.21631
  20
612.37988
  0
VERTEX
  5
2de
  8
Layer_0
  10
932.01709
  20
613.28564
  0
VERTEX
  5
2df
  8
Layer_0
  10
931.95947
  20
613.5293
  0
VERTEX
  5
2e0
  8
Layer_0
  10
931.91943
  20
613.68018
  0
VERTEX
  5
2e1
  8
Layer_0
  10
931.67529
  20
614.57178
  0
VERTEX
  5
2e2
  8
Layer_0
  10
931.60547
  20
614.81201
  0
VERTEX
  5
2e3
  8
Layer_0
  10
931.56104
  20
614.95166
  0
VERTEX
  5
2e4
  8
Layer_0
  10
931.27393
  20
615.82715
  0
VERTEX
  5
2e5
  8
Layer_0
  10
931.19238
  20
616.06348
  0
VERTEX
  5
2e6
  8
Layer_0
  10
931.13721
  20
616.21094
  0
VERTEX
  5
2e7
  8
Layer_0
  10
930.80664
  20
617.06885
  0
VERTEX
  5
2e8
  8
Layer_0
  10
930.71338
  20
617.30078
  0
VERTEX
  5
2e9
  8
Layer_0
  10
930.65381
  20
617.4375
  0
VERTEX
  5
2ea
  8
Layer_0
  10
930.28174
  20
618.27588
  0
VERTEX
  5
2eb
  8
Layer_0
  10
930.17725
  20
618.50293
  0
VERTEX
  5
2ec
  8
Layer_0
  10
930.11328
  20
618.63232
  0
VERTEX
  5
2ed
  8
Layer_0
  10
929.70068
  20
619.45068
  0
VERTEX
  5
2ee
  8
Layer_0
  10
929.58447
  20
619.67188
  0
VERTEX
  5
2ef
  8
Layer_0
  10
929.50928
  20
619.80713
  0
VERTEX
  5
2f0
  8
Layer_0
  10
929.05615
  20
620.60303
  0
VERTEX
  5
2f1
  8
Layer_0
  10
928.9292
  20
620.81836
  0
VERTEX
  5
2f2
  8
Layer_0
  10
928.85107
  20
620.94385
  0
VERTEX
  5
2f3
  8
Layer_0
  10
928.35889
  20
621.71631
  0
VERTEX
  5
2f4
  8
Layer_0
  10
928.22119
  20
621.92529
  0
VERTEX
  5
2f5
  8
Layer_0
  10
928.13525
  20
622.04785
  0
VERTEX
  5
2f6
  8
Layer_0
  10
927.60498
  20
622.79492
  0
VERTEX
  5
2f7
  8
Layer_0
  10
927.45752
  20
622.99658
  0
VERTEX
  5
2f8
  8
Layer_0
  10
927.3667
  20
623.11377
  0
VERTEX
  5
2f9
  8
Layer_0
  10
926.79883
  20
623.83496
  0
VERTEX
  5
2fa
  8
Layer_0
  10
926.64111
  20
624.02881
  0
VERTEX
  5
2fb
  8
Layer_0
  10
926.54199
  20
624.14453
  0
VERTEX
  5
2fc
  8
Layer_0
  10
925.93799
  20
624.83691
  0
VERTEX
  5
2fd
  8
Layer_0
  10
925.771
  20
625.02295
  0
VERTEX
  5
2fe
  8
Layer_0
  10
925.66748
  20
625.13232
  0
VERTEX
  5
2ff
  8
Layer_0
  10
925.02783
  20
625.79541
  0
VERTEX
  5
300
  8
Layer_0
  10
924.85156
  20
625.97266
  0
VERTEX
  5
301
  8
Layer_0
  10
924.74219
  20
626.07666
  0
VERTEX
  5
302
  8
Layer_0
  10
924.06787
  20
626.70898
  0
VERTEX
  5
303
  8
Layer_0
  10
923.88281
  20
626.87744
  0
VERTEX
  5
304
  8
Layer_0
  10
923.76611
  20
626.97852
  0
VERTEX
  5
305
  8
Layer_0
  10
923.05811
  20
627.57813
  0
VERTEX
  5
306
  8
Layer_0
  10
922.86475
  20
627.73633
  0
VERTEX
  5
307
  8
Layer_0
  10
922.7417
  20
627.83203
  0
VERTEX
  5
308
  8
Layer_0
  10
922.00098
  20
628.39746
  0
VERTEX
  5
309
  8
Layer_0
  10
921.9458
  20
628.43945
  0
VERTEX
  5
30a
  8
Layer_0
  10
921.18311
  20
629.01123
  0
VERTEX
  5
30b
  8
Layer_0
  10
920.88721
  20
629.22266
  0
VERTEX
  5
30c
  8
Layer_0
  10
920.10059
  20
629.7583
  0
VERTEX
  5
30d
  8
Layer_0
  10
919.79443
  20
629.95703
  0
VERTEX
  5
30e
  8
Layer_0
  10
918.98535
  20
630.45557
  0
VERTEX
  5
30f
  8
Layer_0
  10
918.67383
  20
630.6377
  0
VERTEX
  5
310
  8
Layer_0
  10
917.84326
  20
631.09912
  0
VERTEX
  5
311
  8
Layer_0
  10
917.521
  20
631.26855
  0
VERTEX
  5
312
  8
Layer_0
  10
916.66992
  20
631.69189
  0
VERTEX
  5
313
  8
Layer_0
  10
916.3418
  20
631.84619
  0
VERTEX
  5
314
  8
Layer_0
  10
915.47266
  20
632.23047
  0
VERTEX
  5
315
  8
Layer_0
  10
915.13867
  20
632.36914
  0
VERTEX
  5
316
  8
Layer_0
  10
914.25146
  20
632.71436
  0
VERTEX
  5
317
  8
Layer_0
  10
913.9751
  20
632.81494
  0
VERTEX
  5
318
  8
Layer_0
  10
913.73779
  20
632.94189
  0
VERTEX
  5
319
  8
Layer_0
  10
913.53662
  20
633.04541
  0
VERTEX
  5
31a
  8
Layer_0
  10
913.31299
  20
633.15674
  0
VERTEX
  5
31b
  8
Layer_0
  10
913.08545
  20
633.26025
  0
VERTEX
  5
31c
  8
Layer_0
  10
912.85352
  20
633.35742
  0
VERTEX
  5
31d
  8
Layer_0
  10
912.64404
  20
633.44141
  0
VERTEX
  5
31e
  8
Layer_0
  10
912.41064
  20
633.53076
  0
VERTEX
  5
31f
  8
Layer_0
  10
912.17432
  20
633.61279
  0
VERTEX
  5
320
  8
Layer_0
  10
911.91943
  20
633.69238
  0
VERTEX
  5
321
  8
Layer_0
  10
911.70313
  20
633.75586
  0
VERTEX
  5
322
  8
Layer_0
  10
911.4624
  20
633.82275
  0
VERTEX
  5
323
  8
Layer_0
  10
911.21924
  20
633.88184
  0
VERTEX
  5
324
  8
Layer_0
  10
910.95313
  20
633.93701
  0
VERTEX
  5
325
  8
Layer_0
  10
910.73096
  20
633.97949
  0
VERTEX
  5
326
  8
Layer_0
  10
910.48486
  20
634.02295
  0
VERTEX
  5
327
  8
Layer_0
  10
910.2373
  20
634.05811
  0
VERTEX
  5
328
  8
Layer_0
  10
909.9668
  20
634.08789
  0
VERTEX
  5
329
  8
Layer_0
  10
909.74023
  20
634.10889
  0
VERTEX
  5
32a
  8
Layer_0
  10
909.70166
  20
634.11182
  0
VERTEX
  5
32b
  8
Layer_0
  10
909.47852
  20
634.15527
  0
VERTEX
  5
32c
  8
Layer_0
  10
909.26563
  20
634.19385
  0
VERTEX
  5
32d
  8
Layer_0
  10
908.4375
  20
634.33203
  0
VERTEX
  5
32e
  8
Layer_0
  10
908.21484
  20
634.36572
  0
VERTEX
  5
32f
  8
Layer_0
  10
907.38379
  20
634.48047
  0
VERTEX
  5
330
  8
Layer_0
  10
907.16943
  20
634.50732
  0
VERTEX
  5
331
  8
Layer_0
  10
906.33545
  20
634.59961
  0
VERTEX
  5
332
  8
Layer_0
  10
906.12109
  20
634.62012
  0
VERTEX
  5
333
  8
Layer_0
  10
905.28467
  20
634.68994
  0
VERTEX
  5
334
  8
Layer_0
  10
905.06152
  20
634.70557
  0
VERTEX
  5
335
  8
Layer_0
  10
904.22363
  20
634.75195
  0
VERTEX
  5
336
  8
Layer_0
  10
904.00439
  20
634.76123
  0
VERTEX
  5
337
  8
Layer_0
  10
903.16504
  20
634.78467
  0
VERTEX
  5
338
  8
Layer_0
  10
902.94678
  20
634.7876
  0
VERTEX
  5
339
  8
Layer_0
  10
902.10693
  20
634.78809
  0
SEQEND
  0
POLYLINE
  5
33b
  8
Layer_0
  62
7
  70
1
  66
1
  10
0
  20
0
  30
0
  0
VERTEX
  5
33b
  8
Layer_0
  10
900.77051
  20
626.75
  0
VERTEX
  5
33c
  8
Layer_0
  10
899.44336
  20
626.65527
  42
0.052934236
  0
VERTEX
  5
33d
  8
Layer_0
  10
892.92822
  20
625.3457
  42
0.13018162
  0
VERTEX
  5
33e
  8
Layer_0
  10
886.17236
  20
619.96729
  42
0.058018346
  0
VERTEX
  5
33f
  8
Layer_0
  10
883.50244
  20
616.2251
  0
VERTEX
  5
340
  8
Layer_0
  10
881.87598
  20
612.4541
  42
0.15360322
  0
VERTEX
  5
341
  8
Layer_0
  10
881.26904
  20
605.48779
  42
0.27513033
  0
VERTEX
  5
342
  8
Layer_0
  10
881.07617
  20
604.92383
  0
VERTEX
  5
343
  8
Layer_0
  10
881.28076
  20
604.5376
  0
VERTEX
  5
344
  8
Layer_0
  10
881.6709
  20
601.84668
  42
0.034261397
  0
VERTEX
  5
345
  8
Layer_0
  10
883.10547
  20
597.28857
  42
0.091287157
  0
VERTEX
  5
346
  8
Layer_0
  10
885.07666
  20
592.95215
  0
VERTEX
  5
347
  8
Layer_0
  10
885.69971
  20
591.97803
  0
VERTEX
  5
348
  8
Layer_0
  10
885.89453
  20
591.60107
  42
0.034093853
  0
VERTEX
  5
349
  8
Layer_0
  10
887.44873
  20
589.23242
  0
VERTEX
  5
34a
  8
Layer_0
  10
887.40381
  20
589.23633
  42
-0.039064356
  0
VERTEX
  5
34b
  8
Layer_0
  10
883.74268
  20
590.4458
  42
-0.14799796
  0
VERTEX
  5
34c
  8
Layer_0
  10
875.24023
  20
598.91504
  42
-0.099641503
  0
VERTEX
  5
34d
  8
Layer_0
  10
874.1626
  20
608.14209
  0
VERTEX
  5
34e
  8
Layer_0
  10
874.19531
  20
610.01221
  0
VERTEX
  5
34f
  8
Layer_0
  10
874.24219
  20
610.62695
  42
0.14044823
  0
VERTEX
  5
350
  8
Layer_0
  10
873.40283
  20
615.41357
  42
0.34086978
  0
VERTEX
  5
351
  8
Layer_0
  10
870.85059
  20
615.98145
  42
0.18360087
  0
VERTEX
  5
352
  8
Layer_0
  10
868.35156
  20
613.44189
  42
0.018117172
  0
VERTEX
  5
353
  8
Layer_0
  10
862.9751
  20
606.17139
  0
VERTEX
  5
354
  8
Layer_0
  10
862.91992
  20
606.15332
  42
-0.28710274
  0
VERTEX
  5
355
  8
Layer_0
  10
862.61035
  20
606.29004
  42
-0.004343269
  0
VERTEX
  5
356
  8
Layer_0
  10
856.24121
  20
614.78125
  0
VERTEX
  5
357
  8
Layer_0
  10
856.05322
  20
614.93555
  0
VERTEX
  5
358
  8
Layer_0
  10
856.02393
  20
614.95605
  0
VERTEX
  5
359
  8
Layer_0
  10
855.97998
  20
615.00439
  42
0.38693097
  0
VERTEX
  5
35a
  8
Layer_0
  10
852.83936
  20
615.15527
  42
0.23695013
  0
VERTEX
  5
35b
  8
Layer_0
  10
851.99316
  20
613.25244
  42
0.071541401
  0
VERTEX
  5
35c
  8
Layer_0
  10
851.18164
  20
609.8833
  42
0.11408132
  0
VERTEX
  5
35d
  8
Layer_0
  10
851.07666
  20
588.49609
  42
0.14336388
  0
VERTEX
  5
35e
  8
Layer_0
  10
857.51123
  20
578.9043
  42
0.12258165
  0
VERTEX
  5
35f
  8
Layer_0
  10
871.37109
  20
570.68652
  42
0.041338685
  0
VERTEX
  5
360
  8
Layer_0
  10
877.58301
  20
569.2915
  42
0.013871915
  0
VERTEX
  5
361
  8
Layer_0
  10
885.32471
  20
568.94092
  0
VERTEX
  5
362
  8
Layer_0
  10
892.36035
  20
568.29297
  0
VERTEX
  5
363
  8
Layer_0
  10
899.37256
  20
567.60547
  42
0.034374246
  0
VERTEX
  5
364
  8
Layer_0
  10
922.9917
  20
567.63037
  0
VERTEX
  5
365
  8
Layer_0
  10
932.48096
  20
568.18555
  42
-0.0073773
  0
VERTEX
  5
366
  8
Layer_0
  10
943.11621
  20
568.57471
  0
VERTEX
  5
367
  8
Layer_0
  10
943.72852
  20
568.56543
  42
0.13162754
  0
VERTEX
  5
368
  8
Layer_0
  10
947.77295
  20
569.74805
  42
0.2998068
  0
VERTEX
  5
369
  8
Layer_0
  10
947.86963
  20
571.54346
  42
0.19461724
  0
VERTEX
  5
36a
  8
Layer_0
  10
943.38477
  20
573.92627
  0
VERTEX
  5
36b
  8
Layer_0
  10
935.79297
  20
575.16846
  0
VERTEX
  5
36c
  8
Layer_0
  10
933.59229
  20
575.49316
  42
-0.030135078
  0
VERTEX
  5
36d
  8
Layer_0
  10
918.39307
  20
578.81641
  42
-0.042162593
  0
VERTEX
  5
36e
  8
Layer_0
  10
905.38184
  20
584.87598
  0
VERTEX
  5
36f
  8
Layer_0
  10
905.12354
  20
584.89697
  42
0.36890629
  0
VERTEX
  5
370
  8
Layer_0
  10
902.44775
  20
582.75244
  42
0.20343475
  0
VERTEX
  5
371
  8
Layer_0
  10
902.56738
  20
580.60742
  42
0.20357583
  0
VERTEX
  5
372
  8
Layer_0
  10
904.19385
  20
579.2041
  0
VERTEX
  5
373
  8
Layer_0
  10
905.22412
  20
578.96094
  0
VERTEX
  5
374
  8
Layer_0
  10
910.80566
  20
576.37793
  42
0.020062018
  0
VERTEX
  5
375
  8
Layer_0
  10
921.6333
  20
572.20947
  0
VERTEX
  5
376
  8
Layer_0
  10
921.59082
  20
572.2002
  42
-0.035105731
  0
VERTEX
  5
377
  8
Layer_0
  10
901.28223
  20
571.80762
  42
-0.021001134
  0
VERTEX
  5
378
  8
Layer_0
  10
891.58496
  20
572.79541
  0
VERTEX
  5
379
  8
Layer_0
  10
878.54688
  20
573.41064
  42
-0.1511969
  0
VERTEX
  5
37a
  8
Layer_0
  10
860.27295
  20
581.89551
  42
-0.12827333
  0
VERTEX
  5
37b
  8
Layer_0
  10
855.01465
  20
590.896
  42
-0.090062889
  0
VERTEX
  5
37c
  8
Layer_0
  10
855.20703
  20
607.11621
  42
-0.22878593
  0
VERTEX
  5
37d
  8
Layer_0
  10
855.50146
  20
607.21436
  42
-0.13018807
  0
VERTEX
  5
37e
  8
Layer_0
  10
858.63867
  20
602.19092
  42
-0.2947263
  0
VERTEX
  5
37f
  8
Layer_0
  10
859.16162
  20
601.8335
  0
VERTEX
  5
380
  8
Layer_0
  10
859.62549
  20
600.16113
  42
0.20004824
  0
VERTEX
  5
381
  8
Layer_0
  10
860.93661
  20
598.45639
  42
0.200141
  0
VERTEX
  5
382
  8
Layer_0
  10
863.07031
  20
598.18799
  42
0.25091802
  0
VERTEX
  5
383
  8
Layer_0
  10
866.00488
  20
601.82861
  0
VERTEX
  5
384
  8
Layer_0
  10
868.43359
  20
605.55176
  0
VERTEX
  5
385
  8
Layer_0
  10
868.48047
  20
605.63818
  42
-0.3937981
  0
VERTEX
  5
386
  8
Layer_0
  10
869.08887
  20
605.76025
  42
-0.30074199
  0
VERTEX
  5
387
  8
Layer_0
  10
869.19043
  20
604.61475
  0
VERTEX
  5
388
  8
Layer_0
  10
869.19336
  20
604.40283
  42
0.1680672
  0
VERTEX
  5
389
  8
Layer_0
  10
873.25098
  20
592.89795
  42
0.10974732
  0
VERTEX
  5
38a
  8
Layer_0
  10
885.99756
  20
583.60449
  42
0.074740573
  0
VERTEX
  5
38b
  8
Layer_0
  10
895.65479
  20
581.70215
  42
0.33548852
  0
VERTEX
  5
38c
  8
Layer_0
  10
897.58105
  20
583.99512
  42
0.12764765
  0
VERTEX
  5
38d
  8
Layer_0
  10
897.37305
  20
584.9126
  0
VERTEX
  5
38e
  8
Layer_0
  10
897.15186
  20
585.28174
  0
VERTEX
  5
38f
  8
Layer_0
  10
896.73389
  20
585.63135
  42
-0.2052218
  0
VERTEX
  5
390
  8
Layer_0
  10
887.29688
  20
604.85107
  42
-0.041830023
  0
VERTEX
  5
391
  8
Layer_0
  10
887.45215
  20
607.61377
  42
-0.080058044
  0
VERTEX
  5
392
  8
Layer_0
  10
888.70459
  20
612.58203
  0
VERTEX
  5
393
  8
Layer_0
  10
888.95801
  20
613.6709
  42
-0.17265482
  0
VERTEX
  5
394
  8
Layer_0
  10
891.57373
  20
617.33057
  42
-0.18273392
  0
VERTEX
  5
395
  8
Layer_0
  10
899.36377
  20
620.42041
  42
-0.12598801
  0
VERTEX
  5
396
  8
Layer_0
  10
907.21484
  20
619.76221
  42
-0.10039598
  0
VERTEX
  5
397
  8
Layer_0
  10
914.26123
  20
616.38867
  42
-0.05720604
  0
VERTEX
  5
398
  8
Layer_0
  10
915.89307
  20
614.6958
  0
VERTEX
  5
399
  8
Layer_0
  10
917.85547
  20
610.68701
  42
-0.13462211
  0
VERTEX
  5
39a
  8
Layer_0
  10
919.1748
  20
603.25977
  42
-0.32270738
  0
VERTEX
  5
39b
  8
Layer_0
  10
914.00635
  20
593.77344
  0
VERTEX
  5
39c
  8
Layer_0
  10
911.40576
  20
592.85791
  42
-0.31448974
  0
VERTEX
  5
39d
  8
Layer_0
  10
902.30566
  20
595.5166
  42
-0.14053997
  0
VERTEX
  5
39e
  8
Layer_0
  10
898.7749
  20
601.69824
  42
-0.27917813
  0
VERTEX
  5
39f
  8
Layer_0
  10
901.69971
  20
610.24121
  42
-0.30901018
  0
VERTEX
  5
3a0
  8
Layer_0
  10
905.62842
  20
609.771
  42
-0.24860787
  0
VERTEX
  5
3a1
  8
Layer_0
  10
907.87729
  20
608.33691
  42
-0.24837411
  0
VERTEX
  5
3a2
  8
Layer_0
  10
907.9541
  20
605.67041
  42
-0.22309136
  0
VERTEX
  5
3a3
  8
Layer_0
  10
906.77734
  20
604.13623
  42
-0.20673007
  0
VERTEX
  5
3a4
  8
Layer_0
  10
905.32275
  20
604.86426
  0
VERTEX
  5
3a5
  8
Layer_0
  10
905.30371
  20
604.86914
  42
0.34043367
  0
VERTEX
  5
3a6
  8
Layer_0
  10
903.17236
  20
604.91162
  42
0.30434553
  0
VERTEX
  5
3a7
  8
Layer_0
  10
902.41943
  20
602.72363
  42
0.3512248
  0
VERTEX
  5
3a8
  8
Layer_0
  10
906.81592
  20
597.49023
  42
0.11648788
  0
VERTEX
  5
3a9
  8
Layer_0
  10
908.54932
  20
597.78125
  42
0.37706288
  0
VERTEX
  5
3aa
  8
Layer_0
  10
913.4126
  20
603.53711
  42
0.38062599
  0
VERTEX
  5
3ab
  8
Layer_0
  10
906.20947
  20
615.51709
  42
0.29354249
  0
VERTEX
  5
3ac
  8
Layer_0
  10
893.60889
  20
613.13721
  42
0.082158191
  0
VERTEX
  5
3ad
  8
Layer_0
  10
892.25098
  20
610.48193
  42
0.14888194
  0
VERTEX
  5
3ae
  8
Layer_0
  10
891.32617
  20
604.72461
  42
0.039161256
  0
VERTEX
  5
3af
  8
Layer_0
  10
892.18896
  20
600.77246
  42
0.13574721
  0
VERTEX
  5
3b0
  8
Layer_0
  10
893.46387
  20
597.95996
  0
VERTEX
  5
3b1
  8
Layer_0
  10
894.43066
  20
596.47266
  42
0.077162403
  0
VERTEX
  5
3b2
  8
Layer_0
  10
900.50195
  20
590.05615
  42
0.1651328
  0
VERTEX
  5
3b3
  8
Layer_0
  10
905.1748
  20
587.72314
  42
0.12781498
  0
VERTEX
  5
3b4
  8
Layer_0
  10
915.55371
  20
587.98145
  42
0.045502856
  0
VERTEX
  5
3b5
  8
Layer_0
  10
918.80176
  20
590.00732
  42
0.025540168
  0
VERTEX
  5
3b6
  8
Layer_0
  10
922.3418
  20
594.13379
  42
0.13979004
  0
VERTEX
  5
3b7
  8
Layer_0
  10
924.77246
  20
600.68604
  42
0.049520192
  0
VERTEX
  5
3b8
  8
Layer_0
  10
924.9873
  20
604.33691
  42
0.11756863
  0
VERTEX
  5
3b9
  8
Layer_0
  10
924.55664
  20
609.74219
  42
0.20367425
  0
VERTEX
  5
3ba
  8
Layer_0
  10
917.14697
  20
622.03857
  42
0.091049289
  0
VERTEX
  5
3bb
  8
Layer_0
  10
910.44775
  20
625.56348
  42
0.19511801
  0
VERTEX
  5
3bc
  8
Layer_0
  10
908.77344
  20
626.14209
  42
0.064644026
  0
SEQEND
  0
ENDSEC
  0
EOF
