0
SECTION
2
HEADER
9
$INSUNITS
70
4
9
$ACADVER
1
AC1014
9
$HANDSEED
5
FFFF
0
ENDSEC
0
SECTION
2
TABLES
0
TABLE
2
VPORT
5
8
100
AcDbSymbolTable
0
ENDTAB
0
TABLE
2
LTYPE
5
5
100
AcDbSymbolTable
0
LTYPE
5
14
100
AcDbSymbolTableRecord
100
AcDbLinetypeTableRecord
2
BYBLOCK
70
0
0
LTYPE
5
15
100
AcDbSymbolTableRecord
100
AcDbLinetypeTableRecord
2
BYLAYER
70
0
0
LTYPE
5
16
100
AcDbSymbolTableRecord
100
AcDbLinetypeTableRecord
2
DASHED
70
0
3
Dashed __ __ __ __ __ __ __ __ __ __ __ __ __ _
72
65
73
2
40
0.75
49
0.5
74
0
49
-0.25
74
0
0
ENDTAB
0
TABLE
2
LAYER
5
2
100
AcDbSymbolTable
70
3
0
LAYER
5
50
100
AcDbSymbolTableRecord
100
AcDbLayerTableRecord
2
1
70
0
62
7
6
DASHED
0
LAYER
5
51
100
AcDbSymbolTableRecord
100
AcDbLayerTableRecord
2
0
70
0
62
7
6
CONTINUOUS
0
ENDTAB
0
TABLE
2
STYLE
5
3
100
AcDbSymbolTable
70
1
0
STYLE
5
11
100
AcDbSymbolTableRecord
100
AcDbTextStyleTableRecord
2
STANDARD
70
0
0
ENDTAB
0
TABLE
2
VIEW
5
6
100
AcDbSymbolTable
70
0
0
ENDTAB
0
TABLE
2
UCS
5
7
100
AcDbSymbolTable
70
0
0
ENDTAB
0
TABLE
2
APPID
5
9
100
AcDbSymbolTable
70
2
0
APPID
5
12
100
AcDbSymbolTableRecord
100
AcDbRegAppTableRecord
2
ACAD
70
0
0
ENDTAB
0
TABLE
2
DIMSTYLE
5
A
100
AcDbSymbolTable
70
1
0
ENDTAB
0
TABLE
2
BLOCK_RECORD
5
1
100
AcDbSymbolTable
70
1
0
BLOCK_RECORD
5
1F
100
AcDbSymbolTableRecord
100
AcDbBlockTableRecord
2
*MODEL_SPACE
0
BLOCK_RECORD
5
1B
100
AcDbSymbolTableRecord
100
AcDbBlockTableRecord
2
*PAPER_SPACE
0
ENDTAB
0
ENDSEC
0
SECTION
2
BLOCKS
0
BLOCK
5
20
100
AcDbEntity
100
AcDbBlockBegin
2
*MODEL_SPACE
0
ENDBLK
5
21
100
AcDbEntity
100
AcDbBlockEnd
0
BLOCK
5
1C
100
AcDbEntity
100
AcDbBlockBegin
2
*PAPER_SPACE
0
ENDBLK
5
1D
100
AcDbEntity
100
AcDbBlockEnd
0
ENDSEC
0
SECTION
2
ENTITIES
0
LWPOLYLINE
5
100
100
AcDbEntity
8
0
100
AcDbPolyline
90
682
70
1
43
0.0
10
68.20080941264635
20
-96.323615558680231
10
68.44006941264638
20
-96.213265558680163
10
68.920539412646491
20
-95.982795558680323
10
69.144169412646335
20
-95.871465558680171
10
69.390269412646433
20
-95.738165558680208
10
69.856089412646583
20
-95.47546555868017
10
70.071909412646392
20
-95.349495558680246
10
70.283819412646409
20
-95.216685558680183
10
70.491339412646425
20
-95.077035558680194
10
70.694469412646299
20
-94.93103555868025
10
70.89270941264644
20
-94.779185558680155
10
71.086069412646395
20
-94.620975558680271
10
71.274539412646476
20
-94.456425558680266
10
71.458139412646489
20
-94.286505558680247
10
71.6358694126464
20
-94.111215558680215
10
71.808239412646486
20
-93.930055558680223
10
71.974739412646613
20
-93.743535558680264
10
72.135379412646472
20
-93.552125558680217
10
72.290169412646463
20
-93.355355558680202
10
72.438119412646387
20
-93.154185558680211
10
72.580209412646468
20
-92.948615558680245
10
72.687629412646544
20
-92.783575558680269
10
72.817019412646431
20
-92.578985558680174
10
72.947399412646519
20
-92.365605558680244
10
73.070929412646564
20
-92.148325558680213
10
73.187629412646515
20
-91.927125558680274
10
73.297489412646541
20
-91.70252555868025
10
73.382449412646338
20
-91.515025558680207
10
73.47815941264642
20
-91.29675555868026
10
73.574839412646611
20
-91.066295558680252
10
73.664679412646592
20
-90.832895558680349
10
73.746709412646396
20
-90.597055558680282
10
73.821419412646492
20
-90.358285558680222
10
73.860479412646498
20
-90.223025558680234
10
73.923469412646341
20
-89.995975558680215
10
73.986459412646468
20
-89.753795558680309
10
74.041629412646444
20
-89.510135558680162
10
74.089489412646543
20
-89.265025558680264
10
74.130009412646416
20
-89.0179555586802
10
74.151989412646486
20
-88.855845558680215
10
74.181279412646575
20
-88.622935558680211
10
74.208629412646587
20
-88.374395558680234
10
74.228159412646448
20
-88.12488555868029
10
74.239879412646559
20
-87.875375558680275
10
74.243779412646518
20
-87.62537555868029
10
74.242319412646367
20
-87.474495558680232
10
74.237919412646391
20
-87.239625558680274
10
74.229619412646457
20
-86.990115558680117
10
74.213019412646304
20
-86.740605558680244
10
74.189089412646467
20
-86.4915855586802
10
74.156869412646387
20
-86.244025558680306
10
74.134409412646392
20
-86.098515558680191
10
74.096319412646494
20
-85.865605558680258
10
74.052379412646587
20
-85.619515558680206
10
74.000619412646387
20
-85.374885558680234
10
73.941049412646436
20
-85.13220555868017
10
73.873659412646475
20
-84.891485558680202
10
73.829229412646526
20
-84.745005558680191
10
73.757449412646423
20
-84.517955558680242
10
73.678349412646469
20
-84.281135558680234
10
73.591929412646522
20
-84.04627555868025
10
73.498179412646465
20
-83.814825558680255
10
73.39709941264644
20
-83.585825558680185
10
73.317019412646403
20
-83.416385558680162
10
73.210579412646553
20
-83.198615558680231
10
73.097299412646493
20
-82.975955558680212
10
72.977179412646507
20
-82.756715558680156
10
72.85022941264657
20
-82.541385558680176
10
72.716439412646423
20
-82.3299655586802
10
72.576299412646534
20
-82.122935558680155
10
72.429819412646452
20
-81.920295558680323
10
72.276989412646486
20
-81.722545558680295
10
72.117809412646352
20
-81.529665558680193
10
72.025029412646546
20
-81.422735558680159
10
71.807749412646444
20
-81.176155558680207
10
71.639779412646476
20
-80.991095558680257
10
71.545539412646519
20
-80.892465558680229
10
71.317509412646416
20
-80.6575955586802
10
71.140749412646471
20
-80.48084555868023
10
71.039679412646564
20
-80.385135558680219
10
70.801399412646475
20
-80.162485558680245
10
70.616339412646454
20
-79.994515558680206
10
70.515269412646404
20
-79.907595558680242
10
70.267219412646398
20
-79.697145558680305
10
70.073859412646442
20
-79.538455558680212
10
69.817019412646459
20
-79.342165558680193
10
69.294079412646568
20
-78.959355558680286
10
69.089969412646468
20
-78.814825558680255
10
68.881479412646627
20
-78.67664555868032
10
68.655889412646616
20
-78.537485558680231
10
68.099739412646585
20
-78.206915558680166
10
67.88293941264655
20
-78.082405558680179
10
67.662239412646557
20
-77.965215558680114
10
67.424929412646577
20
-77.848025558680192
10
66.839969412646383
20
-77.572145558680319
10
66.611949412646396
20
-77.46912555868029
10
66.381479412646627
20
-77.373415558680207
10
66.133919412646378
20
-77.279665558680222
10
65.52405941264638
20
-77.060435558680211
10
65.287239412646585
20
-76.979375558680232
10
64.965949412646466
20
-76.882695558680325
10
64.652469412646383
20
-76.795295558680294
10
64.410769412646403
20
-76.731815558680196
10
64.288699412646508
20
-76.703005558680246
10
63.970829412646566
20
-76.630255558680247
10
63.726689412646493
20
-76.57849555868026
10
63.59436941264633
20
-76.553595558680314
10
63.272099412646412
20
-76.495975558680271
10
63.025029412646631
20
-76.455935558680252
10
62.886849412646484
20
-76.43689555868022
10
62.704229412646555
20
-76.413455558680212
10
55.238409412646376
20
-75.191775558680192
10
55.114389412646574
20
-75.17224555868026
10
52.95715941264632
20
-74.853885558680204
10
51.175909412646376
20
-74.56189555868022
10
49.386359412646357
20
-74.240605558680244
10
47.606579412646539
20
-73.893435558680238
10
45.810679412646493
20
-73.515025558680236
10
44.020149412646532
20
-73.10877555868025
10
43.479129412646529
20
-72.977915558680237
10
43.74768941264648
20
-72.687875558680304
10
43.883919412646435
20
-72.536505558680204
10
44.782359412646429
20
-71.515995558680316
10
44.915169412646492
20
-71.3617055586802
10
45.787239412646557
20
-70.318735558680245
10
45.917609412646385
20
-70.15906555868014
10
46.762829412646596
20
-69.093635558680262
10
46.914679412646478
20
-68.895395558680335
10
47.106089412646526
20
-68.626835558680241
10
47.606579412646539
20
-67.892465558680186
10
47.743779412646603
20
-67.683475558680257
10
47.903939412646537
20
-67.421755558680303
10
48.350229412646542
20
-66.657595558680214
10
48.472789412646478
20
-66.439825558680212
10
48.614879412646559
20
-66.165415558680252
10
49.005989412646613
20
-65.37341555868025
10
49.113409412646405
20
-65.147345558680314
10
49.232059412646407
20
-64.872935558680211
10
49.567509412646444
20
-64.057015558680206
10
49.659309412646451
20
-63.824105558680202
10
49.761359412646442
20
-63.535525558680206
10
50.039189412646579
20
-62.698615558680189
10
50.113899412646532
20
-62.460335558680171
10
50.194949412646537
20
-62.168345558680258
10
50.414679412646564
20
-61.312875558680275
10
50.473269412646431
20
-61.06970555868017
10
50.534309412646508
20
-60.769905558680222
10
50.694469412646299
20
-59.899295558680237
10
50.735479412646498
20
-59.652715558680143
10
50.776009412646346
20
-59.349005558680261
10
50.867319412646452
20
-58.541875558680232
10
50.976689412646579
20
-57.723515558680205
10
51.0059894126465
20
-57.475465558680199
10
51.019659412646376
20
-57.327035558680208
10
51.095829412646481
20
-56.414435558680225
10
51.112919412646391
20
-56.16492555868021
10
51.118779412646518
20
-56.0223455586803
10
51.150029412646631
20
-55.107795558680337
10
51.15490941264639
20
-54.857795558680351
10
51.153939412646423
20
-54.710825558680227
10
51.148569412646339
20
-54.354865558680245
10
51.163699412646508
20
-54.234255558680289
10
51.191049412646521
20
-53.985725558680215
10
51.208139412646574
20
-53.774295558680265
10
51.254039412646506
20
-53.091685558680197
10
51.266729412646441
20
-52.842165558680207
10
51.271609412646484
20
-52.618045558680251
10
51.276989412646543
20
-51.934945558680283
10
51.275519412646418
20
-51.684945558680297
10
51.267219412646341
20
-51.471075558680255
10
51.233039412646519
20
-50.789435558680225
10
51.21692941264655
20
-50.540415558680252
10
51.195929412646564
20
-50.320195558680325
10
51.12170941264651
20
-49.641975558680187
10
51.090459412646396
20
-49.393925558680252
10
51.057259412646374
20
-49.180055558680209
10
50.943489412646557
20
-48.50623555868026
10
50.898079412646524
20
-48.260625558680204
10
50.853159412646392
20
-48.050175558680266
10
50.700329412646568
20
-47.383675558680238
10
50.640269412646433
20
-47.140995558680316
10
50.581669412646306
20
-46.929085558680157
10
50.521609412646455
20
-46.723515558680191
10
50.446419412646435
20
-46.273805558680223
10
50.401499412646444
20
-46.027715558680171
10
50.369759412646431
20
-45.875375558680247
10
50.170539412646491
20
-44.969615558680189
10
50.112919412646306
20
-44.725955558680184
10
50.0728794126465
20
-44.575075558680268
10
49.828739412646428
20
-43.683475558680271
10
49.758919412646492
20
-43.443245558680275
10
49.714489412646543
20
-43.303595558680286
10
49.42737941264653
20
-42.428105558680258
10
49.345829412646509
20
-42.19177555868022
10
49.290659412646392
20
-42.044315558680196
10
48.960089412646539
20
-41.186405558680264
10
48.866829412646524
20
-40.954475558680201
10
48.807259412646431
20
-40.817755558680204
10
48.43518941264648
20
-39.979375558680204
10
48.330699412646396
20
-39.752325558680255
10
48.26672941264647
20
-39.622935558680155
10
47.854129412646529
20
-38.804575558680199
10
47.737919412646335
20
-38.58337555868026
10
47.662729412646598
20
-38.448125558680175
10
47.209599412646526
20
-37.652225558680215
10
47.082649412646447
20
-37.436895558680234
10
47.004519412646459
20
-37.311405558680235
10
46.512339412646497
20
-36.538945558680354
10
46.374639412646559
20
-36.329965558680186
10
46.288699412646537
20
-36.207405558680179
10
45.758429412646535
20
-35.460335558680214
10
45.610969412646369
20
-35.258675558680252
10
45.520149412646447
20
-35.141485558680188
10
44.95227941264659
20
-34.420295558680323
10
44.794559412646322
20
-34.226445558680325
10
44.695439412646465
20
-34.110725558680173
10
44.091439412646452
20
-33.418345558680258
10
43.924449412646567
20
-33.232305558680224
10
43.820929412646592
20
-33.122935558680169
10
43.181279412646631
20
-32.459845558680271
10
43.005009412646444
20
-32.282595558680214
10
42.89563941264646
20
-32.178595558680314
10
42.221319412646494
20
-31.54627555868025
10
42.036259412646473
20
-31.377815558680169
10
41.919559412646379
20
-31.276735558680215
10
41.211559412646466
20
-30.677125558680274
10
41.018199412646368
20
-30.518925558680294
10
40.895149412646532
20
-30.423225558680187
10
40.154429412646522
20
-29.857795558680351
10
40.099249412646429
20
-29.815805558680282
10
39.336559412646466
20
-29.244025558680278
10
39.040659412646477
20
-29.032595558680185
10
38.254039412646534
20
-28.496955558680241
10
37.947879412646444
20
-28.298225558680201
10
37.138799412646506
20
-27.799685558680238
10
36.82727941264659
20
-27.617555558680209
10
35.996709412646481
20
-27.156135558680248
10
35.674449412646538
20
-26.9867055586802
10
34.823369412646343
20
-26.563365558680161
10
34.495249412646558
20
-26.40906555868014
10
33.626109412646485
20
-26.02478555868025
10
33.292119412646457
20
-25.886115558680203
10
32.40490941264639
20
-25.540895558680319
10
32.128549412646521
20
-25.440315558680169
10
31.891239412646541
20
-25.313365558680161
10
31.690069412646409
20
-25.209845558680257
10
31.466439412646423
20
-25.098515558680248
10
31.238899412646504
20
-24.995005558680177
10
31.006969412646299
20
-24.897835558680157
10
30.797489412646541
20
-24.813845558680185
10
30.564089412646496
20
-24.724495558680246
10
30.327769412646433
20
-24.642465558680229
10
30.0728794126465
20
-24.562875558680304
10
29.856579412646624
20
-24.499395558680277
10
29.615849412646469
20
-24.432505558680191
10
29.37268941264648
20
-24.373415558680236
10
29.106579412646596
20
-24.31824555868026
10
28.884409412646477
20
-24.275765558680149
10
28.638309412646379
20
-24.232305558680167
10
28.390749412646414
20
-24.197145558680262
10
28.12024941264653
20
-24.167365558680203
10
27.893679412646577
20
-24.146365558680145
10
27.85510941264647
20
-24.143435558680295
10
27.631969412646384
20
-24.099985558680288
10
27.419079412646568
20
-24.061405558680207
10
26.59094941264641
20
-23.923225558680201
10
26.368289412646391
20
-23.889535558680208
10
25.5372394126465
20
-23.774785558680236
10
25.322879412646557
20
-23.747935558680169
10
24.488899412646532
20
-23.655645558680263
10
24.274539412646448
20
-23.635135558680176
10
23.43811941264633
20
-23.565315558680169
10
23.214969412646411
20
-23.549685558680267
10
22.377079412646594
20
-23.503305558680267
10
22.157839412646467
20
-23.494025558680249
10
21.3184894126465
20
-23.470585558680241
10
21.100229412646598
20
-23.467655558680249
10
20.260379412646472
20
-23.467165558680207
10
20.026989412646543
20
-23.470585558680241
10
18.695439412646522
20
-23.50867555868021
10
18.3546194126464
20
-23.525765558680192
10
17.027469412646496
20
-23.620485558680215
10
16.752569412646494
20
-23.644905558680165
10
15.924449412646595
20
-23.732795558680309
10
15.713019412646361
20
-23.757695558680325
10
14.887829412646596
20
-23.867555558680209
10
14.680309412646437
20
-23.898325558680185
10
13.859019412646489
20
-24.029665558680193
10
13.648079412646439
20
-24.066295558680295
10
12.830209412646383
20
-24.219615558680161
10
12.627079412646509
20
-24.260135558680176
10
11.814089412646496
20
-24.434455558680241
10
11.604129412646529
20
-24.482305558680224
10
10.795539412646491
20
-24.678595558680314
10
10.589489412646458
20
-24.731815558680168
10
9.7862594126463875
20
-24.949595558680215
10
9.5860694126463386
20
-25.00671555868017
10
8.7882194126463276
20
-25.24548555868023
10
8.5499294126465486
20
-25.320685558680225
10
8.3136094126464855
20
-25.403695558680255
10
8.0806994126464815
20
-25.493535558680236
10
7.7481794126464365
20
-25.63709555868023
10
7.2496394126466157
20
-25.865605558680258
10
7.0137994126464775
20
-25.978395558680276
10
6.5240594126464657
20
-26.222545558680252
10
6.2969994126464712
20
-26.340215558680171
10
5.8160494126464357
20
-26.599495558680246
10
5.5894894126464578
20
-26.726445558680325
10
5.1178094126464657
20
-27.000865558680189
10
4.8970994126464973
20
-27.134165558680223
10
4.4351894126464231
20
-27.423225558680215
10
4.2178994126464886
20
-27.563845558680242
10
3.7657494126464996
20
-27.867555558680266
10
3.5504194126463062
20
-28.017955558680256
10
3.1085294126465612
20
-28.336305558680266
10
2.9034494126464949
20
-28.488655558680165
10
2.4722994126464926
20
-28.820685558680239
10
2.2725894126465107
20
-28.979865558680231
10
1.8521794126465352
20
-29.325565558680182
10
1.6505194126463607
20
-29.496955558680256
10
1.2418294126464957
20
-29.856325558680297
10
1.0533494126464404
20
-30.027225558680257
10
0.65588941264650202
20
-30.39978555868025
10
0.47375941264647281
20
-30.576055558680224
10
0.088019412646360706
20
-30.961305558680223
10
-0.09850058735352718
20
-31.154185558680183
10
-0.47155058735356192
20
-31.552615558680159
10
-0.64147058735343876
20
-31.740115558680131
10
-1.0018205873535635
20
-32.150275558680264
10
-1.1717505873535572
20
-32.349985558680245
10
-1.5194005873536298
20
-32.772835558680171
10
-1.6795605873534214
20
-32.974005558680233
10
-1.8582705873535588
20
-33.206425558680266
10
-2.0623705873533993
20
-33.438365558680161
10
-2.2152005873535074
20
-33.617075558680227
10
-2.5828805873535998
20
-34.060915558680236
10
-2.725940587353648
20
-34.238165558680151
10
-3.0804405873536211
20
-34.69177555868022
10
-3.2210605873535769
20
-34.877815558680112
10
-3.5618805873536985
20
-35.341195558680312
10
-3.6966505873535027
20
-35.530155558680221
10
-4.0242805873536724
20
-36.003795558680309
10
-4.0638405873535532
20
-36.06287555868029
10
-4.2957705873534735
20
-35.895395558680292
10
-4.5008505873535398
20
-35.752325558680269
10
-4.7098305873535651
20
-35.615605558680272
10
-4.9232105873534238
20
-35.485235558680159
10
-5.1409805873535674
20
-35.361705558680256
10
-5.4217505873535288
20
-35.215215558680129
10
-5.7332705873534451
20
-35.060435558680183
10
-5.9588505873534814
20
-34.953005558680275
10
-6.1873705873534846
20
-34.852425558680267
10
-6.4193005873535469
20
-34.75867555868021
10
-6.654170587353434
20
-34.672735558680188
10
-6.9300505873535201
20
-34.581915558680194
10
-7.260120587353498
20
-34.479865558680203
10
-7.4998705873534277
20
-34.409555558680296
10
-7.7420605873534498
20
-34.347055558680282
10
-7.9857105873534806
20
-34.292365558680231
10
-8.2313205873533946
20
-34.245005558680219
10
-8.5169605873534238
20
-34.199595558680258
10
-8.8597305873535959
20
-34.15173555868023
10
-9.1077805873536022
20
-34.120975558680229
10
-9.3568005873535753
20
-34.098515558680234
10
-9.606320587353423
20
-34.083375558680231
10
-9.8558305873535801
20
-34.076055558680167
10
-10.157100587353511
20
-34.077525558680222
10
-10.504260587353542
20
-34.085825558680227
10
-10.753780587353532
20
-34.095585558680241
10
-11.003290587353547
20
-34.113165558680194
10
-11.251820587353478
20
-34.138555558680181
10
-11.499870587353485
20
-34.171755558680275
10
-11.809440587353492
20
-34.224495558680275
10
-12.155630587353699
20
-34.290415558680252
10
-12.400260587353387
20
-34.341195558680297
10
-12.643420587353376
20
-34.399295558680265
10
-12.884640587353573
20
-34.465215558680171
10
-13.123410587353419
20
-34.538455558680212
10
-13.432490587353527
20
-34.645395558680292
10
-13.769400587353573
20
-34.769905558680207
10
-14.002310587353577
20
-34.860235558680159
10
-14.232290587353589
20
-34.957895558680292
10
-14.459340587353608
20
-35.062385558680234
10
-14.658560587353548
20
-35.161505558680233
10
-15.066280587353589
20
-35.371465558680129
10
-15.286980587353582
20
-35.489145558680306
10
-15.503290587353575
20
-35.614145558680335
10
-15.699580587353665
20
-35.735235558680216
10
-16.08385058735351
20
-35.979865558680189
10
-16.292840587353652
20
-36.117555558680223
10
-16.497430587353534
20
-36.261115558680217
10
-16.684930587353506
20
-36.402715558680114
10
-17.04382058735348
20
-36.680545558680251
10
-17.239130587353628
20
-36.836305558680209
10
-17.42956058735345
20
-36.998415558680193
10
-17.592640587353543
20
-37.145875558680217
10
-17.924190587353621
20
-37.453985558680216
10
-18.104850587353525
20
-37.627325558680269
10
-18.279660587353419
20
-37.805545558680222
10
-18.425160587353417
20
-37.963265558680206
10
-18.727900587353474
20
-38.299685558680281
10
-18.891960587353509
20
-38.488165558680194
10
-19.050650587353601
20
-38.681525558680292
10
-19.126340587353639
20
-38.780155558680249
10
-19.184930587353506
20
-38.701545558680337
10
-19.33727058735343
20
-38.503305558680267
10
-19.495480587353597
20
-38.309945558680312
10
-19.660030587353532
20
-38.121465558680114
10
-19.829950587353551
20
-37.938365558680189
10
-20.005730587353696
20
-37.760625558680232
10
-20.186880587353642
20
-37.588265558680192
10
-20.373410587353504
20
-37.421755558680303
10
-20.529660587353504
20
-37.290415558680223
10
-20.535510587353514
20
-37.285525558680206
10
-20.652210587353466
20
-37.179575558680185
10
-20.840200587353479
20
-37.014045558680309
10
-21.03259058735361
20
-36.854865558680245
10
-21.220570587353507
20
-36.708865558680159
10
-21.39635058735351
20
-36.576545558680351
10
-21.598500587353442
20
-36.429575558680227
10
-21.805050587353492
20
-36.288455558680184
10
-22.031120587353428
20
-36.144905558680165
10
-22.216180587353591
20
-36.031625558680247
10
-22.4315105873535
20
-35.904665558680193
10
-22.650750587353627
20
-35.78406555868014
10
-22.851430587353576
20
-35.681525558680249
10
-23.044300587353632
20
-35.586305558680209
10
-23.270380587353543
20
-35.478885558680204
10
-23.499380587353613
20
-35.378795558680309
10
-23.728870587353441
20
-35.286995558680232
10
-23.928090587353523
20
-35.210825558680199
10
-24.162960587353552
20
-35.12537555868029
10
-24.400260587353415
20
-35.047245558680302
10
-24.633660587353461
20
-34.978395558680262
10
-24.838250587353627
20
-34.921275558680236
10
-25.079950587353466
20
-34.857795558680351
10
-25.323600587353496
20
-34.801645558680292
10
-25.531120587353371
20
-34.760625558680189
10
-25.739130587353571
20
-34.722055558680296
10
-25.98522058735341
20
-34.680055558680252
10
-26.233270587353559
20
-34.646365558680117
10
-26.439810587353492
20
-34.623905558680264
10
-26.6502605873535
20
-34.603885558680219
10
-26.899770587353373
20
-34.583865558680174
10
-27.149280587353672
20
-34.572145558680276
10
-27.389520587353502
20
-34.567755558680204
10
-27.600460587353552
20
-34.567265558680234
10
-27.850460587353609
20
-34.570685558680196
10
-28.099970587353482
20
-34.581915558680194
10
-28.320180587353576
20
-34.598025558680234
10
-28.531120587353485
20
-34.6165855586802
10
-28.779660587353533
20
-34.642465558680229
10
-29.027210587353522
20
-34.676155558680222
10
-29.249870587353399
20
-34.712775558680278
10
-29.4583705873535
20
-34.750375558680275
10
-29.703480587353539
20
-34.798715558680229
10
-29.947140587353545
20
-34.854375558680175
10
-30.159050587353562
20
-34.909555558680267
10
-30.365100587353595
20
-34.966195558680297
10
-30.604850587353525
20
-35.036015558680234
10
-30.842640587353571
20
-35.113655558680179
10
-31.067250587353499
20
-35.194705558680184
10
-31.267940587353564
20
-35.270395558680292
10
-31.500850587353568
20
-35.362185558680252
10
-31.73034058735368
20
-35.461305558680252
10
-31.951040587353532
20
-35.564825558680226
10
-32.146350587353538
20
-35.660045558680267
10
-32.369010587353415
20
-35.772835558680214
10
-32.588250587353542
20
-35.8929555586802
10
-32.816280587353504
20
-36.027225558680271
10
-33.003780587353617
20
-36.141975558680173
10
-33.215200587353593
20
-36.275765558680177
10
-33.4217505873535
20
-36.416385558680204
10
-33.625360587353441
20
-36.563845558680228
10
-33.804560587353478
20
-36.698125558680204
10
-34.002310587353577
20
-36.85095555868017
10
-34.194690587353591
20
-37.010135558680162
10
-34.430530587353587
20
-37.218635558680262
10
-34.631220587353369
20
-37.403695558680283
10
-34.812370587353456
20
-37.576055558680181
10
-34.987660587353417
20
-37.754275558680206
10
-35.158070587353478
20
-37.937385558680248
10
-35.287960587353524
20
-38.085825558680213
10
-35.463740587353527
20
-38.291385558680204
10
-35.623410587353419
20
-38.483775558680264
10
-35.776730587353569
20
-38.681525558680292
10
-35.923700587353551
20
-38.883675558680224
10
-36.026730587353626
20
-39.033085558680227
10
-36.176140587353558
20
-39.255745558680246
10
-36.311880587353613
20
-39.465215558680171
10
-36.441280587353617
20
-39.679085558680214
10
-36.564320587353478
20
-39.896855558680286
10
-36.643910587353474
20
-40.048225558680173
10
-36.76647058735341
20
-40.286015558680219
10
-36.877800587353562
20
-40.510135558680176
10
-36.981800587353604
20
-40.737185558680267
10
-37.078480587353511
20
-40.967655558680249
10
-37.138540587353646
20
-41.121465558680157
10
-37.233270587353502
20
-41.371955558680256
10
-37.317740587353683
20
-41.606815558680168
10
-37.395380587353628
20
-41.844615558680189
10
-37.465200587353564
20
-42.084845558680257
10
-37.51257058735348
20
-42.264535558680194
10
-37.577510587353515
20
-42.524785558680236
10
-37.634150587353474
20
-42.768435558680267
10
-37.682980587353541
20
-43.01355555868021
10
-37.724480587353639
20
-43.260135558680162
10
-37.724970587353397
20
-43.262575558680254
10
-37.759150587353503
20
-43.363165558680166
10
-37.852410587353518
20
-43.672735558680174
10
-38.085810587353421
20
-44.509645558680262
10
-38.149280587353616
20
-44.751345558680242
10
-38.218620587353485
20
-45.061895558680263
10
-38.391960587353537
20
-45.912965558680199
10
-38.438350587353511
20
-46.158575558680255
10
-38.486690587353678
20
-46.480845558680244
10
-38.55309058735358
20
-46.993045558680251
10
-38.767940587353564
20
-47.963265558680206
10
-38.814320587353563
20
-48.186895558680263
10
-39.068720587353454
20
-49.514045558680309
10
-39.108270587353502
20
-49.737675558680294
10
-39.324580587353637
20
-51.06970555868017
10
-39.358270587353559
20
-51.297245558680302
10
-39.53600058735347
20
-52.633675558680224
10
-39.562370587353399
20
-52.855845558680272
10
-39.702510587353572
20
-54.195195558680354
10
-39.723010587353542
20
-54.421275558680264
10
-39.825070587353366
20
-55.764045558680309
10
-39.839230587353569
20
-55.993045558680237
10
-39.902700587353479
20
-57.336795558680222
10
-39.910030587353589
20
-57.560435558680183
10
-39.935910587353476
20
-58.905645558680249
10
-39.936880587353585
20
-59.135135558680219
10
-39.92419058735365
20
-60.48084555868023
10
-39.919300587353632
20
-60.703985558680174
10
-39.869010587353415
20
-62.048715558680243
10
-39.856800587353547
20
-62.278205558680284
10
-39.76794058735365
20
-63.621465558680157
10
-39.749870587353371
20
-63.847055558680239
10
-39.622920587353434
20
-65.187875558680304
10
-39.598500587353556
20
-65.410525558680206
10
-39.433950587353479
20
-66.748415558680207
10
-39.402210587353466
20
-66.97888555868019
10
-39.198600587353525
20
-68.312875558680304
10
-39.161980587353611
20
-68.534065558680126
10
-38.92077058735353
20
-69.863655558680193
10
-38.876820587353507
20
-70.086795558680279
10
-38.597530587353504
20
-71.41052555868022
10
-38.542350587353553
20
-71.654665558680222
10
-38.478870587353526
20
-71.896365558680131
10
-38.408560587353548
20
-72.136115558680203
10
-38.352900587353531
20
-72.307985558680201
10
-38.118520587353402
20
-73.005255558680204
10
-38.024280587353587
20
-73.269905558680222
10
-37.765980587353596
20
-73.957405558680165
10
-37.659540587353604
20
-74.226935558680225
10
-37.377310587353492
20
-74.902715558680129
10
-37.264030587353574
20
-75.16052555868022
10
-36.9583705873535
20
-75.825565558680168
10
-36.833850587353538
20
-76.083865558680159
10
-36.505240587353569
20
-76.736215558680243
10
-36.371450587353564
20
-76.990605558680301
10
-36.019890587353558
20
-77.630255558680261
10
-35.881710587353552
20
-77.871465558680129
10
-35.508170587353476
20
-78.49841555868025
10
-35.35729058735356
20
-78.742075558680185
10
-34.961780587353672
20
-79.354865558680245
10
-34.802600587353538
20
-79.591685558680183
10
-34.385610587353455
20
-80.189825558680212
10
-34.22106058735352
20
-80.417365558680203
10
-33.78307058735345
20
-81.000865558680175
10
-33.609730587353539
20
-81.223515558680219
10
-33.151240587353641
20
-81.791385558680219
10
-32.962760587353443
20
-82.015995558680288
10
-32.483270587353559
20
-82.567265558680205
10
-32.298210587353537
20
-82.773325558680213
10
-31.79919058735365
20
-83.308475558680257
10
-31.599480587353668
20
-83.514535558680194
10
-31.080920587353376
20
-84.032115558680189
10
-30.874870587353485
20
-84.23084555868023
10
-30.337270587353373
20
-84.73035555868023
10
-30.125360587353498
20
-84.920295558680294
10
-29.727410587353518
20
-85.264535558680237
10
-29.184930587353506
20
-85.786015558680191
10
-29.016470587353496
20
-85.943245558680275
10
-28.304070587353465
20
-86.589725558680257
10
-28.126820587353478
20
-86.745975558680257
10
-27.396350587353595
20
-87.370485558680215
10
-27.218130587353642
20
-87.518435558680281
10
-26.470570587353563
20
-88.120975558680215
10
-26.288930587353576
20
-88.263065558680154
10
-25.525260587353387
20
-88.843145558680234
10
-25.339710587353466
20
-88.979865558680231
10
-24.559930587353591
20
-89.537485558680245
10
-24.366570587353493
20
-89.67127555868025
10
-23.571160587353575
20
-90.205455558680256
10
-23.37878058735356
20
-90.330935558680281
10
-22.568230587353639
20
-90.84216555868025
10
-22.370480587353541
20
-90.963265558680177
10
-21.545770587353559
20
-91.450565558680168
10
-21.344110587353384
20
-91.56531555868014
10
-20.505240587353626
20
-92.028695558680269
10
-20.304070587353493
20
-92.136115558680203
10
-19.452020587353474
20
-92.575565558680211
10
-19.243520587353373
20
-92.679575558680227
10
-18.37878058735356
20
-93.09412555868029
10
-18.167350587353468
20
-93.191775558680234
10
-17.289910587353461
20
-93.58142555868028
10
-17.075550587353518
20
-93.672735558680174
10
-16.186390587353543
20
-94.036995558680232
10
-15.971550587353534
20
-94.121465558680129
10
-15.071160587353489
20
-94.4603355586802
10
-14.850940587353563
20
-94.539435558680225
10
-13.93932058735345
20
-94.852425558680267
10
-13.824090587353624
20
-94.890995558680302
10
-12.957880587353543
20
-95.173715558680243
10
-12.775260587353472
20
-95.231325558680311
10
-11.903190587353549
20
-95.493045558680265
10
-11.723010587353428
20
-95.544805558680181
10
-10.845090587353639
20
-95.786015558680191
10
-10.664910587353518
20
-95.832895558680349
10
-9.7816105873533843
20
-96.053595558680271
10
-9.5931305873536132
20
-96.098515558680191
10
-8.7049505873534372
20
-96.297735558680202
10
-8.5247705873534585
20
-96.33582555868017
10
-7.6321905873535911
20
-96.514535558680237
10
-7.442740587353569
20
-96.55017555868028
10
-6.5457705873535588
20
-96.707405558680222
10
-6.3607105873535374
20
-96.737675558680252
10
-5.4598305873535935
20
-96.873905558680207
10
-5.2117805873535872
20
-96.907115558680204
10
-4.9632505873535138
20
-96.932985558680258
10
-4.7918605873535114
20
-96.94617555868021
10
-2.8582705873535019
20
-97.07410555868023
10
-2.7474305873535343
20
-97.080935558680252
10
-0.81286058735344113
20
-97.182015558680206
10
-0.70153058735357376
20
-97.186895558680249
10
1.2349894126464278
20
-97.261115558680231
10
1.3458294126465375
20
-97.264535558680194
10
3.0113594126464704
20
-97.305055558680209
10
9.7462194126464397
20
-97.925665558680208
10
16.745249412646501
20
-98.611705558680214
10
17.054329412646467
20
-98.635625558680218
10
20.004519412646431
20
-98.809945558680283
10
20.140269412646461
20
-98.817265558680205
10
23.092409412646475
20
-98.941295558680267
10
23.231579412646539
20
-98.945685558680196
10
26.185189412646537
20
-99.018435558680267
10
26.320929412646592
20
-99.020875558680217
10
29.275029412646631
20
-99.043345558680258
10
29.414189412646579
20
-99.042855558680216
10
32.368289412646476
20
-99.014045558680337
10
32.504519412646431
20
-99.011605558680245
10
35.457649412646504
20
-98.932505558680219
10
35.594859412646542
20
-98.927615558680131
10
38.546999412646414
20
-98.797735558680202
10
38.684699412646495
20
-98.79041555868028
10
41.612429412646605
20
-98.611215558680243
10
51.077769412646461
20
-98.057505558680162
10
53.614879412646559
20
-97.936895558680277
10
56.273569412646367
20
-97.829475558680201
10
58.813609412646457
20
-97.745975558680271
10
61.316539412646449
20
-97.682015558680177
10
61.760869412646429
20
-97.6888455586802
10
62.010869412646343
20
-97.6888455586802
10
62.327769412646461
20
-97.677615558680131
10
62.861459412646354
20
-97.647835558680214
10
63.110969412646369
20
-97.629765558680219
10
63.382449412646338
20
-97.601445558680311
10
63.911749412646373
20
-97.536995558680246
10
64.159799412646521
20
-97.50281555868014
10
64.428839412646539
20
-97.456915558680208
10
64.951299412646506
20
-97.358285558680251
10
65.196419412646378
20
-97.307985558680201
10
65.459599412646412
20
-97.245005558680191
10
65.974249412646486
20
-97.112675558680266
10
66.215459412646425
20
-97.046755558680289
10
66.474249412646458
20
-96.966685558680155
10
66.979129412646472
20
-96.801155558680207
10
67.21545941264651
20
-96.719615558680161
10
67.477179412646535
20
-96.619515558680149
10
67.970339412646581
20
-96.420785558680251
0
ARC
5
101
100
AcDbEntity
8
0
100
AcDbCircle
10
14.021316476742101
20
-57.781559290347317
30
0
40
13.153851457533746
210
0
220
0
230
1
100
AcDbArc
50
194.01311587116874
51
214.87676471822579
0
LINE
5
102
100
AcDbEntity
8
0
100
AcDbLine
10
3.8531594126465052
20
-66.277225558680257
30
0
11
4.0479794126464697
21
-66.654185558680155
31
0
0
LINE
5
103
100
AcDbEntity
8
0
100
AcDbLine
10
3.2301094126463958
20
-65.303105558680286
30
0
11
3.8531594126465052
21
-66.277225558680257
31
0
0
ARC
5
104
100
AcDbEntity
8
0
100
AcDbCircle
10
19.061599291019178
20
-51.62497129951916
30
0
40
19.875090577673554
210
0
220
0
230
1
100
AcDbArc
50
137.85251962422799
51
151.13445551770383
0
LINE
5
105
100
AcDbEntity
8
0
100
AcDbLine
10
-0.57751058735348704
20
-52.767465558680229
30
0
11
-0.17565058735357297
21
-56.408575558680241
31
0
0
ARC
5
106
100
AcDbEntity
8
0
100
AcDbCircle
10
33.762401016253278
20
-48.232087549289062
30
0
40
34.909114895923658
210
0
220
0
230
1
100
AcDbArc
50
193.54577573313119
51
201.39483929690363
0
LINE
5
107
100
AcDbEntity
8
0
100
AcDbLine
10
18.923959412646383
20
-31.505255558680219
30
0
11
17.596809412646479
21
-31.599985558680288
31
0
0
ARC
5
108
100
AcDbEntity
8
0
100
AcDbCircle
10
20.5068005218601
20
-62.938524833048248
30
0
40
31.473355272465078
210
0
220
0
230
1
100
AcDbArc
50
95.305080405924429
51
107.42540159582252
0
ARC
5
109
100
AcDbEntity
8
0
100
AcDbCircle
10
-466.32686523347047
20
318.88327845382537
30
0
40
610.98289370543034
210
-0
220
0
230
-1
100
AcDbArc
50
322.62924034668646
51
323.62463801962235
0
ARC
5
110
100
AcDbEntity
8
0
100
AcDbCircle
10
-26.340628023437915
20
29.432802878120299
30
0
40
116.0859781697289
210
-0
220
0
230
-1
100
AcDbArc
50
273.41004210871864
51
278.22244006576352
0
ARC
5
111
100
AcDbEntity
8
0
100
AcDbCircle
10
-11.455122854303852
20
-45.019826729396613
30
0
40
24.713185504790061
210
-0
220
0
230
-1
100
AcDbArc
50
283.8070233204287
51
292.75536428995269
0
LINE
5
112
100
AcDbEntity
8
0
100
AcDbLine
10
3.4781594126464199
20
-89.314335558680256
30
0
11
10.513799412646563
21
-89.962285558680293
31
0
0
LINE
5
113
100
AcDbEntity
8
0
100
AcDbLine
10
-7.6512405873535272
20
-48.243045558680251
30
0
11
-7.6043605873535114
21
-47.628305558680282
31
0
0
LINE
5
114
100
AcDbEntity
8
0
100
AcDbLine
10
10.513799412646563
20
-89.962285558680293
30
0
11
17.526009412646317
21
-90.649785558680236
31
0
0
ARC
5
115
100
AcDbEntity
8
0
100
AcDbCircle
10
-11.17008301308573
20
-63.564985892667991
30
0
40
20.55529904144354
210
0
220
0
230
1
100
AcDbArc
50
197.53823845383823
51
230.17245267389313
0
ARC
5
116
100
AcDbEntity
8
0
100
AcDbCircle
10
61.696952264606182
20
-81.550024989859722
30
0
40
8.1419030112891768
210
-0
220
0
230
1
100
AcDbArc
50
271.30210520255753
51
297.43468776339324
0
ARC
5
117
100
AcDbEntity
8
0
100
AcDbCircle
10
1.0526109809522666
20
-50.763210983267513
30
0
40
38.568679953497124
210
0
220
0
230
1
100
AcDbArc
50
252.60861980843387
51
262.07735732153503
0
ARC
5
118
100
AcDbEntity
8
0
100
AcDbCircle
10
-71.690707864428873
20
44.877444944489042
30
0
40
129.18844401262359
210
-0
220
0
230
-1
100
AcDbArc
50
278.88122452271813
51
290.99649260900418
0
LINE
5
119
100
AcDbEntity
8
0
100
AcDbLine
10
1.6558894126465884
20
-42.030155558680207
30
0
11
0.029429412646493347
21
-45.801155558680193
31
0
0
LINE
5
120
100
AcDbEntity
8
0
100
AcDbLine
10
-25.822620587353526
20
-43.299205558680214
30
0
11
-25.866570587353408
21
-43.250865558680189
31
0
0
ARC
5
121
100
AcDbEntity
8
0
100
AcDbCircle
10
17.857363093574037
20
-48.352801266070173
30
0
40
16.864277714642274
210
0
220
0
230
1
100
AcDbArc
50
113.68936923637558
51
143.35794927857134
0
ARC
5
122
100
AcDbEntity
8
0
100
AcDbCircle
10
-11.637892696185332
20
-49.526977281978617
30
0
40
20.715959157388127
210
-0
220
0
230
-1
100
AcDbArc
50
298.05078744761448
51
331.72498144646545
0
ARC
5
123
100
AcDbEntity
8
0
100
AcDbCircle
10
-20.873978686346057
20
-55.571490438036278
30
0
40
4.9523103604170942
210
-0
220
0
230
1
100
AcDbArc
50
294.42475395649933
51
328.19714232997813
0
ARC
5
124
100
AcDbEntity
8
0
100
AcDbCircle
10
-0.89741917898194856
20
-55.617998660365728
30
0
40
33.355486288852056
210
0
220
0
230
1
100
AcDbArc
50
225.35838257835655
51
253.3125683811848
0
LINE
5
125
100
AcDbEntity
8
0
100
AcDbLine
10
-18.871450587353564
20
-52.083865558680174
30
0
11
-18.926630587353657
21
-52.101935558680239
31
0
0
ARC
5
126
100
AcDbEntity
8
0
100
AcDbCircle
10
10.796604995123289
20
-50.248840938440509
30
0
40
11.649634125637519
210
0
220
0
230
1
100
AcDbArc
50
157.55554777061352
51
192.48580581381222
0
ARC
5
127
100
AcDbEntity
8
0
100
AcDbCircle
10
29.154698511003261
20
80.939023447074447
30
0
40
171.98239964065976
210
0
220
0
230
1
100
AcDbArc
50
266.12295477980996
51
273.99785100578094
0
LINE
5
128
100
AcDbEntity
8
0
100
AcDbLine
10
22.671262778746495
20
-79.739210797134177
30
0
11
29.751627253192652
21
-82.216732940352728
31
0
0
ARC
5
129
100
AcDbEntity
8
0
100
AcDbCircle
10
-18.986579841644687
20
-50.291870789258617
30
0
40
12.428451235987302
210
0
220
0
230
1
100
AcDbArc
50
148.45181995503015
51
171.4241895805774
0
ARC
5
130
100
AcDbEntity
8
0
100
AcDbCircle
10
18.972177300285011
20
-51.786231376938261
30
0
40
0.31897277850660422
210
0
220
-0
230
-1
100
AcDbArc
50
261.7905690916819
51
325.8662390864618
0
ARC
5
131
100
AcDbEntity
8
0
100
AcDbCircle
10
22.4866064065559
20
-78.055082571837985
30
0
40
1.363742835787773
210
0
220
0
230
1
100
AcDbArc
50
164.72115200297725
51
225.27566121904766
0
ARC
5
132
100
AcDbEntity
8
0
100
AcDbCircle
10
-27.519770640042793
20
-44.900811012531889
30
0
40
2.3356777206836732
210
0
220
-0
230
1
100
AcDbArc
50
44.943546320713473
51
129.55553619536502
0
ARC
5
133
100
AcDbEntity
8
0
100
AcDbCircle
10
-19.473861199888077
20
-57.40017954251649
30
0
40
2.7951860189841993
210
0
220
0
230
1
100
AcDbArc
50
204.0169366814892
51
239.65323744532432
0
ARC
5
134
100
AcDbEntity
8
0
100
AcDbCircle
10
-19.52125640931925
20
-57.374579770036007
30
0
40
2.7938513438164954
210
0
220
0
230
1
100
AcDbArc
50
240.75734613210508
51
284.40518301470058
0
LINE
5
135
100
AcDbEntity
8
0
100
AcDbLine
10
-16.374707268409189
20
-57.712922323576649
30
0
11
-13.32257602492194
21
-53.150865912867424
31
0
0
LINE
5
136
100
AcDbEntity
8
0
100
AcDbLine
10
43.564127098674788
20
-85.833652285154528
30
0
11
39.744269412646389
21
-86.055055558680209
31
0
0
ARC
5
137
100
AcDbEntity
8
0
100
AcDbCircle
10
64.900172450037402
20
-87.513433221160923
30
0
40
1.3766275473941867
210
-0
220
0
230
1
100
AcDbArc
50
-66.539549471648073
51
37.500806405659041
0
ARC
5
138
100
AcDbEntity
8
0
100
AcDbCircle
10
-16.376229405340581
20
-46.699597554716092
30
0
40
8.8208945757559647
210
-0
220
0
230
1
100
AcDbArc
50
-6.0435876467959115
51
25.935599733125866
0
ARC
5
139
100
AcDbEntity
8
0
100
AcDbCircle
10
60.835690633615798
20
-91.06331166012076
30
0
40
6.7708710463212585
210
0
220
-0
230
1
100
AcDbArc
50
40.395503080514231
51
84.044413377660817
0
ARC
5
140
100
AcDbEntity
8
0
100
AcDbCircle
10
-45.965722750829428
20
4.9265369354658075
30
0
40
83.239989139785123
210
-0
220
0
230
-1
100
AcDbArc
50
284.30314989209455
51
284.71140948712605
0
LINE
5
141
100
AcDbEntity
8
0
100
AcDbLine
10
53.946419412646378
20
-83.086795558680251
30
0
11
51.745739412646543
21
-82.762095558680215
31
0
0
ARC
5
142
100
AcDbEntity
8
0
100
AcDbCircle
10
-10.087940664702586
20
-44.212108701269202
30
0
40
2.1404483765093376
210
0
220
-0
230
1
100
AcDbArc
50
39.810501165839554
51
115.10126978972191
0
LINE
5
143
100
AcDbEntity
8
0
100
AcDbLine
10
9.7384094126464049
20
-85.459845558680328
30
0
11
-3.2996705873534893
21
-84.844615558680161
31
0
0
LINE
5
144
100
AcDbEntity
8
0
100
AcDbLine
10
61.269659412646433
20
-89.680545558680222
30
0
11
61.881969412646356
21
-89.689825558680241
31
0
0
ARC
5
145
100
AcDbEntity
8
0
100
AcDbCircle
10
-8.9040517936614094
20
-46.831682041201219
30
0
40
5.0150095145517586
210
0
220
0
230
1
100
AcDbArc
50
114.65349781406988
51
156.26824730111963
0
ARC
5
146
100
AcDbEntity
8
0
100
AcDbCircle
10
22.173490451744442
20
-56.455275198045669
30
0
40
20.797882655999381
210
0
220
0
230
1
100
AcDbArc
50
209.36570211576276
51
217.1764122243454
0
ARC
5
147
100
AcDbEntity
8
0
100
AcDbCircle
10
-27.531602031276297
20
-44.903524288497714
30
0
40
2.3302604010663535
210
0
220
0
230
1
100
AcDbArc
50
129.28875906677985
51
151.42986361247023
0
ARC
5
148
100
AcDbEntity
8
0
100
AcDbCircle
10
73.854120768166766
20
58.021964067316098
30
0
40
147.00993868663124
210
0
220
0
230
1
100
AcDbArc
50
252.54259629035613
51
258.10958732129541
0
LINE
5
149
100
AcDbEntity
8
0
100
AcDbLine
10
41.145149412646447
20
-90.62488555868029
30
0
11
50.634409412646448
21
-90.069705558680226
31
0
0
LINE
5
150
100
AcDbEntity
8
0
100
AcDbLine
10
-25.60534058735362
20
-43.47400555868024
30
0
11
-25.79333058735358
21
-43.319705558680184
31
0
0
ARC
5
151
100
AcDbEntity
8
0
100
AcDbCircle
10
-1.2721468142071046
20
-51.077470104500762
30
0
40
34.075234797091575
210
-0
220
0
230
-1
100
AcDbArc
50
277.71053129572169
51
312.10181964535724
0
LINE
5
152
100
AcDbEntity
8
0
100
AcDbLine
10
-25.79333058735358
20
-43.319705558680184
30
0
11
-25.822620587353526
21
-43.299205558680214
31
0
0
LINE
5
153
100
AcDbEntity
8
0
100
AcDbLine
10
-23.473690540993815
20
-55.291224323786324
30
0
11
-22.027054509271675
21
-58.537838896472479
31
0
0
ARC
5
154
100
AcDbEntity
8
0
100
AcDbCircle
10
-69.139068291576393
20
-450.2600625020649
30
0
40
360.66537903606502
210
0
220
0
230
-1
100
AcDbArc
50
87.059034129043241
51
88.749756074032277
0
LINE
5
155
100
AcDbEntity
8
0
100
AcDbLine
10
-16.665176461044979
20
-58.181349003973381
30
0
11
-16.374707268409189
21
-57.712922323576649
31
0
0
LINE
5
156
100
AcDbEntity
8
0
100
AcDbLine
10
5.6021794126465352
20
-69.022835558680171
30
0
11
5.5572594126464026
21
-69.018925558680309
31
0
0
ARC
5
157
100
AcDbEntity
8
0
100
AcDbCircle
10
-26.797722489734213
20
58.19488063506256
30
0
40
144.82975236161258
210
0
220
-0
230
-1
100
AcDbArc
50
264.87139924044936
51
272.91373739199827
0
ARC
5
158
100
AcDbEntity
8
0
100
AcDbCircle
10
5.9242551602507376
20
50.355217931021485
30
0
40
139.6909716353176
210
0
220
0
230
1
100
AcDbArc
50
265.81765097011578
51
268.99665580164242
0
ARC
5
159
100
AcDbEntity
8
0
100
AcDbCircle
10
26.390668508560395
20
-51.39486108449816
30
0
40
0.35688785405095114
210
0
220
0
230
-1
100
AcDbArc
50
45.790521928986578
51
97.337245253150712
0
ARC
5
160
100
AcDbEntity
8
0
100
AcDbCircle
10
25.219973073715778
20
-56.949866071007733
30
0
40
3.8233812406453822
210
0
220
0
230
1
100
AcDbArc
50
266.24185185713895
51
292.81912654850947
0
ARC
5
161
100
AcDbEntity
8
0
100
AcDbCircle
10
-25.509482526423334
20
-49.553906091998059
30
0
40
10.309295175614198
210
0
220
0
230
-1
100
AcDbArc
50
130.23317974428502
51
154.03980526298088
0
ARC
5
162
100
AcDbEntity
8
0
100
AcDbCircle
10
-17.708284024656678
20
-49.681516643184409
30
0
40
11.848211741456554
210
0
220
0
230
-1
100
AcDbArc
50
47.653497598467254
51
89.076006519422819
0
ARC
5
163
100
AcDbEntity
8
0
100
AcDbCircle
10
-22.291441152442424
20
-53.570470986686743
30
0
40
6.0892219916784205
210
-0
220
0
230
-1
100
AcDbArc
50
-27.378150655719121
51
66.995032196342223
0
ARC
5
164
100
AcDbEntity
8
0
100
AcDbCircle
10
-24.062104371238007
20
-51.926645721819476
30
0
40
2.3582421962398441
210
0
220
0
230
-1
100
AcDbArc
50
171.02387205757344
51
248.38326417265893
0
ARC
5
165
100
AcDbEntity
8
0
100
AcDbCircle
10
26.036706556453595
20
-55.404965746812849
30
0
40
5.4652950300368772
210
0
220
0
230
1
100
AcDbArc
50
181.32796535100508
51
258.73812458203429
0
ARC
5
166
100
AcDbEntity
8
0
100
AcDbCircle
10
-22.010539400701106
20
-52.949193620863468
30
0
40
16.566459262978956
210
-0
220
0
230
-1
100
AcDbArc
50
-1.5738061948230604
51
8.0073433015131688
0
ARC
5
167
100
AcDbEntity
8
0
100
AcDbCircle
10
-17.923756814771252
20
-59.77883472052703
30
0
40
45.393079313700269
210
-0
220
0
230
-1
100
AcDbArc
50
-9.6131522854082778
51
10.972203154908025
0
ARC
5
168
100
AcDbEntity
8
0
100
AcDbCircle
10
84.10993760825761
20
-122.61437490293062
30
0
40
124.81874483848399
210
0
220
0
230
1
100
AcDbArc
50
141.44160741363206
51
145.59330318294377
0
LINE
5
169
100
AcDbEntity
8
0
100
AcDbLine
10
34.778553120120542
20
-45.041046981965934
30
0
11
36.006547197968729
21
-47.563253751265215
31
0
0
ARC
5
170
100
AcDbEntity
8
0
100
AcDbCircle
10
-13.560468068756819
20
-46.429115634946854
30
0
40
6.7076711596181626
210
0
220
0
230
-1
100
AcDbArc
50
15.963351330907132
51
55.146621920115351
0
ARC
5
171
100
AcDbEntity
8
0
100
AcDbCircle
10
-20.575571514155939
20
-57.549452642810479
30
0
40
19.649854854695505
210
0
220
0
230
-1
100
AcDbArc
50
104.11719215743383
51
126.15436931627069
0
LINE
5
172
100
AcDbEntity
8
0
100
AcDbLine
10
15.526499412646473
20
-73.342655558680221
30
0
11
15.305309412646437
21
-72.973515558680191
31
0
0
ARC
5
173
100
AcDbEntity
8
0
100
AcDbCircle
10
22.580159227877346
20
-54.998825719001658
30
0
40
2.0767878865678351
210
0
220
0
230
1
100
AcDbArc
50
127.1558760741912
51
194.86544671682555
0
ARC
5
174
100
AcDbEntity
8
0
100
AcDbCircle
10
19.108624841941122
20
-50.549792933926767
30
0
40
9.1362896822048647
210
0
220
0
230
1
100
AcDbArc
50
143.52126310074027
51
162.30833858512793
0
ARC
5
175
100
AcDbEntity
8
0
100
AcDbCircle
10
21.235853841960619
20
-52.773838499939103
30
0
40
10.51157792471178
210
-0
220
0
230
1
100
AcDbArc
50
-10.659275126928311
51
72.693226665006108
0
ARC
5
176
100
AcDbEntity
8
0
100
AcDbCircle
10
-15.775634405664505
20
-52.049766799994899
30
0
40
23.539383008322389
210
-0
220
0
230
-1
100
AcDbArc
50
-18.041924717731831
51
4.7190969676888539
0
ARC
5
177
100
AcDbEntity
8
0
100
AcDbCircle
10
-26.913621753063524
20
-57.549452798683021
30
0
40
8.2818207440728582
210
0
220
-0
230
-1
100
AcDbArc
50
251.37062537964218
51
321.20193236939303
0
LINE
5
178
100
AcDbEntity
8
0
100
AcDbLine
10
6.8580394126465194
20
-45.673225558680173
30
0
11
7.1114594126464681
21
-44.584355558680286
31
0
0
ARC
5
179
100
AcDbEntity
8
0
100
AcDbCircle
10
5.1110651658965001
20
-53.376957388852546
30
0
40
18.435027662234504
210
0
220
0
230
1
100
AcDbArc
50
179.29729358926974
51
219.67071926621159
0
ARC
5
180
100
AcDbEntity
8
0
100
AcDbCircle
10
22.36390431396984
20
-54.748652472858552
30
0
40
1.7469154396481321
210
0
220
-0
230
1
100
AcDbArc
50
51.257581276891052
51
126.45879331986306
0
ARC
5
181
100
AcDbEntity
8
0
100
AcDbCircle
10
18.244508359232761
20
-41.145369114606616
30
0
40
36.367128277417507
210
0
220
0
230
1
100
AcDbArc
50
221.29512479257335
51
246.65363419463097
0
ARC
5
182
100
AcDbEntity
8
0
100
AcDbCircle
10
-21.64693803218384
20
-52.043325931376998
30
0
40
16.102475000358961
210
0
220
0
230
-1
100
AcDbArc
50
4.9943466112196324
51
23.30324969882518
0
ARC
5
183
100
AcDbEntity
8
0
100
AcDbCircle
10
15.540936600355913
20
-57.993368136242367
30
0
40
47.782075130698793
210
0
220
0
230
1
100
AcDbArc
50
168.46501532593811
51
194.25505054395043
0
ARC
5
184
100
AcDbEntity
8
0
100
AcDbCircle
10
19.914842034137052
20
-53.734882923127358
30
0
40
11.862258855662528
210
0
220
-0
230
1
100
AcDbArc
50
67.977092337825951
51
133.41391343247142
0
ARC
5
185
100
AcDbEntity
8
0
100
AcDbCircle
10
-29.472768716540543
20
-53.491184441401103
30
0
40
12.913627534956358
210
-0
220
0
230
-1
100
AcDbArc
50
314.26643653418813
51
347.11586423863446
0
LINE
5
186
100
AcDbEntity
8
0
100
AcDbLine
10
23.476199412646537
20
-53.390995558680316
30
0
11
23.457159412646433
21
-53.386115558680203
31
0
0
LINE
5
187
100
AcDbEntity
8
0
100
AcDbLine
10
32.159799412646493
20
-64.481815558680182
30
0
11
29.55920941264651
21
-65.3973455586803
31
0
0
ARC
5
188
100
AcDbEntity
8
0
100
AcDbCircle
10
34.259493610178708
20
-59.474889458495497
30
0
40
11.565899373149687
210
0
220
0
230
-1
100
AcDbArc
50
133.17961683564118
51
158.21957725833667
0
ARC
5
189
100
AcDbEntity
8
0
100
AcDbCircle
10
-23.125795464549554
20
-53.687524692206665
30
0
40
14.262554461808062
210
0
220
0
230
-1
100
AcDbArc
50
154.57082246431295
51
185.26175578639553
0
LINE
5
190
100
AcDbEntity
8
0
100
AcDbLine
10
61.538219412646392
20
-84.328985558680145
30
0
11
53.946419412646378
21
-83.086795558680251
31
0
0
ARC
5
191
100
AcDbEntity
8
0
100
AcDbCircle
10
15.307222534024305
20
-43.47988040255089
30
0
40
33.10717705613402
210
0
220
0
230
1
100
AcDbArc
50
249.72115783366127
51
267.40495007358868
0
ARC
5
192
100
AcDbEntity
8
0
100
AcDbCircle
10
-28.160333105358433
20
-56.15164912217594
30
0
40
9.2405304827695716
210
0
220
0
230
-1
100
AcDbArc
50
172.81238688061129
51
244.35348021769897
0
LINE
5
193
100
AcDbEntity
8
0
100
AcDbLine
10
15.305309412646437
20
-72.973515558680191
30
0
11
14.887339412646554
21
-72.623905558680235
31
0
0
ARC
5
194
100
AcDbEntity
8
0
100
AcDbCircle
10
-21.748661748711847
20
-52.292071035624474
30
0
40
4.7003678179113724
210
0
220
0
230
-1
100
AcDbArc
50
66.995032196342422
51
171.02387205757353
0
ARC
5
195
100
AcDbEntity
8
0
100
AcDbCircle
10
-25.046279339361917
20
-52.071142412380098
30
0
40
2.0511370758857597
210
-0
220
0
230
-1
100
AcDbArc
50
273.2254633931293
51
319.9486510602419
0
ARC
5
196
100
AcDbEntity
8
0
100
AcDbCircle
10
13.255005763164149
20
-74.132765844727757
30
0
40
2.4827629371035957
210
-0
220
0
230
1
100
AcDbArc
50
282.87529725045977
51
357.05934391221513
0
ARC
5
197
100
AcDbEntity
8
0
100
AcDbCircle
10
13.862878442072741
20
-74.202129266095298
30
0
40
1.8725196360707845
210
-0
220
0
230
1
100
AcDbArc
50
-1.7751736567868965
51
27.322157107555043
0
ARC
5
198
100
AcDbEntity
8
0
100
AcDbCircle
10
-32.596108852524992
20
-52.002105053726027
30
0
40
27.181964078059227
210
-0
220
0
230
-1
100
AcDbArc
50
310.65401274809039
51
357.0432982399272
0
ARC
5
199
100
AcDbEntity
8
0
100
AcDbCircle
10
25.860742924161428
20
-54.830067219332221
30
0
40
5.7064041730036212
210
-0
220
0
230
1
100
AcDbArc
50
-81.514555349620707
51
1.1238338202649079
0
ARC
5
200
100
AcDbEntity
8
0
100
AcDbCircle
10
23.683381767554224
20
-76.846735607000497
30
0
40
3.0644408255086915
210
0
220
0
230
1
100
AcDbArc
50
225.27566121771463
51
250.71431844711637
0
ARC
5
201
100
AcDbEntity
8
0
100
AcDbCircle
10
-20.157409074142691
20
-53.495662706610148
30
0
40
15.881807050508028
210
0
220
0
230
-1
100
AcDbArc
50
80.430730945457555
51
109.15372075668198
0
ARC
5
202
100
AcDbEntity
8
0
100
AcDbCircle
10
6.9497574811212814
20
-61.779892265075915
30
0
40
20.650155187279374
210
-0
220
0
230
-1
100
AcDbArc
50
315.08630512604913
51
344.32472106663732
0
LINE
5
203
100
AcDbEntity
8
0
100
AcDbLine
10
-7.6839505873534879
20
-50.113165558680208
30
0
11
-7.6512405873535272
21
-48.243045558680251
31
0
0
ARC
5
204
100
AcDbEntity
8
0
100
AcDbCircle
10
19.395327163426686
20
-52.170488771451033
30
0
40
10.008560669982995
210
0
220
0
230
1
100
AcDbArc
50
153.93820805901561
51
187.81062755515637
0
ARC
5
205
100
AcDbEntity
8
0
100
AcDbCircle
10
20.584258211004141
20
-62.629873535289562
30
0
40
31.16886966653912
210
0
220
-0
230
1
100
AcDbArc
50
78.258734365888756
51
93.053468397736367
0
ARC
5
206
100
AcDbEntity
8
0
100
AcDbCircle
10
16.064081621648398
20
-56.584363118883587
30
0
40
5.7917798400961926
210
0
220
0
230
1
100
AcDbArc
50
188.92387159296609
51
219.84582876889414
0
ARC
5
207
100
AcDbEntity
8
0
100
AcDbCircle
10
22.35246814724789
20
-52.696228162018173
30
0
40
20.957689910540399
210
0
220
-0
230
1
100
AcDbArc
50
51.843334011275182
51
72.652916905658202
0
ARC
5
208
100
AcDbEntity
8
0
100
AcDbCircle
10
-1.6403850859232705
20
-31.555613239611873
30
0
40
53.253604872012431
210
-0
220
0
230
1
100
AcDbArc
50
316.44812403413067
51
322.30022715057589
0
ARC
5
209
100
AcDbEntity
8
0
100
AcDbCircle
10
24.647308432682564
20
-54.661832215589854
30
0
40
18.50838003954998
210
-0
220
0
230
1
100
AcDbArc
50
-9.037722139168654
51
2.3022064793224604
0
ARC
5
210
100
AcDbEntity
8
0
100
AcDbCircle
10
27.050909683562168
20
-34.466051568778866
30
0
40
2.3561522879721215
210
0
220
-0
230
1
100
AcDbArc
50
48.854369165295623
51
93.017259753166201
0
ARC
5
211
100
AcDbEntity
8
0
100
AcDbCircle
10
24.538174249354086
20
-51.082586777229437
30
0
40
18.352682092666264
210
0
220
-0
230
1
100
AcDbArc
50
8.0483057176347899
51
54.097149071371234
0
ARC
5
212
100
AcDbEntity
8
0
100
AcDbCircle
10
24.427531188912326
20
-62.484138807820031
30
0
40
8.1227058426373979
210
0
220
0
230
1
100
AcDbArc
50
224.71487250271772
51
262.22204112853302
0
ARC
5
213
100
AcDbEntity
8
0
100
AcDbCircle
10
28.02071635420134
20
-50.433953049579046
30
0
40
20.638686543475192
210
0
220
0
230
1
100
AcDbArc
50
256.85814915480711
51
285.99321349599001
0
ARC
5
214
100
AcDbEntity
8
0
100
AcDbCircle
10
35.102296371693171
20
-50.007236439543377
30
0
40
25.863796828162805
210
0
220
0
230
1
100
AcDbArc
50
187.82971523201394
51
196.80023012373155
0
LINE
5
215
100
AcDbEntity
8
0
100
AcDbLine
10
11.61731941264633
20
-60.295295558680316
30
0
11
12.584109412646427
21
-61.782595558680242
31
0
0
ARC
5
216
100
AcDbEntity
8
0
100
AcDbCircle
10
36.284954100839144
20
-45.437476494753213
30
0
40
28.790501144436227
210
0
220
0
230
1
100
AcDbArc
50
214.59181184300166
51
232.24115911649864
0
ARC
5
217
100
AcDbEntity
8
0
100
AcDbCircle
10
31.59040991454475
20
-52.118810520948955
30
0
40
11.689682154508388
210
-0
220
0
230
1
100
AcDbArc
50
-8.8554507455666283
51
17.96616714833425
0
ARC
5
218
100
AcDbEntity
8
0
100
AcDbCircle
10
30.221544124312061
20
-56.583302554339454
30
0
40
12.742563393272228
210
-0
220
0
230
1
100
AcDbArc
50
323.73125078481041
51
355.56249672255677
0
ARC
5
219
100
AcDbEntity
8
0
100
AcDbCircle
10
24.223774934327906
20
-51.452511011397561
30
0
40
21.075476497559464
210
-0
220
0
230
1
100
AcDbArc
50
296.7419184665174
51
307.16321638495378
0
ARC
5
220
100
AcDbEntity
8
0
100
AcDbCircle
10
-20.733414982894367
20
-54.070204313420788
30
0
40
3.0000000000050537
210
0
220
0
230
1
100
AcDbArc
50
201.78042274167819
51
204.01693668148903
0
ARC
5
221
100
AcDbEntity
8
0
100
AcDbCircle
10
24.065029680582747
20
-78.486264059788098
30
0
40
3.0000000000127551
210
0
220
-0
230
1
100
AcDbArc
50
75.288590512875416
51
164.72115200446149
0
ENDSEC
0
SECTION
2
OBJECTS
0
DICTIONARY
5
C
100
AcDbDictionary
3
ACAD_GROUP
350
D
3
ACAD_MLINESTYLE
350
17
0
DICTIONARY
5
D
100
AcDbDictionary
0
DICTIONARY
5
1A
330
C
100
AcDbDictionary
0
DICTIONARY
5
17
100
AcDbDictionary
0
ENDSEC
0
EOF
