<?xml version="1.0" encoding="UTF-8" standalone="no"?>
<svg xmlns="http://www.w3.org/2000/svg" xmlns:xlink="http://www.w3.org/1999/xlink" width="381.964mm" height="231.668mm" viewBox="-21.606537 -216.350342 381.963684 231.668213">
    <path transform="matrix(-1,0,0,1,0,0)" style="stroke:none;fill:#000000;fill-rule:evenodd" d="M-185.43457,-216.343262L-182.699219,-216.279785C-179.964783,-216.199875,-177.23111,-216.070114,-174.501465,-215.890625L-172.634277,-215.848633L-170.766602,-215.845703C-168.972687,-215.779587,-167.187103,-215.567276,-165.427734,-215.210938L-164.315918,-215.046875C-163.203003,-214.892441,-162.086334,-214.767548,-160.966797,-214.672363L-159.941895,-214.533447C-159.441193,-214.443802,-158.953461,-214.292938,-158.489258,-214.084961C-158.412354,-214.037292,-158.342468,-213.978851,-158.287109,-213.907227L-157.981934,-213.72168C-157.66391,-213.557343,-157.318298,-213.453018,-156.962402,-213.414551C-156.470886,-213.365021,-155.986877,-213.31781,-155.495117,-213.271484L-154.663086,-213.17627C-152.69339,-212.944855,-150.742554,-212.574326,-148.825195,-212.067383C-146.755615,-211.468872,-144.790649,-210.555084,-142.999512,-209.35791L-141.818359,-208.655762C-140.625,-207.975159,-139.396057,-207.359039,-138.136719,-206.810059L-137.748047,-206.620117C-137.510315,-206.505707,-137.292175,-206.35463,-137.099609,-206.174316L-137.10498,-206.067871C-136.981873,-205.982544,-136.842285,-205.92421,-136.695313,-205.895264L-136.313965,-205.852539C-136.057678,-205.792572,-135.816467,-205.680756,-135.604004,-205.525391C-134.671143,-204.882568,-133.785278,-204.174026,-132.953125,-203.405273C-126.889404,-197.859695,-121.217163,-191.900803,-115.977051,-185.571289C-115.018311,-184.367432,-114.104614,-183.128571,-113.237793,-181.856934L-112.628418,-181.03418C-112.214539,-180.491226,-111.786377,-179.959076,-111.344727,-179.438477C-111.2547,-179.33046,-111.149536,-179.235718,-111.028809,-179.163574L-110.961914,-179.093262C-110.473389,-178.360718,-110.066833,-177.576691,-109.749512,-176.755371C-109.351318,-175.797531,-108.964294,-174.835419,-108.588379,-173.868652L-107.691895,-171.752441C-106.784973,-169.641663,-105.846558,-167.542603,-104.878418,-165.458984L-103.712402,-162.751465C-102.574158,-160.032288,-101.517456,-157.279388,-100.543945,-154.49707C-100.124756,-153.132339,-99.843506,-151.728989,-99.70459,-150.308105C-99.341125,-147.130295,-99.344238,-143.921219,-99.713867,-140.744141C-99.884644,-139.652588,-100.061035,-138.547119,-100.238281,-137.456543L-100.412109,-136.314453C-100.560974,-135.377213,-100.620972,-134.427994,-100.59082,-133.479492C-100.530579,-132.930634,-100.196655,-132.449707,-99.704102,-132.200195L-99.553223,-132.088867C-99.391541,-131.9375,-99.357361,-131.693909,-99.471191,-131.503906C-99.63678,-131.297455,-99.818115,-131.104156,-100.013184,-130.925293L-100.130371,-130.782715C-100.444519,-130.317749,-100.664978,-129.795959,-100.779297,-129.246582C-101.037903,-128.129608,-101.197998,-126.992111,-101.258301,-125.847168C-101.281372,-124.803848,-101.29541,-123.759964,-101.300293,-122.716309L-101.329102,-122.17627C-101.360291,-121.498901,-101.461182,-120.826553,-101.630371,-120.169922C-101.707336,-119.932602,-101.807495,-119.703354,-101.929688,-119.48584L-101.98291,-119.356934C-102.280701,-118.557205,-102.500977,-117.730698,-102.639648,-116.888672L-102.856934,-115.989258C-103.545715,-113.55481,-104.336426,-111.150284,-105.227051,-108.782227L-106.222656,-106.060059C-107.188049,-103.334961,-107.976074,-100.55014,-108.581543,-97.723145L-108.726074,-97.151855C-109.161621,-95.377563,-109.798584,-93.658905,-110.624512,-92.029297C-110.792786,-91.746429,-110.989929,-91.481598,-111.21582,-91.242188L-111.568359,-90.797363C-112.036804,-90.168701,-112.461914,-89.50885,-112.841309,-88.822754L-113.493652,-87.770996C-114.21814,-86.639832,-114.96405,-85.522949,-115.731445,-84.42041L-116.415039,-83.312012C-117.135376,-82.090759,-117.804688,-80.84024,-118.421387,-79.563477L-119.129395,-78.266113C-119.617249,-77.41037,-120.134705,-76.571838,-120.680664,-75.751953L-122.249512,-73.487305L-123.449219,-71.749023C-123.909607,-71.150024,-124.405029,-70.578796,-124.932617,-70.038086L-109.805664,-75.099609L-109.532227,-75.189453C-108.898132,-75.41507,-108.301453,-75.734283,-107.76123,-76.135742C-101.610779,-79.984802,-95.908081,-84.506592,-90.758301,-89.617676C-88.254028,-92.008362,-85.8479,-94.499359,-83.54541,-97.084961C-78.970886,-102.394897,-75.882324,-108.820374,-74.593262,-115.709473C-73.812012,-119.605667,-73.319702,-123.554214,-73.120605,-127.522949C-72.804016,-133.346191,-72.710693,-139.179611,-72.84082,-145.010254C-72.869568,-147.295898,-72.909729,-149.579178,-72.961426,-151.864746L-73.002441,-155.350098C-73.028992,-158.781784,-72.887085,-162.212646,-72.577148,-165.630371C-72.413147,-166.865234,-72.096436,-168.074951,-71.634766,-169.231934C-71.125977,-170.331512,-70.415283,-171.32579,-69.539551,-172.163086C-68.598877,-173.151276,-67.541321,-174.021194,-66.390137,-174.753418C-65.372437,-175.293335,-64.206543,-175.486984,-63.068848,-175.305664C-59.370605,-174.710022,-56.029785,-172.750229,-53.705078,-169.812988C-53.363464,-169.244583,-53.02887,-168.67157,-52.70166,-168.094727L-52.129883,-167.210449C-49.415771,-163.200562,-46.491089,-159.337219,-43.368164,-155.636719L-42.174805,-154.145508C-39.244812,-150.425827,-36.531311,-146.540344,-34.047852,-142.508789C-33.808533,-142.091095,-33.575562,-141.669907,-33.349121,-141.245117L-33.006836,-140.651367C-32.12262,-139.10022,-31.042969,-137.668961,-29.793945,-136.393066C-29.516846,-136.131027,-29.169922,-135.955185,-28.795898,-135.880371C-28.749756,-135.887085,-28.704468,-135.898178,-28.65918,-135.90918L-28.598145,-135.944824C-27.676392,-136.738464,-26.834778,-137.620636,-26.085938,-138.579102C-23.159729,-142.147583,-20.393799,-145.844666,-17.796387,-149.65918C-16.0578,-152.1539,-14.337097,-154.652069,-12.625977,-157.165527L-9.832031,-161.183594C-8.144226,-163.61969,-6.329651,-165.965546,-4.395996,-168.211426C-3.516663,-169.178726,-2.533569,-170.046265,-1.464355,-170.79834C-0.124146,-171.626984,1.365845,-172.184235,2.920898,-172.438477C4.026428,-172.668106,5.152649,-172.783218,6.281738,-172.782227C7.994995,-172.695007,9.569031,-171.811768,10.535645,-170.394531C11.442261,-169.10704,12.164734,-167.699295,12.681641,-166.211914C13.749023,-163.120987,14.614319,-159.963928,15.271973,-156.760742C16.454468,-151.007339,17.504639,-145.226746,18.421387,-139.425293C20.984741,-125.802185,22.006653,-111.93399,21.468018,-98.082275C21.122803,-90.797485,20.284302,-83.544434,18.958008,-76.373047C17.703857,-70.061676,15.873535,-63.878784,13.489746,-57.901855C12.152527,-54.699463,10.55719,-51.610992,8.719727,-48.666992C7.451721,-46.926483,6.09552,-45.252167,4.65625,-43.650391C-3.288208,-34.827881,-11.796631,-26.530518,-20.815918,-18.810059C-26.61615,-14.029785,-33.041626,-10.063446,-39.914551,-7.020996C-44.833069,-4.808044,-49.83075,-2.776855,-54.898438,-0.931152C-59.934753,0.89563,-64.968933,2.695923,-70.021973,4.477051L-87.52002,7.420898L-109.62793,8.179199C-118.806763,8.447266,-127.967834,9.147095,-137.081055,10.276367C-138.48291,10.50769,-139.879639,10.764618,-141.271973,11.047363L-141.881348,11.148438C-148.386475,12.05127,-154.92157,12.717041,-161.475098,13.144531C-166.245667,13.498077,-171.019623,13.784515,-175.79834,14.003906L-188.434082,14.660645C-192.199005,14.86731,-195.932556,15.085083,-199.696289,15.317871L-201.203125,15.284668L-227.784668,14.977051L-253.435059,14.509277L-256.063965,14.243652C-264.896912,13.519409,-273.743805,12.918579,-282.593262,12.441895C-293.674927,11.807861,-304.754974,11.292725,-315.847168,10.895508L-327.529785,10.466309L-340.697754,9.998535C-344.63974,9.846313,-348.567444,9.43692,-352.456055,8.772949C-353.947632,8.467255,-355.406342,8.018707,-356.812012,7.433594C-358.017059,6.871063,-359.025513,5.959839,-359.707031,4.817871C-360.243103,3.684052,-360.455597,2.424133,-360.320801,1.177246L-360.34668,0.544434C-360.127747,-0.733856,-359.553375,-1.924774,-358.688965,-2.891602C-357.483307,-4.331207,-356.016266,-5.529816,-354.365234,-6.424316C-351.767517,-7.871216,-349.002716,-8.995239,-346.132324,-9.771484C-343.888794,-10.416443,-341.610626,-10.933685,-339.308594,-11.320801L-334.787598,-12.034668C-310.156342,-15.943848,-285.59903,-20.362793,-261.150879,-25.285156C-258.0466,-25.947021,-254.954407,-26.669983,-251.878418,-27.453125C-247.5401,-28.739349,-243.264954,-30.230835,-239.068115,-31.922363C-227.979553,-36.281616,-217.103638,-41.165405,-206.478516,-46.556641C-204.593689,-47.53302,-202.754944,-48.596039,-200.968262,-49.742188C-200.425812,-50.121368,-199.900574,-50.524658,-199.394043,-50.950684L-198.366211,-51.67334C-196.520813,-52.920135,-194.348633,-53.595245,-192.121582,-53.612305C-189.851685,-53.529297,-187.71701,-52.511749,-186.223633,-50.800293C-184.771576,-49.189972,-183.684875,-47.28476,-183.037598,-45.215332C-182.542175,-43.782745,-182.234558,-42.291962,-182.122559,-40.780273C-182.111847,-39.436523,-182.477509,-38.116425,-183.179688,-36.970703C-184.378052,-34.801483,-186.145386,-33.000366,-188.291016,-31.760254C-188.816223,-31.487396,-189.381134,-31.298584,-189.965332,-31.203613L-190.257813,-31.208496C-190.664093,-31.206543,-191.068817,-31.156494,-191.462891,-31.057617C-192.998474,-30.655457,-194.498169,-30.127014,-195.946777,-29.478027C-198.143768,-28.531799,-200.28891,-27.469452,-202.373047,-26.29541L-203.488281,-25.72998C-211.953156,-21.677155,-220.563538,-17.937714,-229.303711,-14.518555L-232.708496,-13.141602C-233.659729,-12.750275,-234.604187,-12.343384,-235.541992,-11.920898L-257.988281,-4.025391L-231.149902,-2.649414L-229.981934,-2.54834C-225.291016,-2.254242,-220.593903,-2.062592,-215.894531,-1.973633C-207.861328,-1.831299,-199.756653,-1.7146,-191.722168,-1.625977L-191.354004,-1.638672L-190.93457,-1.638672L-190.020508,-1.67627L-188.991699,-1.714355C-175.809174,-2.498993,-162.656433,-3.704071,-149.550781,-5.328125C-148.807556,-5.429108,-148.066467,-5.546997,-147.328613,-5.681641L-146.77002,-5.757813L-146.160645,-5.833496L-145.512695,-5.921875C-140.338501,-6.456665,-135.148132,-6.830109,-129.950684,-7.041504C-123.680115,-7.309204,-117.401917,-7.466675,-111.125977,-7.513672L-106.554688,-7.602539C-101.63916,-7.713531,-96.727661,-7.953522,-91.824707,-8.322266C-91.248779,-8.39502,-90.682495,-8.530518,-90.13623,-8.727051L-88.154785,-9.194336C-86.163757,-9.630188,-84.150085,-9.955017,-82.123047,-10.16748L-81.349121,-10.280762C-76.134521,-11.227661,-71.011536,-12.623138,-66.037109,-14.45166C-54.650024,-18.450226,-43.701538,-23.602356,-33.362305,-29.827637C-30.693604,-31.479706,-28.131836,-33.298553,-25.692383,-35.273438C-15.883789,-43.876038,-7.781799,-54.247803,-1.80957,-65.847168C0.288635,-70.148834,1.63385,-74.778381,2.16748,-79.534668C2.913391,-84.862,3.406799,-90.221252,3.645996,-95.595215C4.183716,-106.325928,4.082458,-117.07901,3.342773,-127.797852C3.104553,-130.590042,2.740417,-133.36998,2.251465,-136.129395C2.017212,-137.250351,1.674622,-138.345886,1.228027,-139.400391C1.053589,-139.727188,0.83606,-140.029099,0.580566,-140.297363L0.466553,-140.362549C0.189758,-140.494293,-0.133606,-140.482956,-0.399902,-140.331055C-1.01062,-139.895538,-1.566406,-139.387726,-2.054688,-138.818359C-5.60791,-134.716202,-8.567993,-130.135773,-10.848145,-125.210938C-11.074951,-124.640335,-11.257996,-124.053253,-11.394531,-123.45459C-11.416199,-123.244629,-11.428711,-123.033813,-11.432129,-122.822754L-11.45752,-122.532227C-11.511047,-121.600815,-12.019348,-120.755386,-12.816406,-120.270508C-13.087341,-120.184525,-13.370056,-120.141891,-13.654297,-120.144043L-13.933594,-120.018066C-14.564697,-119.669495,-14.991821,-119.040604,-15.081055,-118.325195C-15.143982,-117.809158,-15.180786,-117.290268,-15.190918,-116.770508L-15.335938,-115.885742C-16.059265,-112.44812,-17.847168,-109.325729,-20.445801,-106.961914C-22.145508,-105.21106,-24.549927,-104.329498,-26.978516,-104.566895C-28.618958,-104.66629,-30.215332,-105.137024,-31.647949,-105.942383C-35.727051,-108.052872,-38.691284,-111.827469,-39.774902,-116.290527L-39.990723,-116.909668C-41.557556,-120.838104,-43.81543,-124.454086,-46.657227,-127.586426L-47.520996,-128.647461C-48.521606,-129.89299,-49.409607,-131.224945,-50.174805,-132.627441C-50.301819,-132.925354,-50.382019,-133.240921,-50.416016,-133.562988L-50.492188,-133.84082C-50.937073,-134.771545,-52.031006,-135.193359,-52.986816,-134.805176C-53.409973,-134.596817,-53.692566,-134.18222,-53.739746,-133.712891C-53.870667,-133.104584,-53.862732,-132.474609,-53.717285,-131.869629L-53.577637,-131.237793C-53.378784,-130.082352,-53.322998,-128.906784,-53.412598,-127.737793C-53.596924,-124.546051,-54.004211,-121.37117,-54.631836,-118.236328C-55.806763,-111.790375,-57.528809,-105.456299,-59.779297,-99.302734C-60.976074,-96.332092,-62.495483,-93.501801,-64.310059,-90.862793C-67.362915,-86.265717,-70.960632,-82.054749,-75.024902,-78.321777C-83.354065,-70.654083,-92.183472,-63.547882,-101.45459,-57.050293C-107.354797,-53.035522,-113.817444,-49.917358,-120.631836,-47.797363C-122.806885,-47.093079,-125.006836,-46.468414,-127.227539,-45.924805C-134.319519,-44.043732,-141.4776,-42.421051,-148.6875,-41.060059C-150.450134,-40.770905,-152.235046,-40.639984,-154.020996,-40.668945C-157.282867,-40.900665,-160.309204,-42.452759,-162.400391,-44.966797C-164.107056,-47.142151,-164.464417,-50.085297,-163.328125,-52.605957L-163.668945,-52.618652L-135.588867,-96.133301L-134.26709,-97.979492C-132.97052,-99.843719,-131.751648,-101.760956,-130.61377,-103.726074L-130.408203,-104.164063L-129.936035,-104.89502L-130.15918,-104.710449C-129.921875,-105.112335,-129.635254,-105.482971,-129.306152,-105.813965L-129.093262,-106.158203C-128.889587,-106.50769,-128.713196,-106.872345,-128.564453,-107.248535C-127.203918,-110.524078,-126.164551,-113.923981,-125.460938,-117.400391C-125.362183,-118.254623,-125.270874,-119.109985,-125.187012,-119.96582L-125.096191,-120.588867C-124.980042,-121.300171,-124.811462,-122.001892,-124.592285,-122.688477L-124.43457,-123.345215C-123.979919,-125.453857,-123.77179,-127.608215,-123.814453,-129.764893C-123.820801,-132.19487,-123.949219,-134.62294,-124.199219,-137.040039C-124.430603,-139.411346,-124.679504,-141.776733,-124.946777,-144.144531L-125.090332,-145.716797C-125.177246,-146.765579,-125.249207,-147.816406,-125.306152,-148.867188C-125.3125,-149.084625,-125.306702,-149.302231,-125.289063,-149.519043L-125.302246,-149.946289C-125.331543,-150.349945,-125.479309,-150.73616,-125.729004,-151.054688L-125.892578,-151.37793C-126.243591,-152.132416,-126.5401,-152.911118,-126.779785,-153.708008C-127.206848,-155.064606,-127.62384,-156.406128,-128.041016,-157.765625L-128.218262,-158.274902C-128.400879,-158.782455,-128.602295,-159.283142,-128.821777,-159.775879C-128.896729,-159.906296,-128.97876,-160.032532,-129.066406,-160.154785L-129.113281,-160.248047C-129.381409,-160.900787,-129.566223,-161.584717,-129.663086,-162.283691L-129.956543,-163.512695C-130.184326,-164.432434,-130.431885,-165.347275,-130.699219,-166.256348L-132.114258,-170.92627C-134.391418,-173.4664,-136.744812,-175.937042,-139.171387,-178.334961C-140.813843,-179.909698,-142.533691,-181.401611,-144.324707,-182.805176C-145.183228,-183.459351,-146.088318,-184.050125,-147.032715,-184.572754C-147.397278,-184.753189,-147.785156,-184.882065,-148.185059,-184.956543L-148.473633,-185.062012C-149.550171,-185.566727,-150.568054,-186.188065,-151.509277,-186.914551L-152.092773,-187.314453C-152.555573,-187.638031,-153.060883,-187.896027,-153.594238,-188.081543L-153.667969,-188.080811C-154.034027,-188.107208,-154.372955,-188.28212,-154.607422,-188.564453L-154.682129,-188.617188C-155.116577,-188.846405,-155.589172,-188.9944,-156.07666,-189.054688C-156.558502,-189.121262,-157.041901,-189.176468,-157.526367,-189.220215L-157.944336,-189.286621C-158.511108,-189.381271,-159.06012,-189.561676,-159.572754,-189.821289L-160.227539,-190.043945C-160.889221,-190.244736,-161.569397,-190.378494,-162.257813,-190.443848L-163.019043,-190.583496C-163.777161,-190.737854,-164.524261,-190.942169,-165.255371,-191.195313L-165.422852,-191.232422C-166.316193,-191.403381,-167.238739,-191.337936,-168.098633,-191.041504L-168.376953,-190.975098C-168.952393,-190.850845,-169.549652,-191.048157,-169.938965,-191.489746L-170.064941,-191.573242C-170.478485,-191.781509,-170.9245,-191.917801,-171.383789,-191.976563C-172.610382,-192.15921,-173.8479,-192.259201,-175.087891,-192.275879L-175.998535,-192.315918C-177.030579,-192.362244,-178.056427,-192.500549,-179.063965,-192.729004C-179.177582,-192.778748,-179.278473,-192.852386,-179.365723,-192.94043L-179.462402,-192.975586C-179.693542,-193.031097,-179.936798,-192.956009,-180.095215,-192.778809L-180.366211,-192.700195C-180.77301,-192.607849,-181.189331,-192.564346,-181.606445,-192.569336C-182.146057,-192.566879,-182.685638,-192.572525,-183.225098,-192.586426L-183.609375,-192.581055C-184.033569,-192.567261,-184.451782,-192.476471,-184.843262,-192.3125L-184.942383,-192.246094C-185.440948,-192.102676,-185.958374,-192.035706,-186.477051,-192.046875C-186.905731,-192.039902,-187.334534,-192.047623,-187.762695,-192.069824L-188.474609,-192.064453C-188.787292,-192.048111,-189.095978,-191.986847,-189.391113,-191.882324L-189.463379,-191.821289L-189.501953,-191.746094L-189.557129,-191.674805L-189.630859,-191.624512C-190.194519,-191.398865,-190.791229,-191.266693,-191.397461,-191.233398L-192.219727,-191.148926C-192.651764,-191.094421,-193.07962,-191.010742,-193.500488,-190.898926L-194.620605,-190.563965C-195.530731,-190.320389,-196.453308,-190.125809,-197.384277,-189.980957L-198.459961,-189.760254C-204.109253,-188.566803,-209.598541,-186.713287,-214.814941,-184.237793C-217.039856,-183.082031,-219.234192,-181.934814,-221.453125,-180.76709C-222.816986,-180.088318,-224.171631,-179.396271,-225.520996,-178.688965C-226.214844,-178.301468,-226.872101,-177.851776,-227.484863,-177.345703C-227.934143,-176.929855,-228.347412,-176.4767,-228.719727,-175.990723L-229.61377,-175.017578C-230.717743,-173.861938,-231.863556,-172.746902,-233.048828,-171.674805L-233.515625,-171.22168C-235.095825,-169.677704,-236.390747,-167.866638,-237.34082,-165.87207C-237.761963,-164.908325,-238.058838,-163.894974,-238.225098,-162.856445L-238.422852,-162.149414C-239.003601,-160.526627,-239.794006,-158.98674,-240.773926,-157.568848L-241.447754,-156.440918C-242.099335,-155.300064,-242.68338,-154.121948,-243.196777,-152.912598C-243.386688,-152.408737,-243.571075,-151.902908,-243.75,-151.39502L-243.940918,-150.90918C-244.246002,-150.145218,-244.603058,-149.403046,-245.009766,-148.687988L-245.307129,-147.869141C-245.580505,-147.041916,-245.780609,-146.192276,-245.905762,-145.330078L-246.035645,-144.692383C-246.194122,-143.933197,-246.440674,-143.195099,-246.770508,-142.493164L-246.91748,-142.053711C-247.105804,-141.409485,-247.22644,-140.747375,-247.277344,-140.078125C-247.350433,-139.355362,-247.410828,-138.631165,-247.458496,-137.90625L-247.5625,-136.882324C-247.678284,-135.859787,-247.830811,-134.841705,-248.019531,-133.830078L-248.078613,-133.336914C-248.213135,-132.242279,-248.137878,-131.13205,-247.857422,-130.06543L-247.800781,-129.733398C-247.682098,-129.067474,-247.660522,-128.387817,-247.737793,-127.71582L-247.789063,-126.873047C-247.8284,-126.19487,-247.865204,-125.519852,-247.899902,-124.841309L-247.932129,-124.32666C-247.995392,-123.245239,-248.157715,-122.171906,-248.416992,-121.120117L-248.44043,-120.408203C-248.379059,-117.489685,-247.992218,-114.587112,-247.287109,-111.754395C-247.188599,-111.478622,-247.048828,-111.219452,-246.873535,-110.984863L-246.599609,-110.371094C-246.345276,-109.748703,-246.148193,-109.104431,-246.010742,-108.446289L-245.873047,-107.971191C-245.531189,-106.869202,-245.033173,-105.82193,-244.394043,-104.861328L-244.199219,-104.53418C-243.821381,-103.932495,-243.547241,-103.271667,-243.388672,-102.579102L-243.203613,-102.086426C-242.910004,-101.409088,-242.544159,-100.765381,-242.111816,-100.166992C-240.339539,-97.526459,-238.164459,-95.179962,-235.666016,-93.212402L-235.020508,-92.660156C-234.217407,-91.963135,-233.446533,-91.229797,-232.710449,-90.462402L-232.376953,-90.174805C-232.022705,-89.853729,-231.592438,-89.628052,-231.126465,-89.520996C-231.017822,-89.511749,-230.908752,-89.509552,-230.799805,-89.513184L-230.599121,-89.479004C-230.134674,-89.379303,-229.713562,-89.13559,-229.39502,-88.783203L-228.904297,-88.466309C-226.382416,-87.16156,-223.662048,-86.282715,-220.853516,-85.865234L-220.531738,-85.779297C-219.867004,-85.599304,-219.258209,-85.255066,-218.76123,-84.77832L-218.34668,-84.55957C-217.326233,-84.146484,-216.247742,-83.894836,-215.149902,-83.812988L-214.738281,-83.761719C-214.092285,-83.676697,-213.457306,-83.52243,-212.844238,-83.301758L-212.784668,-83.247559L-212.657227,-83.197754C-209.610199,-82.721466,-206.514923,-82.633789,-203.445801,-82.936768C-200.993347,-83.154846,-198.567932,-83.611481,-196.204102,-84.300293C-195.404816,-84.576324,-194.641815,-84.947968,-193.932129,-85.407715C-190.351593,-87.700897,-186.987061,-90.314819,-183.879883,-93.217285C-183.225525,-93.868256,-182.583557,-94.531921,-181.95459,-95.20752L-181.36084,-95.817383C-180.419189,-96.782806,-179.455536,-97.727112,-178.471191,-98.648926L-178.125,-99.01416C-177.430573,-99.720612,-176.879364,-100.554718,-176.500977,-101.470215L-176.009277,-102.453125C-174.807312,-104.786041,-173.451263,-107.036316,-171.950195,-109.188965L-171.637695,-109.809082C-170.586395,-112.023163,-169.753204,-114.334381,-169.149902,-116.709961C-169.122162,-116.946838,-169.114624,-117.185638,-169.126953,-117.423828L-168.957031,-118.271484C-168.731262,-119.260971,-168.468109,-120.24144,-168.167969,-121.210938L-168.052734,-121.689941C-167.749207,-123.070236,-167.737488,-124.498749,-168.018555,-125.883789L-168.135742,-126.652344C-168.190216,-127.023468,-168.189575,-127.40062,-168.133301,-127.771484L-168.088867,-127.84375C-168.042511,-128.235291,-168.096039,-128.632156,-168.244141,-128.997559C-168.305725,-129.20932,-168.37561,-129.418594,-168.45459,-129.624512L-168.53125,-129.931641C-168.673889,-130.516235,-168.694733,-131.123932,-168.591797,-131.716797L-168.560059,-132.024414C-168.54129,-132.333099,-168.557678,-132.642929,-168.609863,-132.947754C-168.941315,-135.155807,-169.572906,-137.308228,-170.487305,-139.345215L-170.870117,-140.075684C-171.721466,-141.824707,-172.534851,-143.591461,-173.310059,-145.375488L-173.520996,-145.814941C-174.03949,-146.827209,-174.741302,-147.734558,-175.591309,-148.490234C-176.913086,-149.743301,-178.317841,-150.90593,-179.795898,-151.970215C-181.009155,-152.800339,-182.411346,-153.312836,-183.874023,-153.459961C-185.513641,-153.670547,-187.175415,-153.637024,-188.805176,-153.360352C-189.764252,-153.173172,-190.695557,-152.864456,-191.57666,-152.441895C-192.336609,-152.158249,-193.065125,-151.796661,-193.750488,-151.362793C-194.006927,-151.167694,-194.214386,-150.915909,-194.36084,-150.628906L-194.619141,-150.067383C-194.683105,-149.967422,-194.759827,-149.876144,-194.848145,-149.796875C-194.876068,-149.803619,-194.899902,-149.819046,-194.921143,-149.837646C-194.980957,-149.922455,-195.020691,-150.02002,-195.029785,-150.123535L-195.081299,-150.201172C-195.21582,-150.372391,-195.43042,-150.461258,-195.645996,-150.430664C-196.167664,-150.388794,-196.67926,-150.263428,-197.160645,-150.058105C-198.671967,-149.461227,-200.12323,-148.722366,-201.495117,-147.851563C-202.523987,-147.163864,-203.352661,-146.216141,-203.896484,-145.104492C-205.012634,-143.047562,-205.425812,-140.68219,-205.073242,-138.368652C-204.6828,-135.790054,-204.009094,-133.262421,-203.064453,-130.831543C-202.456757,-129.500092,-201.247711,-128.540695,-199.812988,-128.251465C-198.807587,-128.100372,-197.783875,-128.360291,-196.971191,-128.971191C-196.532196,-129.2621,-196.12265,-129.595169,-195.748047,-129.965332L-195.260254,-130.38623C-194.619537,-130.89978,-193.870575,-131.261139,-193.069824,-131.442871C-192.09079,-131.597946,-191.093628,-131.308273,-190.349609,-130.65332C-190.009521,-130.391998,-189.693146,-130.101166,-189.404785,-129.783691C-189.296021,-129.689651,-189.18869,-129.594055,-189.083008,-129.496582L-188.904785,-129.382813C-188.732758,-129.261719,-188.515472,-129.223602,-188.312988,-129.280762L-188.083008,-129.26416C-186.459259,-128.99295,-184.893311,-128.447464,-183.452637,-127.650879C-183.134827,-127.405746,-182.922302,-127.048691,-182.855957,-126.652832C-182.681183,-125.587418,-182.64978,-124.503403,-182.762695,-123.429688C-183.022614,-120.469009,-183.688263,-117.558121,-184.741211,-114.778809C-185.855103,-112.095917,-187.383545,-109.604645,-189.270508,-107.395996C-189.825348,-106.802063,-190.466858,-106.295471,-191.17334,-105.893555C-192.807098,-104.863922,-194.501038,-103.933075,-196.246094,-103.105957C-197.931519,-102.413727,-199.769226,-102.176453,-201.575195,-102.417969L-202.57666,-102.589844C-202.80661,-102.642609,-203.020538,-102.750305,-203.199707,-102.903809L-203.572266,-103.04248C-204.51355,-103.302246,-205.481384,-103.453674,-206.457031,-103.493652L-207.030273,-103.552246C-207.601013,-103.632446,-208.160431,-103.778809,-208.697754,-103.987305C-208.785919,-104.049835,-208.872528,-104.114532,-208.956055,-104.183105L-209.029785,-104.231445C-209.636139,-104.542847,-210.294861,-104.739258,-210.972656,-104.811523L-211.361816,-104.895996C-212.263824,-105.118134,-213.122131,-105.490326,-213.900391,-105.997559C-216.292236,-107.578003,-218.516754,-109.398132,-220.539551,-111.429688C-221.164246,-112.117233,-221.704376,-112.877136,-222.147949,-113.693359L-222.848145,-114.782715L-223.574707,-115.85498C-224.024902,-116.687271,-224.302094,-117.602112,-224.388184,-118.544434L-224.463867,-119.100586C-224.801941,-121.380341,-225.149231,-123.668976,-225.50293,-125.947266L-225.578125,-126.546875C-225.90625,-129.288834,-226.069122,-132.04805,-226.065918,-134.80957C-226.008972,-138.338226,-225.600006,-141.852386,-224.845215,-145.299805C-224.72876,-145.732666,-224.578033,-146.155548,-224.395508,-146.564941C-224.305847,-146.703186,-224.208282,-146.836121,-224.103027,-146.962891L-223.879395,-147.39502C-223.651093,-147.898102,-223.460022,-148.417221,-223.307617,-148.948242L-222.800293,-150.111816C-222.271606,-151.266281,-221.676605,-152.389175,-221.018555,-153.475098L-219.991699,-155.312012L-218.98877,-157.162598L-218.92627,-157.256348C-218.252136,-158.138046,-217.513062,-158.968079,-216.715332,-159.739746C-214.016968,-162.456985,-211.112579,-164.9617,-208.02832,-167.231445C-205.034027,-169.333405,-201.758514,-171.002945,-198.29834,-172.190918C-197.643402,-172.394897,-196.976624,-172.558807,-196.301758,-172.681641L-195.799805,-172.800781C-194.729126,-173.054916,-193.684326,-173.407639,-192.678711,-173.854492L-192.326172,-173.991211C-191.655823,-174.267532,-190.947113,-174.439651,-190.224609,-174.500488L-189.738281,-174.575684C-189.206299,-174.68277,-188.681,-174.820618,-188.165039,-174.98877L-187.220703,-175.132813C-184.449371,-175.476044,-181.659698,-175.6492,-178.867188,-175.651367C-178.124878,-175.598404,-177.385223,-175.541397,-176.643555,-175.47998L-176.168457,-175.449219C-175.837891,-175.42868,-175.507568,-175.410187,-175.176758,-175.393555L-174.249512,-175.329102C-173.274963,-175.24617,-172.311829,-175.061111,-171.375977,-174.776855L-170.665039,-174.61377C-170.187866,-174.522827,-169.704926,-174.465485,-169.219727,-174.441895L-168.11377,-174.430176C-167.158295,-174.411301,-166.226654,-174.128693,-165.421875,-173.613281L-165.173828,-173.479004C-164.582733,-173.186493,-163.930969,-173.037476,-163.271484,-173.043945C-163.146484,-173.032806,-163.02124,-173.023438,-162.895996,-173.015625L-162.747803,-172.99292C-162.451874,-172.93663,-162.174561,-172.806549,-161.944336,-172.612305L-161.268066,-172.259766C-160.584686,-171.920303,-159.882538,-171.620026,-159.165039,-171.360352L-158.302246,-170.980957C-156.509003,-170.067825,-154.820038,-168.962891,-153.264893,-167.685791C-151.314941,-166.139893,-149.470276,-164.465729,-147.743164,-162.674316C-147.119324,-161.965103,-146.643799,-161.138138,-146.344727,-160.242188C-146.069946,-159.480499,-145.810913,-158.713608,-145.567383,-157.941406L-145.319336,-157.256836C-144.969238,-156.27951,-144.546448,-155.329788,-144.054688,-154.415527C-143.900024,-154.158051,-143.735718,-153.906494,-143.5625,-153.661133L-143.273926,-153.191895C-142.241577,-151.46286,-141.484985,-149.583557,-141.03125,-147.621582C-140.983887,-147.276382,-140.985901,-146.926193,-141.037109,-146.581543L-141.038086,-146.430664C-141.006042,-146.100449,-140.868774,-145.78923,-140.646484,-145.542969L-140.504883,-145.222168C-140.316467,-144.723999,-140.198364,-144.202042,-140.152832,-143.671387L-140.083008,-143.133301C-139.865662,-141.849106,-139.542114,-140.585175,-139.115723,-139.354492L-139.019043,-138.956055C-138.789673,-137.959793,-138.737,-136.931,-138.863281,-135.916504L-139,-135C-139.184082,-133.66188,-139.352905,-132.321945,-139.506348,-130.97998L-139.552246,-130.675293C-139.863892,-128.787506,-140.259521,-126.914597,-140.737793,-125.062012L-141.01709,-123.822754C-141.303284,-122.47905,-141.512146,-121.120087,-141.642578,-119.752441L-141.700684,-119.401367C-141.877625,-118.651108,-142.131348,-117.921082,-142.45752,-117.222656L-142.525391,-117.038086C-142.922302,-115.777878,-143.129944,-114.465729,-143.141602,-113.144531L-143.212891,-112.571289C-143.498291,-110.836121,-144.278992,-109.220413,-145.460449,-107.917969C-145.814087,-107.506302,-146.188049,-107.112564,-146.580566,-106.737793L-146.92041,-106.289063C-147.371826,-105.635223,-147.70575,-104.907806,-147.910645,-104.140137L-148.138184,-103.590332C-148.427734,-102.960205,-148.828796,-102.387573,-149.323242,-101.901367L-149.869141,-101.262207C-150.586609,-100.350311,-151.212769,-99.370178,-151.739746,-98.336426L-152.39209,-97.183105L-153.056152,-96.036133C-153.463684,-95.456421,-153.903839,-94.900391,-154.375,-94.371094C-156.206604,-92.273285,-158.075012,-90.205597,-159.977051,-88.171387L-160.859375,-87.17627C-161.294189,-86.690765,-161.684784,-86.167389,-162.026367,-85.612305L-162.425049,-85.108398C-162.696716,-84.777344,-162.980042,-84.456085,-163.274414,-84.14502C-164.951233,-82.371613,-166.731995,-80.699524,-168.607422,-79.137695C-168.936432,-78.894592,-169.281616,-78.674103,-169.640625,-78.478027L-170.376953,-77.945801C-171.104797,-77.40152,-171.803467,-76.819275,-172.470215,-76.20166C-174.321991,-74.503937,-176.1073,-72.734741,-177.821777,-70.898438L-178.227051,-70.498535C-178.959381,-69.749451,-179.868774,-69.197174,-180.871094,-68.892578L-181.42041,-68.620605C-182.066711,-68.25946,-182.66745,-67.822174,-183.209473,-67.317871L-183.653809,-66.995605C-184.279114,-66.585876,-184.997467,-66.340149,-185.742676,-66.280273L-186.017578,-66.233887C-186.487274,-66.171265,-186.93515,-65.997833,-187.325684,-65.729492L-187.78418,-65.554688C-188.906464,-65.240936,-190.044067,-64.984436,-191.192383,-64.786133C-193.736969,-64.348694,-196.282562,-63.92218,-198.831055,-63.506348C-200.673553,-63.254517,-202.525787,-63.079254,-204.382813,-62.980957L-205.534668,-62.877441C-206.108765,-62.8237,-206.675293,-62.708252,-207.225586,-62.536133L-207.316406,-62.480469L-207.412598,-62.455566L-207.510254,-62.433594C-208.444641,-62.34198,-209.383636,-62.306824,-210.322266,-62.328125C-214.953552,-62.366302,-219.583954,-62.516266,-224.208008,-62.777832C-227.534485,-63.027527,-230.784546,-63.899261,-233.789551,-65.347656L-234.656738,-65.762207C-234.916168,-65.890839,-235.182556,-66.004852,-235.454712,-66.10376L-238.65332,-68.023438L-238.883057,-68.23999C-239.202637,-68.489532,-239.552795,-68.696899,-239.924805,-68.858154L-240.439941,-69.095215L-243.527832,-70.947998C-243.838959,-71.339325,-244.127625,-71.747833,-244.392822,-72.171631L-244.477295,-72.278076C-244.690826,-72.532227,-245.01947,-72.659241,-245.348145,-72.612793L-245.705811,-72.445801L-255.463013,-83.731323L-255.510254,-83.799805C-256.949097,-85.691528,-258.490631,-87.502777,-260.12793,-89.225586L-260.626953,-89.79248C-261.177429,-90.436066,-261.653809,-91.139496,-262.046875,-91.889648C-262.175262,-92.19455,-262.292084,-92.50412,-262.396973,-92.817871L-262.740234,-93.525391C-263.106567,-94.221008,-263.542725,-94.877563,-264.041992,-95.484863L-264.266113,-95.804688C-264.593811,-96.235901,-264.834717,-96.726563,-264.975586,-97.249512L-264.984375,-97.465332C-265.030273,-97.881226,-265.20752,-98.271881,-265.492676,-98.578125L-265.541016,-98.660156C-265.842773,-99.314667,-266.050262,-100.008728,-266.155762,-100.72168L-266.274902,-101.17041C-266.455627,-101.832855,-266.801544,-102.438477,-267.278809,-102.932129L-267.401367,-103.11084C-267.715088,-103.643921,-267.92926,-104.229614,-268.033203,-104.839355C-268.216156,-105.866608,-268.357513,-106.900787,-268.457031,-107.939453L-268.569824,-108.623535C-268.727844,-109.508255,-269.027496,-110.36171,-269.45752,-111.150879L-269.600586,-111.472656C-269.802032,-111.971924,-269.738129,-112.538269,-269.43457,-112.98291L-269.390625,-113.08252C-269.282654,-113.301636,-269.300049,-113.562744,-269.4375,-113.764648L-269.618164,-114.266113C-269.973389,-115.486816,-270.086548,-116.765198,-269.951172,-118.029297L-269.995605,-118.643555C-270.1026,-119.591431,-270.282898,-120.529617,-270.534668,-121.449707L-270.637207,-122.021973C-270.836395,-123.364777,-270.749664,-124.734512,-270.382813,-126.041504L-270.223633,-126.855957C-270.16864,-127.254395,-270.181488,-127.659195,-270.259766,-128.053711L-270.29834,-128.115723C-270.422119,-128.363892,-270.503937,-128.630844,-270.540527,-128.905762C-270.666931,-129.725677,-270.729309,-130.554199,-270.727051,-131.383789L-270.754395,-131.912598C-270.807129,-133.036835,-270.944122,-134.155502,-271.164063,-135.259277L-271.243164,-135.844238C-271.414703,-137.660934,-271.302307,-139.49324,-270.910156,-141.275391C-270.527557,-143.181503,-270.016327,-145.059494,-269.379883,-146.896484L-269.200684,-147.531738C-269.041565,-148.172775,-268.93866,-148.826462,-268.892578,-149.485352C-268.809814,-150.534073,-268.734253,-151.586853,-268.666504,-152.636719L-268.603027,-153.217773C-268.461884,-154.530991,-268.168549,-155.823364,-267.729004,-157.068848L-267.562988,-157.694336C-267.490387,-157.990997,-267.460602,-158.296448,-267.474121,-158.601563L-267.259277,-159.393555C-266.378662,-162.084534,-265.315002,-164.712067,-264.075684,-167.257813L-263.922363,-167.451172C-263.699738,-167.86441,-263.53299,-168.305328,-263.425293,-168.762207C-263.268402,-169.28479,-263.133423,-169.813736,-263.020996,-170.347656L-262.870117,-170.886719C-262.701385,-171.420792,-262.47403,-171.934525,-262.192871,-172.418945C-262.059357,-172.603485,-261.914368,-172.779434,-261.758301,-172.945313L-261.416016,-173.433105C-260.907501,-174.205124,-260.450958,-175.010147,-260.049316,-175.842773L-259.826172,-176.258301C-259.578705,-176.701355,-259.290619,-177.120407,-258.966309,-177.510742C-258.863617,-177.591949,-258.754242,-177.66452,-258.63623,-177.721191L-258.423828,-177.927246C-258.215607,-178.138031,-258.02829,-178.368484,-257.864258,-178.615234C-257.503235,-179.151093,-257.14978,-179.691696,-256.803711,-180.237305L-256.432129,-180.78125C-253.154388,-185.403824,-249.423492,-189.687775,-245.294922,-193.569336C-244.29599,-194.498291,-243.217529,-195.33786,-242.071777,-196.078125L-241.157227,-196.751465C-240.246002,-197.429459,-239.347412,-198.12381,-238.461426,-198.834473L-237.459961,-199.576172C-236.362122,-200.368225,-235.249084,-201.138016,-234.120605,-201.885742L-233.293945,-202.477539C-232.413849,-203.13501,-231.547699,-203.811584,-230.696777,-204.506348L-230.036621,-204.947266C-229.238556,-205.450882,-228.383667,-205.858261,-227.489746,-206.160645L-226.294922,-206.64209C-225.007172,-207.19989,-223.747406,-207.820038,-222.52002,-208.500488L-221.804688,-208.833984C-220.124054,-209.588593,-218.372162,-210.173187,-216.575195,-210.579102C-216.330963,-210.647141,-216.086548,-210.713211,-215.841309,-210.777344L-215.478027,-210.892578C-214.346741,-211.279175,-213.316467,-211.914413,-212.463379,-212.751953L-212.21875,-212.933105C-211.573303,-213.350708,-210.804901,-213.536301,-210.040039,-213.458984L-209.26709,-213.54248C-208.495819,-213.642365,-207.731476,-213.790085,-206.978516,-213.984863C-206.049133,-214.212006,-205.124725,-214.460175,-204.206543,-214.729004L-203.340332,-214.934082C-201.553925,-215.351913,-199.719482,-215.527954,-197.88623,-215.45752L-197.53125,-215.461426C-195.486023,-215.519775,-193.44751,-215.723358,-191.431152,-216.070801L-189.936035,-216.210449C-188.438538,-216.326263,-186.93631,-216.370636,-185.43457,-216.343262z"/>
</svg>
