<?xml version="1.0" encoding="UTF-8" standalone="no"?>
<svg xmlns="http://www.w3.org/2000/svg" xmlns:xlink="http://www.w3.org/1999/xlink" width="114.181mm" height="75.576mm" viewBox="-4.090332 -68.788086 114.180664 75.576172">
    <path transform="matrix(-1,0,0,1,436.002441,-173.000488)" style="stroke:#000000;stroke-width:0.050000mm;fill:none" d="M380.128906,104.21582L381.460449,104.253906L381.80127,104.270996L383.128418,104.365723L383.40332,104.390137L384.231445,104.478027L384.442871,104.50293L385.268066,104.612793L385.475586,104.643555L386.296875,104.774902L386.507813,104.811523L387.325684,104.964844L387.528809,105.005371L388.341797,105.179688L388.551758,105.227539L389.360352,105.423828L389.566406,105.477051L390.369629,105.694824L390.569824,105.751953L391.367676,105.990723L391.605957,106.065918L391.842285,106.148926L392.075195,106.23877L392.407715,106.382324L392.90625,106.61084L393.14209,106.723633L393.631836,106.967773L393.858887,107.085449L394.339844,107.344727L394.566406,107.47168L395.038086,107.746094L395.258789,107.879395L395.720703,108.168457L395.937988,108.309082L396.390137,108.612793L396.605469,108.763184L397.047363,109.081543L397.252441,109.233887L397.683594,109.565918L397.883301,109.725098L398.303711,110.070801L398.505371,110.242188L398.914063,110.601563L399.102539,110.772461L399.5,111.14502L399.682129,111.321289L400.067871,111.706543L400.254395,111.899414L400.627441,112.297852L400.797363,112.485352L401.157715,112.895508L401.327637,113.095215L401.675293,113.518066L401.835449,113.719238L402.01416,113.95166L402.218262,114.183594L402.371094,114.362305L402.73877,114.806152L402.881836,114.983398L403.236328,115.437012L403.376953,115.623047L403.717773,116.086426L403.852539,116.275391L404.180176,116.749023L404.219727,116.808105L404.45166,116.640625L404.656738,116.497559L404.865723,116.36084L405.079102,116.230469L405.296875,116.106934L405.577637,115.960449L405.88916,115.805664L406.114746,115.698242L406.343262,115.597656L406.575195,115.503906L406.810059,115.417969L407.085938,115.327148L407.416016,115.225098L407.655762,115.154785L407.897949,115.092285L408.141602,115.037598L408.387207,114.990234L408.672852,114.944824L409.015625,114.896973L409.263672,114.866211L409.512695,114.84375L409.762207,114.828613L410.011719,114.821289L410.312988,114.822754L410.660156,114.831055L410.909668,114.84082L411.15918,114.858398L411.407715,114.883789L411.655762,114.916992L411.965332,114.969727L412.311523,115.035645L412.556152,115.086426L412.799316,115.144531L413.040527,115.210449L413.279297,115.283691L413.588379,115.390625L413.925293,115.515137L414.158203,115.605469L414.388184,115.703125L414.615234,115.807617L414.814453,115.906738L415.222168,116.116699L415.442871,116.234375L415.65918,116.359375L415.855469,116.480469L416.239746,116.725098L416.44873,116.862793L416.65332,117.006348L416.84082,117.147949L417.199707,117.425781L417.39502,117.581543L417.585449,117.743652L417.748535,117.891113L418.080078,118.199219L418.260742,118.372559L418.435547,118.550781L418.581055,118.708496L418.883789,119.044922L419.047852,119.233398L419.206543,119.426758L419.282227,119.525391L419.34082,119.446777L419.493164,119.248535L419.651367,119.055176L419.815918,118.866699L419.98584,118.683594L420.161621,118.505859L420.342773,118.333496L420.529297,118.166992L420.685547,118.035645L420.691406,118.030762L420.808105,117.924805L420.996094,117.759277L421.188477,117.600098L421.376465,117.454102L421.552246,117.321777L421.754395,117.174805L421.960938,117.033691L422.187012,116.890137L422.37207,116.776855L422.587402,116.649902L422.806641,116.529297L423.007324,116.426758L423.200195,116.331543L423.42627,116.224121L423.655273,116.124023L423.884766,116.032227L424.083984,115.956055L424.318848,115.870605L424.556152,115.79248L424.789551,115.723633L424.994141,115.666504L425.23584,115.603027L425.479492,115.546875L425.687012,115.505859L425.89502,115.467285L426.141113,115.425293L426.38916,115.391602L426.595703,115.369141L426.806152,115.349121L427.055664,115.329102L427.305176,115.317383L427.54541,115.312988L427.756348,115.3125L428.006348,115.315918L428.255859,115.327148L428.476074,115.343262L428.687012,115.361816L428.935547,115.387695L429.183105,115.421387L429.405762,115.458008L429.614258,115.495605L429.859375,115.543945L430.103027,115.599609L430.314941,115.654785L430.520996,115.711426L430.760742,115.78125L430.998535,115.858887L431.223145,115.939941L431.423828,116.015625L431.656738,116.107422L431.88623,116.206543L432.106934,116.310059L432.302246,116.405273L432.524902,116.518066L432.744141,116.638184L432.972168,116.772461L433.159668,116.887207L433.371094,117.020996L433.577637,117.161621L433.78125,117.309082L433.960449,117.443359L434.158203,117.596191L434.350586,117.755371L434.586426,117.963867L434.787109,118.148926L434.968262,118.321289L435.143555,118.499512L435.313965,118.682617L435.443848,118.831055L435.619629,119.036621L435.779297,119.229004L435.932617,119.426758L436.07959,119.628906L436.182617,119.77832L436.332031,120.000977L436.467773,120.210449L436.597168,120.424316L436.720215,120.64209L436.799805,120.793457L436.922363,121.03125L437.033691,121.255371L437.137695,121.482422L437.234375,121.712891L437.294434,121.866699L437.38916,122.117188L437.473633,122.352051L437.55127,122.589844L437.621094,122.830078L437.668457,123.009766L437.733398,123.27002L437.790039,123.513672L437.838867,123.758789L437.880371,124.005371L437.880859,124.007813L437.915039,124.108398L438.008301,124.417969L438.241699,125.254883L438.305176,125.496582L438.374512,125.807129L438.547852,126.658203L438.594238,126.903809L438.642578,127.226074L438.708984,127.738281L438.923828,128.708496L438.970215,128.932129L439.224609,130.259277L439.26416,130.48291L439.480469,131.814941L439.51416,132.04248L439.691895,133.378906L439.718262,133.601074L439.858398,134.94043L439.878906,135.166504L439.980957,136.509277L439.995117,136.738281L440.058594,138.082031L440.065918,138.305664L440.091797,139.650879L440.092773,139.880371L440.080078,141.226074L440.075195,141.449219L440.024902,142.793945L440.012695,143.023438L439.923828,144.366699L439.905762,144.592285L439.778809,145.933105L439.754395,146.155762L439.589844,147.493652L439.558105,147.724121L439.354492,149.058105L439.317871,149.279297L439.07666,150.608887L439.032715,150.832031L438.753418,152.155762L438.698242,152.399902L438.634766,152.641602L438.564453,152.881348L438.508789,153.053223L438.274414,153.750488L438.180176,154.015137L437.921875,154.702637L437.81543,154.972168L437.533203,155.647949L437.419922,155.905762L437.114258,156.570801L436.989746,156.829102L436.661133,157.481445L436.527344,157.73584L436.175781,158.375488L436.037598,158.616699L435.664063,159.243652L435.513184,159.487305L435.117676,160.100098L434.958496,160.336914L434.541504,160.935059L434.376953,161.162598L433.938965,161.746094L433.765625,161.96875L433.307129,162.536621L433.118652,162.76123L432.63916,163.3125L432.454102,163.518555L431.955078,164.053711L431.755371,164.259766L431.236816,164.777344L431.030762,164.976074L430.493164,165.475586L430.28125,165.665527L429.883301,166.009766L429.34082,166.53125L429.172363,166.688477L428.459961,167.334961L428.282715,167.491211L427.552246,168.115723L427.374023,168.263672L426.626465,168.866211L426.444824,169.008301L425.681152,169.588379L425.495605,169.725098L424.71582,170.282715L424.522461,170.416504L423.727051,170.950684L423.534668,171.076172L422.724121,171.587402L422.526367,171.708496L421.70166,172.195801L421.5,172.310547L420.661133,172.773926L420.459961,172.881348L419.60791,173.320801L419.399414,173.424805L418.534668,173.839355L418.323242,173.937012L417.445801,174.32666L417.231445,174.417969L416.342285,174.782227L416.127441,174.866699L415.227051,175.205566L415.006836,175.284668L414.095215,175.597656L413.97998,175.63623L413.11377,175.918945L412.931152,175.976563L412.059082,176.238281L411.878906,176.290039L411.000977,176.53125L410.820801,176.578125L409.9375,176.798828L409.749023,176.84375L408.86084,177.042969L408.680664,177.081055L407.788086,177.259766L407.598633,177.29541L406.70166,177.452637L406.516602,177.48291L405.615723,177.619141L405.367676,177.652344L405.119141,177.678223L404.947754,177.691406L403.01416,177.819336L402.90332,177.826172L400.96875,177.927246L400.857422,177.932129L398.920898,178.006348L398.810059,178.009766L397.144531,178.050293L390.409668,178.670898L383.410645,179.356934L383.101563,179.380859L380.151367,179.555176L380.015625,179.5625L377.063477,179.686523L376.924316,179.690918L373.970703,179.763672L373.834961,179.766113L370.880859,179.788574L370.741699,179.788086L367.787598,179.759277L367.651367,179.756836L364.698242,179.677734L364.561035,179.672852L361.608887,179.542969L361.471191,179.535645L358.543457,179.356445L349.078125,178.802734L346.541016,178.682129L343.882324,178.574707L341.342285,178.491211L338.839355,178.427246L338.39502,178.434082L338.14502,178.434082L337.828125,178.422852L337.294434,178.393066L337.044922,178.375L336.773438,178.34668L336.244141,178.282227L335.996094,178.248047L335.727051,178.202148L335.20459,178.103516L334.959473,178.053223L334.696289,177.990234L334.181641,177.85791L333.94043,177.791992L333.681641,177.711914L333.176758,177.546387L332.94043,177.464844L332.678711,177.364746L332.185547,177.166016L331.955078,177.068848L331.71582,176.958496L331.235352,176.728027L331.011719,176.616699L330.765625,176.483398L330.299805,176.220703L330.083984,176.094727L329.87207,175.961914L329.664551,175.822266L329.461426,175.67627L329.263184,175.524414L329.069824,175.366211L328.881348,175.20166L328.697754,175.031738L328.52002,174.856445L328.347656,174.675293L328.181152,174.48877L328.020508,174.297363L327.865723,174.100586L327.717773,173.899414L327.575684,173.693848L327.468262,173.528809L327.338867,173.324219L327.208496,173.11084L327.084961,172.893555L326.968262,172.672363L326.858398,172.447754L326.773438,172.260254L326.677734,172.041992L326.581055,171.811523L326.491211,171.578125L326.40918,171.342285L326.334473,171.103516L326.29541,170.968262L326.232422,170.741211L326.169434,170.499023L326.114258,170.255371L326.066406,170.010254L326.025879,169.763184L326.003906,169.601074L325.974609,169.368164L325.947266,169.119629L325.927734,168.870117L325.916016,168.620605L325.912109,168.370605L325.913574,168.219727L325.917969,167.984863L325.92627,167.735352L325.942871,167.48584L325.966797,167.236816L325.999023,166.989258L326.021484,166.84375L326.05957,166.61084L326.103516,166.364746L326.155273,166.120117L326.214844,165.877441L326.282227,165.636719L326.32666,165.490234L326.398438,165.263184L326.477539,165.026367L326.563965,164.791504L326.657715,164.560059L326.758789,164.331055L326.838867,164.161621L326.945313,163.943848L327.058594,163.721191L327.178711,163.501953L327.305664,163.286621L327.439453,163.075195L327.57959,162.868164L327.726074,162.665527L327.878906,162.467773L328.038086,162.274902L328.130859,162.167969L328.348145,161.921387L328.516113,161.736328L328.610352,161.637695L328.838379,161.402832L329.015137,161.226074L329.116211,161.130371L329.354492,160.907715L329.539551,160.739746L329.640625,160.652832L329.888672,160.442383L330.082031,160.283691L330.338867,160.087402L330.861816,159.70459L331.065918,159.560059L331.274414,159.421875L331.5,159.282715L332.056152,158.952148L332.272949,158.827637L332.493652,158.710449L332.730957,158.593262L333.315918,158.317383L333.543945,158.214355L333.774414,158.118652L334.021973,158.024902L334.631836,157.805664L334.868652,157.724609L335.189941,157.62793L335.503418,157.540527L335.745117,157.477051L335.867188,157.448242L336.185059,157.375488L336.429199,157.32373L336.561523,157.298828L336.883789,157.241211L337.130859,157.201172L337.269043,157.182129L337.45166,157.158691L344.91748,155.937012L345.041504,155.91748L347.19873,155.599121L348.97998,155.307129L350.769531,154.98584L352.549316,154.638672L354.345215,154.260254L356.135742,153.854004L356.676758,153.723145L356.408203,153.433105L356.271973,153.281738L355.373535,152.26123L355.240723,152.106934L354.368652,151.063965L354.238281,150.904297L353.393066,149.838867L353.241211,149.640625L353.049805,149.37207L352.549316,148.637695L352.412109,148.428711L352.251953,148.166992L351.805664,147.402832L351.683105,147.185059L351.541016,146.910645L351.149902,146.118652L351.04248,145.892578L350.923828,145.618164L350.588379,144.802246L350.496582,144.569336L350.394531,144.280762L350.116699,143.443848L350.041992,143.205566L349.960938,142.913574L349.741211,142.058105L349.682617,141.814941L349.621582,141.515137L349.461426,140.644531L349.42041,140.397949L349.379883,140.094238L349.288574,139.287109L349.179199,138.46875L349.149902,138.220703L349.13623,138.072266L349.060059,137.159668L349.042969,136.910156L349.037109,136.767578L349.005859,135.853027L349.000977,135.603027L349.001953,135.456055L349.007324,135.100098L348.992188,134.979492L348.964844,134.730957L348.947754,134.519531L348.901855,133.836914L348.88916,133.587402L348.884277,133.363281L348.878906,132.680176L348.880371,132.430176L348.888672,132.216309L348.922852,131.534668L348.938965,131.285645L348.959961,131.06543L349.03418,130.387207L349.06543,130.13916L349.098633,129.925293L349.212402,129.251465L349.257813,129.005859L349.302734,128.79541L349.455566,128.128906L349.515625,127.88623L349.574219,127.674316L349.634277,127.46875L349.709473,127.019043L349.754395,126.772949L349.786133,126.620605L349.985352,125.714844L350.042969,125.471191L350.083008,125.320313L350.327148,124.428711L350.396973,124.188477L350.441406,124.048828L350.728516,123.17334L350.810059,122.937012L350.865234,122.789551L351.195801,121.931641L351.289063,121.699707L351.348633,121.562988L351.720703,120.724609L351.825195,120.497559L351.88916,120.368164L352.301758,119.549805L352.417969,119.328613L352.493164,119.193359L352.946289,118.397461L353.073242,118.182129L353.151367,118.056641L353.643555,117.28418L353.78125,117.075195L353.867188,116.952637L354.397461,116.205566L354.544922,116.003906L354.635742,115.886719L355.203613,115.165527L355.361328,114.97168L355.460449,114.855957L356.064453,114.163574L356.231445,113.977539L356.334961,113.868164L356.974609,113.205078L357.150879,113.027832L357.260254,112.923828L357.93457,112.291504L358.119629,112.123047L358.236328,112.021973L358.944336,111.422363L359.137695,111.26416L359.260742,111.168457L360.001465,110.603027L360.056641,110.561035L360.819336,109.989258L361.115234,109.777832L361.901855,109.242188L362.208008,109.043457L363.01709,108.544922L363.328613,108.362793L364.15918,107.901367L364.481445,107.731934L365.33252,107.308594L365.660645,107.154297L366.529785,106.77002L366.86377,106.631348L367.750977,106.286133L368.027344,106.185547L368.264648,106.058594L368.46582,105.955078L368.689453,105.84375L368.916992,105.740234L369.148926,105.643066L369.358398,105.559082L369.591797,105.469727L369.828125,105.387695L370.083008,105.308105L370.299316,105.244629L370.540039,105.177734L370.783203,105.118652L371.049316,105.063477L371.271484,105.020996L371.517578,104.977539L371.765137,104.942383L372.035645,104.912598L372.262207,104.891602L372.300781,104.888672L372.523926,104.845215L372.736816,104.806641L373.564941,104.668457L373.787598,104.634766L374.618652,104.52002L374.833008,104.493164L375.666992,104.400879L375.881348,104.380371L376.717773,104.310547L376.940918,104.294922L377.778809,104.248535L377.998047,104.239258L378.837402,104.21582L379.055664,104.212891L379.895508,104.212402L380.128906,104.21582z"/>
    <path transform="matrix(-1,0,0,1,436.002441,-173.000488)" style="stroke:#000000;stroke-width:0.050000mm;fill:none" d="M381.231934,112.250488L382.559082,112.345215C384.770935,112.550598,386.954803,112.989571,389.074219,113.654785C391.754761,114.83091,394.083099,116.684433,395.830078,119.033203C396.861786,120.173141,397.757782,121.428917,398.5,122.775391L400.126465,126.546387C401.037384,128.751541,401.249207,131.183228,400.733398,133.512695C400.895813,133.651413,400.970795,133.867783,400.92627,134.07666L400.72168,134.462891L400.331543,137.153809C399.958038,138.704163,399.478699,140.227097,398.896973,141.711914C398.509247,143.265289,397.841309,144.734909,396.925781,146.04834L396.302734,147.022461L396.10791,147.399414C395.644287,148.223373,395.125,149.014771,394.553711,149.768066L394.598633,149.76416C395.848633,149.457016,397.072723,149.052536,398.259766,148.554688C401.867462,146.632355,404.825745,143.685577,406.762207,140.085449C407.730774,137.111893,408.097137,133.975128,407.839844,130.858398L407.807129,128.988281L407.760254,128.373535C407.586365,126.730865,407.877136,125.07238,408.599609,123.586914C409.222351,122.839539,410.270844,122.606476,411.151855,123.019043C412.267578,123.531273,413.156921,124.434677,413.650879,125.558594C415.530273,127.916374,417.323547,130.3414,419.027344,132.829102L419.08252,132.847168C419.203583,132.8629,419.325073,132.812363,419.39209,132.710449C421.54071,129.897186,423.661743,127.069489,425.76123,124.219238L425.949219,124.064941L425.978516,124.044434L426.022461,123.996094C426.873657,123.143143,428.233978,123.077873,429.163086,123.845215C429.730042,124.310059,430.043427,125.015686,430.009277,125.748047C430.439117,126.826645,430.712341,127.961182,430.820801,129.117188C432.481934,136.145508,432.517822,143.460144,430.925781,150.504395C429.741791,154.250946,427.508698,157.579605,424.491211,160.096191C420.612274,163.92691,415.853394,166.74852,410.631348,168.313965C408.602692,168.949356,406.524963,169.415985,404.419434,169.708984C401.842621,169.897415,399.261047,170.014328,396.677734,170.05957L389.64209,170.70752L382.629883,171.39502C374.765594,171.927994,366.873932,171.919662,359.010742,171.370117L349.521484,170.814941C345.978394,170.632904,342.433228,170.503204,338.88623,170.425781L338.273926,170.435059C336.845367,170.402603,335.4505,169.994705,334.229492,169.252441C333.840942,168.727356,333.80368,168.021271,334.132813,167.457031C335.261993,166.110977,336.870178,165.2565,338.617676,165.074219L346.209473,163.832031L348.410156,163.507324C353.538788,162.705933,358.614258,161.596191,363.609375,160.184082C368.1091,158.533539,372.461548,156.5065,376.620605,154.124512L376.878906,154.103516C378.17688,154.062683,379.311249,154.972443,379.554688,156.248047C379.807281,156.949707,379.764282,157.723923,379.435059,158.393066C379.105865,159.062195,378.518707,159.56871,377.808594,159.796387L376.77832,160.039551L371.196777,162.622559C367.644745,164.156311,364.032654,165.546906,360.369141,166.791016L360.411621,166.800293C367.163574,167.406281,373.94986,167.537476,380.720215,167.192871C383.965057,166.999527,387.200256,166.669968,390.41748,166.205078L403.455566,165.589844C410.262878,164.668198,416.63269,161.710571,421.729492,157.10498C424.223083,154.603836,426.033569,151.504959,426.987793,148.104492C427.898071,142.730087,427.832916,137.235626,426.79541,131.884277C426.715973,131.809708,426.608795,131.770294,426.500977,131.786133C425.036957,133.159927,423.955811,134.89119,423.36377,136.80957C423.134277,136.816116,422.929352,136.955139,422.84082,137.166992L422.376953,138.839355C422.184692,139.559692,421.712769,140.173508,421.065826,140.544098C420.418915,140.914688,419.650696,141.011292,418.932129,140.8125C417.406525,140.166229,416.305145,138.799927,415.997559,137.171875L413.568848,133.44873L413.521973,133.362305C413.383484,133.167236,413.117828,133.115799,412.913574,133.240234C412.652924,133.567154,412.61322,134.017899,412.812012,134.385742L412.809082,134.597656C412.783813,138.778931,411.354858,142.830536,408.751465,146.102539C405.233765,150.095657,400.882507,153.268066,396.004883,155.395996C392.89856,156.507751,389.643555,157.148972,386.347656,157.29834C385.265045,157.050598,384.478088,156.114532,384.421387,155.005371C384.41156,154.686798,384.483063,154.371033,384.629395,154.087891L384.850586,153.71875L385.268555,153.369141C390.911377,148.523438,394.321899,141.577393,394.705566,134.149414C394.730957,133.2258,394.678986,132.301666,394.550293,131.386719C394.400665,129.674393,393.977814,127.997093,393.297852,126.418457L393.044434,125.32959C392.619812,123.844971,391.695831,122.552414,390.428711,121.669922C388.295135,119.725388,385.525055,118.626602,382.638672,118.580078C380.007904,118.136566,377.3078,118.362938,374.787598,119.238281C372.236694,119.879868,369.840515,121.027,367.741211,122.611816C367.134491,123.112038,366.586975,123.679993,366.109375,124.304688L364.146973,128.313477C363.048584,130.625946,362.592865,133.191437,362.827637,135.740723C362.3302,139.685501,364.411774,143.506195,367.996094,145.227051L370.59668,146.142578C373.887482,147.251907,377.520844,146.19043,379.696777,143.483887C381.429626,141.794846,382.653046,139.652908,383.227539,137.302246C383.91861,134.132172,382.791687,130.840637,380.302734,128.759277C379.021423,128.091537,377.461823,128.278503,376.374023,129.229492C375.433044,129.305222,374.59079,129.842377,374.125153,130.663574C373.659515,131.484772,373.630951,132.483322,374.04834,133.330078C374.192902,133.991043,374.624176,134.553329,375.225098,134.864258C375.789459,134.832703,376.315765,134.568726,376.679688,134.13623L376.69873,134.131348C377.317413,133.635361,378.192505,133.617386,378.830078,134.088867C379.502136,134.597549,379.798767,135.462067,379.583008,136.276855C379.523712,138.835693,377.696747,141.010376,375.186523,141.510254C374.593964,141.549332,374.000549,141.449402,373.453125,141.219238C370.615601,140.795807,368.533478,138.331772,368.589844,135.463379C367.603058,130.220673,370.699738,125.07045,375.792969,123.483398C380.096985,121.742424,385.020966,122.672478,388.393555,125.863281C388.988586,126.668007,389.447296,127.565063,389.751465,128.518555C390.624359,130.303329,390.946259,132.30751,390.67627,134.275879C390.492279,135.61377,390.203827,136.935196,389.813477,138.228027C389.650787,139.263611,389.210297,140.235733,388.538574,141.040527L387.571777,142.527832C385.890137,144.966263,383.842285,147.130539,381.500488,148.944336C380.242157,150.21521,378.599609,151.035339,376.827637,151.277344C373.402527,152.077026,369.829834,151.988129,366.44873,151.019043C365.306824,150.44368,364.219666,149.765579,363.200684,148.993164C361.951172,147.678848,360.769653,146.30159,359.660645,144.866699C358.255646,142.951813,357.413727,140.682373,357.22998,138.314453C357.037994,137.107559,356.966064,135.884644,357.015137,134.663574C356.733002,132.852966,356.880615,131.001404,357.445801,129.258301C358.143616,124.323433,360.81839,119.884552,364.855469,116.961914C366.856079,115.39003,369.12616,114.19561,371.554688,113.437012C372.016205,113.033585,372.616882,112.826263,373.229004,112.858398C375.859314,112.311722,378.549286,112.107376,381.231934,112.250488z"/>
</svg>
