0
SECTION
2
HEADER
9
$INSUNITS
70
4
9
$ACADVER
1
AC1014
9
$HANDSEED
5
FFFF
0
ENDSEC
0
SECTION
2
TABLES
0
TABLE
2
VPORT
5
8
100
AcDbSymbolTable
0
ENDTAB
0
TABLE
2
LTYPE
5
5
100
AcDbSymbolTable
0
LTYPE
5
14
100
AcDbSymbolTableRecord
100
AcDbLinetypeTableRecord
2
BYBLOCK
70
0
0
LTYPE
5
15
100
AcDbSymbolTableRecord
100
AcDbLinetypeTableRecord
2
BYLAYER
70
0
0
LTYPE
5
16
100
AcDbSymbolTableRecord
100
AcDbLinetypeTableRecord
2
DASHED
70
0
3
Dashed __ __ __ __ __ __ __ __ __ __ __ __ __ _
72
65
73
2
40
0.75
49
0.5
74
0
49
-0.25
74
0
0
ENDTAB
0
TABLE
2
LAYER
5
2
100
AcDbSymbolTable
70
3
0
LAYER
5
50
100
AcDbSymbolTableRecord
100
AcDbLayerTableRecord
2
1
70
0
62
7
6
DASHED
0
LAYER
5
51
100
AcDbSymbolTableRecord
100
AcDbLayerTableRecord
2
0
70
0
62
7
6
CONTINUOUS
0
ENDTAB
0
TABLE
2
STYLE
5
3
100
AcDbSymbolTable
70
1
0
STYLE
5
11
100
AcDbSymbolTableRecord
100
AcDbTextStyleTableRecord
2
STANDARD
70
0
0
ENDTAB
0
TABLE
2
VIEW
5
6
100
AcDbSymbolTable
70
0
0
ENDTAB
0
TABLE
2
UCS
5
7
100
AcDbSymbolTable
70
0
0
ENDTAB
0
TABLE
2
APPID
5
9
100
AcDbSymbolTable
70
2
0
APPID
5
12
100
AcDbSymbolTableRecord
100
AcDbRegAppTableRecord
2
ACAD
70
0
0
ENDTAB
0
TABLE
2
DIMSTYLE
5
A
100
AcDbSymbolTable
70
1
0
ENDTAB
0
TABLE
2
BLOCK_RECORD
5
1
100
AcDbSymbolTable
70
1
0
BLOCK_RECORD
5
1F
100
AcDbSymbolTableRecord
100
AcDbBlockTableRecord
2
*MODEL_SPACE
0
BLOCK_RECORD
5
1B
100
AcDbSymbolTableRecord
100
AcDbBlockTableRecord
2
*PAPER_SPACE
0
ENDTAB
0
ENDSEC
0
SECTION
2
BLOCKS
0
BLOCK
5
20
100
AcDbEntity
100
AcDbBlockBegin
2
*MODEL_SPACE
0
ENDBLK
5
21
100
AcDbEntity
100
AcDbBlockEnd
0
BLOCK
5
1C
100
AcDbEntity
100
AcDbBlockBegin
2
*PAPER_SPACE
0
ENDBLK
5
1D
100
AcDbEntity
100
AcDbBlockEnd
0
ENDSEC
0
SECTION
2
ENTITIES
0
ARC
5
100
100
AcDbEntity
8
0
100
AcDbCircle
10
2.2593661937802514
20
17.809622333623672
30
0
40
22.81627768151537
210
0
220
0
230
1
100
AcDbArc
50
172.65895421246361
51
247.03594156054584
0
ARC
5
101
100
AcDbEntity
8
0
100
AcDbCircle
10
-18.365729922771482
20
5.1463901520599178
30
0
40
11.592406153983557
210
0
220
-0
230
-1
100
AcDbArc
50
229.31621332320771
51
294.48387266964255
0
ARC
5
102
100
AcDbEntity
8
0
100
AcDbCircle
10
15.057081654084074
20
10.732500278265601
30
0
40
8.9069092989599135
210
0
220
0
230
1
100
AcDbArc
50
148.57984084025551
51
204.28983217443496
0
ARC
5
103
100
AcDbEntity
8
0
100
AcDbCircle
10
-11.381305178367139
20
11.712576659846722
30
0
40
21.44803108572556
210
-0
220
0
230
-1
100
AcDbArc
50
321.61188489792266
51
348.69006752597971
0
ARC
5
104
100
AcDbEntity
8
0
100
AcDbCircle
10
21.956775190715184
20
20.929415959329347
30
0
40
1.5999999999918706
210
0
220
0
230
-1
100
AcDbArc
50
33.565617265854435
51
187.3410457875365
0
ARC
5
105
100
AcDbEntity
8
0
100
AcDbCircle
10
-8.8921601494676672
20
10.13253133416011
30
0
40
23.55942761344739
210
0
220
0
230
-1
100
AcDbArc
50
123.96006670806258
51
175.17754611582043
0
ARC
5
106
100
AcDbEntity
8
0
100
AcDbCircle
10
12.050710920113142
20
12.980696540549985
30
0
40
5.181285602869532
210
0
220
0
230
1
100
AcDbArc
50
107.11062896056964
51
152.46742638635459
0
ARC
5
107
100
AcDbEntity
8
0
100
AcDbCircle
10
-15.724935249998149
20
11.029064708328566
30
0
40
5.662331404898211
210
0
220
-0
230
-1
100
AcDbArc
50
-157.71737006860147
51
18.332430139634877
0
ARC
5
108
100
AcDbEntity
8
0
100
AcDbCircle
10
-11.230402154610349
20
12.776683451345466
30
0
40
10.735453224348564
210
-0
220
0
230
-1
100
AcDbArc
50
-12.234415991110739
51
60.478797798905752
0
ARC
5
109
100
AcDbEntity
8
0
100
AcDbCircle
10
-10.898058906230709
20
13.110874096293692
30
0
40
19.968584337678177
210
0
220
0
230
-1
100
AcDbArc
50
70.935045218969123
51
123.96006670806258
0
ARC
5
110
100
AcDbEntity
8
0
100
AcDbCircle
10
-6.2395812639336761
20
-2.2476155676889769
30
0
40
1.0326852294234943
210
0
220
0
230
1
100
AcDbArc
50
-112.96405843945409
51
38.388115102077265
0
ARC
5
111
100
AcDbEntity
8
0
100
AcDbCircle
10
-11.381305178367116
20
11.712576659846716
30
0
40
21.448031085725539
210
-0
220
0
230
-1
100
AcDbArc
50
-11.309932474020195
51
70.935045218969222
0
ARC
5
112
100
AcDbEntity
8
0
100
AcDbCircle
10
-11.160993135450987
20
12.899257622075988
30
0
40
10.594591450715829
210
0
220
0
230
-1
100
AcDbArc
50
60.478797798905788
51
202.28262993139847
0
ARC
5
113
100
AcDbEntity
8
0
100
AcDbCircle
10
12.049670240998097
20
12.974986904093317
30
0
40
5.1864370254075256
210
0
220
-0
230
1
100
AcDbArc
50
61.767023481799917
51
107.08108321404976
0
ARC
5
114
100
AcDbEntity
8
0
100
AcDbCircle
10
17.743664402784653
20
11.944964984521306
30
0
40
11.854416301416613
210
0
220
0
230
1
100
AcDbArc
50
204.28983217443496
51
277.83620344789568
0
ARC
5
115
100
AcDbEntity
8
0
100
AcDbCircle
10
18.042385104144934
20
9.7744514919557872
30
0
40
9.6634432575771694
210
0
220
0
230
1
100
AcDbArc
50
277.83620344789495
51
353.5367616250694
0
ARC
5
116
100
AcDbEntity
8
0
100
AcDbCircle
10
8.9190275169976889
20
10.807997582706987
30
0
40
18.845157214386496
210
-0
220
0
230
1
100
AcDbArc
50
-6.4632383749304365
51
55.459409380570953
0
ARC
5
117
100
AcDbEntity
8
0
100
AcDbCircle
10
-23.002932675007802
20
15.329397599863245
30
0
40
22.781565641959961
210
-0
220
0
230
-1
100
AcDbArc
50
294.48387266964306
51
347.76558400888877
0
ARC
5
118
100
AcDbEntity
8
0
100
AcDbCircle
10
14.978339467012589
20
13.57075165859081
30
0
40
1.6078167066260483
210
0
220
0
230
1
100
AcDbArc
50
198.22702867570803
51
289.0709447279483
0
ARC
5
119
100
AcDbEntity
8
0
100
AcDbCircle
10
-29.096222159185707
20
14.667116394214757
30
0
40
0.79999999999112792
210
0
220
0
230
1
100
AcDbArc
50
226.75908810832232
51
325.35176627301502
0
ARC
5
120
100
AcDbEntity
8
0
100
AcDbCircle
10
-13.728656556056599
20
10.540572107610428
30
0
40
18.705749135865087
210
0
220
0
230
-1
100
AcDbArc
50
175.17754611582043
51
229.31621332320771
0
ARC
5
121
100
AcDbEntity
8
0
100
AcDbCircle
10
12.768534423202581
20
14.131132320399825
30
0
40
3.8287476867313659
210
-0
220
0
230
1
100
AcDbArc
50
-20.635479080474649
51
63.060348224038677
0
ARC
5
122
100
AcDbEntity
8
0
100
AcDbCircle
10
-11.931476230261595
20
12.567401051950959
30
0
40
1.599999999999999
210
0
220
0
230
-1
100
AcDbArc
50
8.7223984021687446
51
161.77297132429206
0
ARC
5
123
100
AcDbEntity
8
0
100
AcDbCircle
10
15.030596622470346
20
13.457619752498321
30
0
40
1.4838716587848215
210
-0
220
0
230
1
100
AcDbArc
50
288.59120225737973
51
332.90654226031324
0
ARC
5
124
100
AcDbEntity
8
0
100
AcDbCircle
10
-27.811107131310585
20
212.70238033930255
30
0
40
239.24647242144474
210
0
220
-0
230
-1
100
AcDbArc
50
267.89380814687695
51
280.37289949346706
0
ARC
5
125
100
AcDbEntity
8
0
100
AcDbCircle
10
22.318760964518042
20
127.69952048446457
30
0
40
151.12975094664907
210
0
220
0
230
1
100
AcDbArc
50
254.70793906924399
51
276.77175487699918
0
ARC
5
126
100
AcDbEntity
8
0
100
AcDbCircle
10
29.365085018343251
20
9.1358368990029106
30
0
40
1.6000000000131194
210
0
220
-0
230
-1
100
AcDbArc
50
238.42008005502333
51
316.33179944830721
0
ARC
5
127
100
AcDbEntity
8
0
100
AcDbCircle
10
-56.092954897079537
20
-22.716326634592722
30
0
40
1.5999999999769023
210
0
220
0
230
-1
100
AcDbArc
50
99.661787392846819
51
260.03286693499518
0
ARC
5
128
100
AcDbEntity
8
0
100
AcDbCircle
10
14.671611947581411
20
12.192948781056128
30
0
40
26.320775246923411
210
0
220
0
230
-1
100
AcDbArc
50
2.147036169690141
51
25.122804162555148
0
ARC
5
129
100
AcDbEntity
8
0
100
AcDbCircle
10
37.05379920231217
20
22.688396485019897
30
0
40
1.5999999999278134
210
0
220
0
230
-1
100
AcDbArc
50
25.12280416255518
51
161.01568694803325
0
ARC
5
130
100
AcDbEntity
8
0
100
AcDbCircle
10
0.93767652897163167
20
36.271489098535582
30
0
40
40.899633251678189
210
-0
220
0
230
-1
100
AcDbArc
50
316.33179944830738
51
331.58239956201015
0
ARC
5
131
100
AcDbEntity
8
0
100
AcDbCircle
10
-1.0972471837400866
20
10.799072344371536
30
0
40
36.312312862636922
210
0
220
0
230
1
100
AcDbArc
50
170.47560224937612
51
206.52679098293439
0
ARC
5
132
100
AcDbEntity
8
0
100
AcDbCircle
10
-18.602582011526994
20
-12.291323281386457
30
0
40
1.6000000000113077
210
-0
220
0
230
-1
100
AcDbArc
50
-61.934795059507486
51
120.52465436261328
0
ARC
5
133
100
AcDbEntity
8
0
100
AcDbCircle
10
9.6840725109480559
20
7.8615752607828737
30
0
40
31.002279413281101
210
0
220
-0
230
-1
100
AcDbArc
50
280.37289949346706
51
349.33983606006336
0
ARC
5
134
100
AcDbEntity
8
0
100
AcDbCircle
10
10.873005613334136
20
13.646742937356303
30
0
40
15.398926579401984
210
0
220
-0
230
1
100
AcDbArc
50
55.459409380570953
51
110.89403452971635
0
ARC
5
135
100
AcDbEntity
8
0
100
AcDbCircle
10
21.261343333269487
20
11.790343357067217
30
0
40
25.549199627405944
210
0
220
0
230
1
100
AcDbArc
50
165.92869644115939
51
229.20083650583149
0
ARC
5
136
100
AcDbEntity
8
0
100
AcDbCircle
10
88.144449399410036
20
165.54857542003339
30
0
40
189.37374595865191
210
0
220
0
230
1
100
AcDbArc
50
248.71981841580939
51
260.33821260715303
0
ARC
5
137
100
AcDbEntity
8
0
100
AcDbCircle
10
6.7434424199101102
20
13.617274080832891
30
0
40
16.899341159500821
210
-0
220
0
230
-1
100
AcDbArc
50
-28.578780183174775
51
0.94338528679978628
0
ARC
5
138
100
AcDbEntity
8
0
100
AcDbCircle
10
-11.155203112173911
20
6.5126119166345333
30
0
40
25.40729104574481
210
0
220
0
230
1
100
AcDbArc
50
208.00819145368243
51
255.44542404558212
0
ARC
5
139
100
AcDbEntity
8
0
100
AcDbCircle
10
-65.337143908337353
20
75.362808214637369
30
0
40
100.93461654434081
210
-0
220
0
230
-1
100
AcDbArc
50
284.45661100883984
51
298.06520494049226
0
ARC
5
140
100
AcDbEntity
8
0
100
AcDbCircle
10
-31.275366252409796
20
118.5048772391702
30
0
40
144.98528909788595
210
0
220
-0
230
-1
100
AcDbArc
50
260.032866934997
51
267.89380814687695
0
ARC
5
141
100
AcDbEntity
8
0
100
AcDbCircle
10
-8.6764861063753909
20
11.317619242237765
30
0
40
49.68527576670148
210
-0
220
0
230
-1
100
AcDbArc
50
-10.660163939936661
51
2.147036169690141
0
ARC
5
142
100
AcDbEntity
8
0
100
AcDbCircle
10
-3.5217969686954476
20
-8.7617255214634184
30
0
40
1.6000000000000012
210
0
220
0
230
-1
100
AcDbArc
50
130.79916349416848
51
273.3050286565516
0
ARC
5
143
100
AcDbEntity
8
0
100
AcDbCircle
10
-5.1846932821084346
20
20.034164648493089
30
0
40
30.443864422600523
210
0
220
-0
230
-1
100
AcDbArc
50
273.3050286565516
51
331.5547761439193
0
ARC
5
144
100
AcDbEntity
8
0
100
AcDbCircle
10
10.557484891582483
20
14.473268239272212
30
0
40
14.514224708393728
210
0
220
0
230
1
100
AcDbArc
50
110.89403452971636
51
165.92869644115939
0
ARC
5
145
100
AcDbEntity
8
0
100
AcDbCircle
10
-428.16305651631887
20
290.46100059651792
30
0
40
485.89442879423785
210
0
220
0
230
1
100
AcDbArc
50
325.35176627301513
51
326.43438273414557
0
ARC
5
146
100
AcDbEntity
8
0
100
AcDbCircle
10
-14.139818122449135
20
30.571296162329354
30
0
40
22.632016759934274
210
0
220
0
230
1
100
AcDbArc
50
198.98431305196701
51
226.75908810834588
0
ARC
5
147
100
AcDbEntity
8
0
100
AcDbCircle
10
-34.575058824642127
20
17.611182504760755
30
0
40
11.548633584549201
210
0
220
0
230
1
100
AcDbArc
50
301.57991994497723
51
341.2317467848402
0
SPLINE
5
148
100
AcDbEntity
8
0
100
AcDbSpline
70
6
71
5
72
46
73
40
74
0
42
0.000000001
43
0.0000000001
44
0.0000000001
40
0
40
0
40
0
40
0
40
0
40
0
40
0.028571428571428571
40
0.057142857142857141
40
0.085714285714285715
40
0.11428571428571428
40
0.14285714285714285
40
0.17142857142857143
40
0.20000000000000001
40
0.22857142857142859
40
0.25714285714285717
40
0.28571428571428575
40
0.31428571428571433
40
0.34285714285714292
40
0.3714285714285715
40
0.40000000000000008
40
0.42857142857142866
40
0.45714285714285724
40
0.48571428571428582
40
0.51428571428571435
40
0.54285714285714293
40
0.57142857142857151
40
0.60000000000000009
40
0.62857142857142867
40
0.65714285714285725
40
0.68571428571428583
40
0.71428571428571441
40
0.74285714285714299
40
0.77142857142857157
40
0.80000000000000016
40
0.82857142857142874
40
0.85714285714285732
40
0.8857142857142859
40
0.91428571428571448
40
0.94285714285714306
40
0.97142857142857164
40
1
40
1
40
1
40
1
40
1
40
1
41
1
41
1
41
1
41
1
41
1
41
1
41
1
41
1
41
1
41
1
41
1
41
1
41
1
41
1
41
1
41
1
41
1
41
1
41
1
41
1
41
1
41
1
41
1
41
1
41
1
41
1
41
1
41
1
41
1
41
1
41
1
41
1
41
1
41
1
41
1
41
1
41
1
41
1
41
1
41
1
10
14.198401657609079
20
45.276451298900596
30
0
10
17.816588921124087
20
44.834759723553859
30
0
10
24.994879115966611
20
43.787055011062385
30
0
10
35.355922464833313
20
41.707696214697627
30
0
10
47.251966074678855
20
37.795388290881661
30
0
10
56.276662254460803
20
30.683638796545715
30
0
10
58.494252500772561
20
21.572197829594785
30
0
10
54.894447531752732
20
11.223595268050028
30
0
10
51.750251694135187
20
2.2461397133119934
30
0
10
56.510874014788342
20
-2.7809477456865244
30
0
10
66.533324094415747
20
-5.7080770077124097
30
0
10
76.978991505859639
20
-9.0912707526380778
30
0
10
82.590053745977485
20
-15.066856046276831
30
0
10
81.996188456345905
20
-23.144508180410259
30
0
10
76.081538048699699
20
-31.495983932589052
30
0
10
66.941865386721759
20
-37.930923451512868
30
0
10
56.427209523287544
20
-41.186620802442164
30
0
10
45.464373295534145
20
-41.44116576258844
30
0
10
34.444434718967891
20
-39.658500564146571
30
0
10
23.367065281903404
20
-37.207520532572062
30
0
10
12.080672169835854
20
-35.372048507526728
30
0
10
0.47868506760956764
20
-34.912734432300894
30
0
10
-11.280889980918145
20
-35.591420553907817
30
0
10
-22.852068075907127
20
-36.509842377035142
30
0
10
-33.776939748563507
20
-36.448408582672627
30
0
10
-43.564756048161684
20
-34.218644676120292
30
0
10
-51.761882011412872
20
-28.973671128332509
30
0
10
-58.044669264591739
20
-20.627182304127945
30
0
10
-62.224447142571591
20
-9.8557050643389115
30
0
10
-64.183171650330763
20
2.2350433563874219
30
0
10
-63.825868522266077
20
14.352178109818796
30
0
10
-61.034597165127941
20
25.278286842137852
30
0
10
-55.602940144785165
20
34.161980314687248
30
0
10
-47.240471419729488
20
40.679149763104405
30
0
10
-35.762708067779727
20
44.841477666214367
30
0
10
-21.242796748398103
20
46.876503834990253
30
0
10
-7.5980468036799298
20
47.037669203319325
30
0
10
3.2857555348766243
20
46.437204463142777
30
0
10
10.580214394094099
20
45.718142874247327
30
0
10
14.198401657609079
20
45.276451298900596
30
0
0
LWPOLYLINE
5
149
100
AcDbEntity
8
0
100
AcDbPolyline
90
4
70
1
43
0.0
10
-73.899648181489454
20
51.850198421615652
10
88.100351818510561
20
51.850198421615652
10
88.100351818510561
20
-46.149801578384356
10
-73.899648181489454
20
-46.14980157838427
0
LWPOLYLINE
5
150
100
AcDbEntity
8
0
100
AcDbPolyline
90
4
70
1
43
0.0
10
-70.899648181489454
20
48.850198421615652
10
85.100351818510546
20
48.850198421615652
10
85.100351818510546
20
-43.149801578384341
10
-70.899648181489454
20
-43.14980157838427
0
ENDSEC
0
SECTION
2
OBJECTS
0
DICTIONARY
5
C
100
AcDbDictionary
3
ACAD_GROUP
350
D
3
ACAD_MLINESTYLE
350
17
0
DICTIONARY
5
D
100
AcDbDictionary
0
DICTIONARY
5
1A
330
C
100
AcDbDictionary
0
DICTIONARY
5
17
100
AcDbDictionary
0
ENDSEC
0
EOF
