0
SECTION
2
HEADER
9
$INSUNITS
70
4
9
$ACADVER
1
AC1014
9
$HANDSEED
5
FFFF
0
ENDSEC
0
SECTION
2
TABLES
0
TABLE
2
VPORT
5
8
100
AcDbSymbolTable
0
ENDTAB
0
TABLE
2
LTYPE
5
5
100
AcDbSymbolTable
0
LTYPE
5
14
100
AcDbSymbolTableRecord
100
AcDbLinetypeTableRecord
2
BYBLOCK
70
0
0
LTYPE
5
15
100
AcDbSymbolTableRecord
100
AcDbLinetypeTableRecord
2
BYLAYER
70
0
0
LTYPE
5
16
100
AcDbSymbolTableRecord
100
AcDbLinetypeTableRecord
2
DASHED
70
0
3
Dashed __ __ __ __ __ __ __ __ __ __ __ __ __ _
72
65
73
2
40
0.75
49
0.5
74
0
49
-0.25
74
0
0
ENDTAB
0
TABLE
2
LAYER
5
2
100
AcDbSymbolTable
70
3
0
LAYER
5
50
100
AcDbSymbolTableRecord
100
AcDbLayerTableRecord
2
1
70
0
62
7
6
DASHED
0
LAYER
5
51
100
AcDbSymbolTableRecord
100
AcDbLayerTableRecord
2
0
70
0
62
7
6
CONTINUOUS
0
ENDTAB
0
TABLE
2
STYLE
5
3
100
AcDbSymbolTable
70
1
0
STYLE
5
11
100
AcDbSymbolTableRecord
100
AcDbTextStyleTableRecord
2
STANDARD
70
0
0
ENDTAB
0
TABLE
2
VIEW
5
6
100
AcDbSymbolTable
70
0
0
ENDTAB
0
TABLE
2
UCS
5
7
100
AcDbSymbolTable
70
0
0
ENDTAB
0
TABLE
2
APPID
5
9
100
AcDbSymbolTable
70
2
0
APPID
5
12
100
AcDbSymbolTableRecord
100
AcDbRegAppTableRecord
2
ACAD
70
0
0
ENDTAB
0
TABLE
2
DIMSTYLE
5
A
100
AcDbSymbolTable
70
1
0
ENDTAB
0
TABLE
2
BLOCK_RECORD
5
1
100
AcDbSymbolTable
70
1
0
BLOCK_RECORD
5
1F
100
AcDbSymbolTableRecord
100
AcDbBlockTableRecord
2
*MODEL_SPACE
0
BLOCK_RECORD
5
1B
100
AcDbSymbolTableRecord
100
AcDbBlockTableRecord
2
*PAPER_SPACE
0
ENDTAB
0
ENDSEC
0
SECTION
2
BLOCKS
0
BLOCK
5
20
100
AcDbEntity
100
AcDbBlockBegin
2
*MODEL_SPACE
0
ENDBLK
5
21
100
AcDbEntity
100
AcDbBlockEnd
0
BLOCK
5
1C
100
AcDbEntity
100
AcDbBlockBegin
2
*PAPER_SPACE
0
ENDBLK
5
1D
100
AcDbEntity
100
AcDbBlockEnd
0
ENDSEC
0
SECTION
2
ENTITIES
0
ARC
5
100
100
AcDbEntity
8
0
100
AcDbCircle
10
2.2593661937802514
20
17.809622333623672
30
0
40
22.81627768151537
210
0
220
0
230
1
100
AcDbArc
50
172.65895421246361
51
247.03594156054584
0
ARC
5
101
100
AcDbEntity
8
0
100
AcDbCircle
10
-18.374240205909722
20
11.668467229163809
30
0
40
16.942433228950655
210
0
220
-0
230
-1
100
AcDbArc
50
257.48322793760752
51
302.12549781106907
0
ARC
5
102
100
AcDbEntity
8
0
100
AcDbCircle
10
15.057081654084074
20
10.732500278265601
30
0
40
8.9069092989599135
210
0
220
0
230
1
100
AcDbArc
50
148.57984084025551
51
204.28983217443496
0
ARC
5
103
100
AcDbEntity
8
0
100
AcDbCircle
10
-18.341876248884418
20
14.489265111364846
30
0
40
28.705694489710176
210
-0
220
0
230
-1
100
AcDbArc
50
-34.249939471108846
51
8.270105284748329
0
ARC
5
104
100
AcDbEntity
8
0
100
AcDbCircle
10
21.956775190715184
20
20.929415959329347
30
0
40
1.5999999999918706
210
0
220
0
230
-1
100
AcDbArc
50
33.565617265854435
51
187.3410457875365
0
ARC
5
105
100
AcDbEntity
8
0
100
AcDbCircle
10
-12.581658635456659
20
12.971981768686698
30
0
40
21.168623040895564
210
0
220
0
230
-1
100
AcDbArc
50
114.95805297592334
51
190.85966315417019
0
ARC
5
106
100
AcDbEntity
8
0
100
AcDbCircle
10
12.050710920113142
20
12.980696540549985
30
0
40
5.181285602869532
210
0
220
0
230
1
100
AcDbArc
50
107.11062896056964
51
152.46742638635459
0
ARC
5
107
100
AcDbEntity
8
0
100
AcDbCircle
10
-15.724935249998149
20
11.029064708328566
30
0
40
5.662331404898211
210
0
220
-0
230
-1
100
AcDbArc
50
-157.71737006860147
51
18.332430139634877
0
ARC
5
108
100
AcDbEntity
8
0
100
AcDbCircle
10
-11.231709678694186
20
12.774374404449407
30
0
40
10.738106772309461
210
-0
220
0
230
-1
100
AcDbArc
50
-12.90585455074633
51
60.478797798904324
0
ARC
5
109
100
AcDbEntity
8
0
100
AcDbCircle
10
-10.261905925639462
20
6.2390514775688128
30
0
40
28.261276110068223
210
0
220
0
230
-1
100
AcDbArc
50
70.472565842957934
51
113.4619670975393
0
ARC
5
110
100
AcDbEntity
8
0
100
AcDbCircle
10
-6.2395812639336761
20
-2.2476155676889769
30
0
40
1.0326852294234943
210
0
220
0
230
1
100
AcDbArc
50
-112.96405843945409
51
34.249939471108746
0
ARC
5
111
100
AcDbEntity
8
0
100
AcDbCircle
10
-10.870260174640896
20
13.920464783367647
30
0
40
21.456176810573982
210
0
220
0
230
-1
100
AcDbArc
50
12.647353105973359
51
62.054872622978642
0
ARC
5
112
100
AcDbEntity
8
0
100
AcDbCircle
10
-11.160993135450987
20
12.899257622075988
30
0
40
10.594591450715829
210
0
220
0
230
-1
100
AcDbArc
50
60.478797798905788
51
202.28262993139847
0
ARC
5
113
100
AcDbEntity
8
0
100
AcDbCircle
10
12.049670240998097
20
12.974986904093317
30
0
40
5.1864370254075256
210
0
220
-0
230
1
100
AcDbArc
50
61.767023481799917
51
107.08108321404976
0
ARC
5
114
100
AcDbEntity
8
0
100
AcDbCircle
10
17.743664402784653
20
11.944964984521306
30
0
40
11.854416301416613
210
0
220
0
230
1
100
AcDbArc
50
204.28983217443496
51
277.83620344789568
0
ARC
5
115
100
AcDbEntity
8
0
100
AcDbCircle
10
18.042385104144934
20
9.7744514919557872
30
0
40
9.6634432575771694
210
0
220
0
230
1
100
AcDbArc
50
277.83620344789495
51
353.5367616250694
0
ARC
5
116
100
AcDbEntity
8
0
100
AcDbCircle
10
8.9190275169976889
20
10.807997582706987
30
0
40
18.845157214386496
210
-0
220
0
230
1
100
AcDbArc
50
-6.4632383749304365
51
55.459409380570953
0
ARC
5
117
100
AcDbEntity
8
0
100
AcDbCircle
10
-22.55540864765543
20
15.369065472912338
30
0
40
22.355274244652762
210
-0
220
0
230
-1
100
AcDbArc
50
306.16058820199419
51
347.09414544924954
0
ARC
5
118
100
AcDbEntity
8
0
100
AcDbCircle
10
14.978339467012589
20
13.57075165859081
30
0
40
1.6078167066260483
210
0
220
0
230
1
100
AcDbArc
50
198.22702867570803
51
289.0709447279483
0
ARC
5
119
100
AcDbEntity
8
0
100
AcDbCircle
10
-29.096222159185707
20
14.667116394214757
30
0
40
0.79999999999112792
210
0
220
0
230
1
100
AcDbArc
50
226.75908810832232
51
325.35176627301502
0
ARC
5
120
100
AcDbEntity
8
0
100
AcDbCircle
10
-17.443592488126583
20
10.446869536554198
30
0
40
15.994655443346682
210
0
220
-0
230
-1
100
AcDbArc
50
185.24858265807444
51
253.27654653116463
0
ARC
5
121
100
AcDbEntity
8
0
100
AcDbCircle
10
12.768534423202581
20
14.131132320399825
30
0
40
3.8287476867313659
210
-0
220
0
230
1
100
AcDbArc
50
-20.635479080474649
51
63.060348224038677
0
ARC
5
122
100
AcDbEntity
8
0
100
AcDbCircle
10
-11.931476230261595
20
12.567401051950959
30
0
40
1.599999999999999
210
0
220
0
230
-1
100
AcDbArc
50
8.7223984021687446
51
161.77297132429206
0
ARC
5
123
100
AcDbEntity
8
0
100
AcDbCircle
10
15.030596622470346
20
13.457619752498321
30
0
40
1.4838716587848215
210
-0
220
0
230
1
100
AcDbArc
50
288.59120225737973
51
332.90654226031324
0
ARC
5
124
100
AcDbEntity
8
0
100
AcDbCircle
10
-27.811107131310585
20
212.70238033930255
30
0
40
239.24647242144474
210
0
220
-0
230
-1
100
AcDbArc
50
267.89380814687695
51
280.37289949346706
0
ARC
5
125
100
AcDbEntity
8
0
100
AcDbCircle
10
22.318760964518042
20
127.69952048446457
30
0
40
151.12975094664907
210
0
220
0
230
1
100
AcDbArc
50
254.70793906924399
51
276.77175487699918
0
ARC
5
126
100
AcDbEntity
8
0
100
AcDbCircle
10
29.365085018343251
20
9.1358368990029106
30
0
40
1.6000000000131194
210
0
220
-0
230
-1
100
AcDbArc
50
238.42008005502333
51
316.33179944830721
0
ARC
5
127
100
AcDbEntity
8
0
100
AcDbCircle
10
-56.092954897079537
20
-22.716326634592722
30
0
40
1.5999999999769023
210
0
220
0
230
-1
100
AcDbArc
50
99.661787392846819
51
260.03286693499518
0
ARC
5
128
100
AcDbEntity
8
0
100
AcDbCircle
10
25.323715627877554
20
13.498459025145408
30
0
40
16.501335885654623
210
-0
220
0
230
-1
100
AcDbArc
50
-0.39441960387534664
51
38.076934759521748
0
ARC
5
129
100
AcDbEntity
8
0
100
AcDbCircle
10
37.05379920231217
20
22.688396485019897
30
0
40
1.5999999999278456
210
0
220
0
230
-1
100
AcDbArc
50
38.076934759521698
51
161.01568694803325
0
ARC
5
130
100
AcDbEntity
8
0
100
AcDbCircle
10
0.93767652897163167
20
36.271489098535582
30
0
40
40.899633251678189
210
-0
220
0
230
-1
100
AcDbArc
50
316.33179944830738
51
331.58239956201015
0
ARC
5
131
100
AcDbEntity
8
0
100
AcDbCircle
10
-1.0972471837400866
20
10.799072344371536
30
0
40
36.312312862636922
210
0
220
0
230
1
100
AcDbArc
50
170.47560224937612
51
206.52679098293439
0
ARC
5
132
100
AcDbEntity
8
0
100
AcDbCircle
10
-18.602582011526994
20
-12.291323281386457
30
0
40
1.6000000000113077
210
-0
220
0
230
-1
100
AcDbArc
50
-61.934795059507486
51
120.52465436261328
0
ARC
5
133
100
AcDbEntity
8
0
100
AcDbCircle
10
9.6840725109480559
20
7.8615752607828737
30
0
40
31.002279413281101
210
0
220
-0
230
-1
100
AcDbArc
50
280.37289949346706
51
337.9339792321905
0
ARC
5
134
100
AcDbEntity
8
0
100
AcDbCircle
10
10.873005613334136
20
13.646742937356303
30
0
40
15.398926579401984
210
0
220
-0
230
1
100
AcDbArc
50
55.459409380570953
51
110.89403452971635
0
ARC
5
135
100
AcDbEntity
8
0
100
AcDbCircle
10
21.261343333269487
20
11.790343357067217
30
0
40
25.549199627405944
210
0
220
0
230
1
100
AcDbArc
50
165.92869644115939
51
229.20083650583149
0
ARC
5
136
100
AcDbEntity
8
0
100
AcDbCircle
10
88.144449399410036
20
165.54857542003339
30
0
40
189.37374595865191
210
0
220
0
230
1
100
AcDbArc
50
248.71981841580939
51
260.33821260715303
0
ARC
5
137
100
AcDbEntity
8
0
100
AcDbCircle
10
6.7434424199101102
20
13.617274080832891
30
0
40
16.899341159500821
210
-0
220
0
230
-1
100
AcDbArc
50
-28.578780183174775
51
0.94338528679978628
0
ARC
5
138
100
AcDbEntity
8
0
100
AcDbCircle
10
-11.155203112173911
20
6.5126119166345333
30
0
40
25.40729104574481
210
0
220
0
230
1
100
AcDbArc
50
208.00819145368243
51
255.44542404558212
0
ARC
5
139
100
AcDbEntity
8
0
100
AcDbCircle
10
-65.337143908337353
20
75.362808214637369
30
0
40
100.93461654434081
210
-0
220
0
230
-1
100
AcDbArc
50
284.45661100883984
51
298.06520494049226
0
ARC
5
140
100
AcDbEntity
8
0
100
AcDbCircle
10
-31.275366252409796
20
118.5048772391702
30
0
40
144.98528909788595
210
0
220
-0
230
-1
100
AcDbArc
50
260.032866934997
51
267.89380814687695
0
ARC
5
141
100
AcDbEntity
8
0
100
AcDbCircle
10
-4.7319620588295939
20
13.705363195881514
30
0
40
46.5577257311285
210
-0
220
0
230
-1
100
AcDbArc
50
337.93397923219038
51
359.60558039612465
0
ARC
5
142
100
AcDbEntity
8
0
100
AcDbCircle
10
-3.5217969686954476
20
-8.7617255214634184
30
0
40
1.6000000000000012
210
0
220
0
230
-1
100
AcDbArc
50
130.79916349416848
51
273.3050286565516
0
ARC
5
143
100
AcDbEntity
8
0
100
AcDbCircle
10
-5.1846932821084346
20
20.034164648493089
30
0
40
30.443864422600523
210
0
220
-0
230
-1
100
AcDbArc
50
273.3050286565516
51
331.5547761439193
0
ARC
5
144
100
AcDbEntity
8
0
100
AcDbCircle
10
10.557484891582483
20
14.473268239272212
30
0
40
14.514224708393728
210
0
220
0
230
1
100
AcDbArc
50
110.89403452971636
51
165.92869644115939
0
ARC
5
145
100
AcDbEntity
8
0
100
AcDbCircle
10
-428.16305651631887
20
290.46100059651792
30
0
40
485.89442879423785
210
0
220
0
230
1
100
AcDbArc
50
325.35176627301513
51
326.43438273414557
0
ARC
5
146
100
AcDbEntity
8
0
100
AcDbCircle
10
-14.139818122449135
20
30.571296162329354
30
0
40
22.632016759934274
210
0
220
0
230
1
100
AcDbArc
50
198.98431305196701
51
226.75908810834588
0
ARC
5
147
100
AcDbEntity
8
0
100
AcDbCircle
10
-34.575058824642127
20
17.611182504760755
30
0
40
11.548633584549201
210
0
220
0
230
1
100
AcDbArc
50
301.57991994497723
51
341.2317467848402
0
LWPOLYLINE
5
148
100
AcDbEntity
8
0
100
AcDbPolyline
90
16
70
1
43
0.0
10
36.251203183914541
20
-8.1177975714542683
42
0.030443069006535033
10
57.724282436506122
20
-13.134192503316154
42
-0.84186254460771415
10
57.77532497500053
20
-32.289630921597507
42
-0.034313283944539023
10
36.90224677364742
20
-34.496984577431732
42
-0.054504183886338799
10
-16.728192746384313
20
-30.621325044365364
42
-0.25657535128715958
10
-45.94071297874919
20
-6.8356784886723503
42
-0.09484305113693503
10
-49.944474514493109
20
13.32896899555999
42
-0.16945760547324271
10
-44.705226434692818
20
28.682909422473376
42
-0.47024090204924007
10
-29.738505943256254
20
29.088787768662201
42
0.38557297606702845
10
-27.604652162157159
20
28.840168753243049
42
-0.31258803739262336
10
-16.534142481251703
20
28.996235564924522
42
0.42531567037173518
10
-14.280911076475265
20
29.482251213339865
42
-0.13825102325492444
10
-2.4504412339882542
20
40.327083767576603
42
-0.19473245948141657
10
24.842197945610796
20
39.570910116472746
42
-0.34116450492947958
10
41.416569125950474
20
7.8366385054076693
42
-0.15509394219929995
10
35.510549117711307
20
-5.5250430933819983
42
0.54771824252605406
0
ENDSEC
0
SECTION
2
OBJECTS
0
DICTIONARY
5
C
100
AcDbDictionary
3
ACAD_GROUP
350
D
3
ACAD_MLINESTYLE
350
17
0
DICTIONARY
5
D
100
AcDbDictionary
0
DICTIONARY
5
1A
330
C
100
AcDbDictionary
0
DICTIONARY
5
17
100
AcDbDictionary
0
ENDSEC
0
EOF
