0
SECTION
2
HEADER
9
$INSUNITS
70
4
9
$ACADVER
1
AC1014
9
$HANDSEED
5
FFFF
0
ENDSEC
0
SECTION
2
TABLES
0
TABLE
2
VPORT
5
8
100
AcDbSymbolTable
0
ENDTAB
0
TABLE
2
LTYPE
5
5
100
AcDbSymbolTable
0
LTYPE
5
14
100
AcDbSymbolTableRecord
100
AcDbLinetypeTableRecord
2
BYBLOCK
70
0
0
LTYPE
5
15
100
AcDbSymbolTableRecord
100
AcDbLinetypeTableRecord
2
BYLAYER
70
0
0
LTYPE
5
16
100
AcDbSymbolTableRecord
100
AcDbLinetypeTableRecord
2
DASHED
70
0
3
Dashed __ __ __ __ __ __ __ __ __ __ __ __ __ _
72
65
73
2
40
0.75
49
0.5
74
0
49
-0.25
74
0
0
ENDTAB
0
TABLE
2
LAYER
5
2
100
AcDbSymbolTable
70
3
0
LAYER
5
50
100
AcDbSymbolTableRecord
100
AcDbLayerTableRecord
2
1
70
0
62
7
6
DASHED
0
LAYER
5
51
100
AcDbSymbolTableRecord
100
AcDbLayerTableRecord
2
0
70
0
62
7
6
CONTINUOUS
0
ENDTAB
0
TABLE
2
STYLE
5
3
100
AcDbSymbolTable
70
1
0
STYLE
5
11
100
AcDbSymbolTableRecord
100
AcDbTextStyleTableRecord
2
STANDARD
70
0
0
ENDTAB
0
TABLE
2
VIEW
5
6
100
AcDbSymbolTable
70
0
0
ENDTAB
0
TABLE
2
UCS
5
7
100
AcDbSymbolTable
70
0
0
ENDTAB
0
TABLE
2
APPID
5
9
100
AcDbSymbolTable
70
2
0
APPID
5
12
100
AcDbSymbolTableRecord
100
AcDbRegAppTableRecord
2
ACAD
70
0
0
ENDTAB
0
TABLE
2
DIMSTYLE
5
A
100
AcDbSymbolTable
70
1
0
ENDTAB
0
TABLE
2
BLOCK_RECORD
5
1
100
AcDbSymbolTable
70
1
0
BLOCK_RECORD
5
1F
100
AcDbSymbolTableRecord
100
AcDbBlockTableRecord
2
*MODEL_SPACE
0
BLOCK_RECORD
5
1B
100
AcDbSymbolTableRecord
100
AcDbBlockTableRecord
2
*PAPER_SPACE
0
ENDTAB
0
ENDSEC
0
SECTION
2
BLOCKS
0
BLOCK
5
20
100
AcDbEntity
100
AcDbBlockBegin
2
*MODEL_SPACE
0
ENDBLK
5
21
100
AcDbEntity
100
AcDbBlockEnd
0
BLOCK
5
1C
100
AcDbEntity
100
AcDbBlockBegin
2
*PAPER_SPACE
0
ENDBLK
5
1D
100
AcDbEntity
100
AcDbBlockEnd
0
ENDSEC
0
SECTION
2
ENTITIES
0
ARC
5
100
100
AcDbEntity
8
0
100
AcDbCircle
10
3.1173438419495927
20
17.267423901543324
30
0
40
23.740119003192127
210
0
220
0
230
1
100
AcDbArc
50
171.69088559670394
51
257.77227741516282
0
ARC
5
101
100
AcDbEntity
8
0
100
AcDbCircle
10
-18.365729922771482
20
5.1463901520599178
30
0
40
11.592406153983557
210
0
220
-0
230
-1
100
AcDbArc
50
229.31621332320771
51
294.48387266964255
0
ARC
5
102
100
AcDbEntity
8
0
100
AcDbCircle
10
15.085566527257718
20
10.751343867854832
30
0
40
8.9448421806311487
210
0
220
0
230
1
100
AcDbArc
50
143.84948361284938
51
204.29348725351153
0
ARC
5
103
100
AcDbEntity
8
0
100
AcDbCircle
10
-14.344272661061741
20
12.283212681519487
30
0
40
24.415099684269016
210
-0
220
0
230
-1
100
AcDbArc
50
311.74202360480115
51
349.24976041066822
0
ARC
5
104
100
AcDbEntity
8
0
100
AcDbCircle
10
21.956775190715184
20
20.929415959329347
30
0
40
1.5999999999918706
210
0
220
0
230
-1
100
AcDbArc
50
33.565617265854435
51
188.30911440329643
0
ARC
5
105
100
AcDbEntity
8
0
100
AcDbCircle
10
-8.8921601494676672
20
10.13253133416011
30
0
40
23.55942761344739
210
0
220
0
230
-1
100
AcDbArc
50
123.96006670806258
51
175.17754611582043
0
ARC
5
106
100
AcDbEntity
8
0
100
AcDbCircle
10
12.077540106146827
20
12.948899445873165
30
0
40
5.2195940723059229
210
0
220
0
230
1
100
AcDbArc
50
107.28847403475841
51
143.84948361284935
0
ARC
5
107
100
AcDbEntity
8
0
100
AcDbCircle
10
-15.662191567431659
20
11.124183282682608
30
0
40
5.7028053294852441
210
0
220
-0
230
-1
100
AcDbArc
50
-157.97906102577153
51
20.074180782405129
0
ARC
5
108
100
AcDbEntity
8
0
100
AcDbCircle
10
-11.249635828791263
20
12.780854013666511
30
0
40
10.755133869982568
210
-0
220
0
230
-1
100
AcDbArc
50
-12.234415991111657
51
60.443143043683207
0
ARC
5
109
100
AcDbEntity
8
0
100
AcDbCircle
10
-10.909514139477603
20
13.127882736891523
30
0
40
19.948077845444516
210
0
220
0
230
-1
100
AcDbArc
50
69.985764400127081
51
123.96006670806257
0
ARC
5
110
100
AcDbEntity
8
0
100
AcDbCircle
10
-11.419457750798411
20
11.727906549158785
30
0
40
21.438036171353176
210
-0
220
0
230
-1
100
AcDbArc
50
-10.750239589331692
51
69.985764400127081
0
ARC
5
111
100
AcDbEntity
8
0
100
AcDbCircle
10
-11.155450673144427
20
12.946940939448911
30
0
40
10.564200084444034
210
0
220
0
230
-1
100
AcDbArc
50
60.443143043683008
51
202.02093897422753
0
ARC
5
112
100
AcDbEntity
8
0
100
AcDbCircle
10
12.056486762903782
20
13.016541872322485
30
0
40
5.1487509984196151
210
0
220
-0
230
1
100
AcDbArc
50
61.546273217070926
51
107.28847403475838
0
ARC
5
113
100
AcDbEntity
8
0
100
AcDbCircle
10
17.742862012825732
20
11.950795173806936
30
0
40
11.860301446848114
210
0
220
0
230
1
100
AcDbArc
50
204.29348725351153
51
277.83620344789495
0
ARC
5
114
100
AcDbEntity
8
0
100
AcDbCircle
10
18.042385104144934
20
9.7744514919557872
30
0
40
9.6634432575771694
210
0
220
0
230
1
100
AcDbArc
50
277.83620344789495
51
353.5367616250694
0
ARC
5
115
100
AcDbEntity
8
0
100
AcDbCircle
10
9.6029974168613901
20
10.730513563315707
30
0
40
18.156812390057446
210
-0
220
0
230
1
100
AcDbArc
50
-6.4632383749302837
51
52.093765096611179
0
ARC
5
116
100
AcDbEntity
8
0
100
AcDbCircle
10
-23.002932675007802
20
15.329397599863245
30
0
40
22.781565641959961
210
-0
220
0
230
-1
100
AcDbArc
50
294.48387266964306
51
347.76558400888877
0
ARC
5
117
100
AcDbEntity
8
0
100
AcDbCircle
10
14.835159161113744
20
13.480427047893627
30
0
40
1.5715248453739448
210
0
220
0
230
1
100
AcDbArc
50
197.39235205420417
51
342.12355376116079
0
ARC
5
118
100
AcDbEntity
8
0
100
AcDbCircle
10
-29.096222159185707
20
14.667116394214757
30
0
40
0.79999999999112792
210
0
220
0
230
1
100
AcDbArc
50
226.75908810832232
51
325.35176627301502
0
ARC
5
119
100
AcDbEntity
8
0
100
AcDbCircle
10
-13.728656556056599
20
10.540572107610428
30
0
40
18.705749135865087
210
0
220
0
230
-1
100
AcDbArc
50
175.17754611582043
51
229.31621332320771
0
ARC
5
120
100
AcDbEntity
8
0
100
AcDbCircle
10
12.683884395905698
20
14.174293364713213
30
0
40
3.8319304684953233
210
-0
220
0
230
1
100
AcDbArc
50
-17.876446238838081
51
61.546273217069
0
ARC
5
121
100
AcDbEntity
8
0
100
AcDbCircle
10
-11.808635681513646
20
12.532415722934756
30
0
40
1.5999999999989201
210
0
220
0
230
-1
100
AcDbArc
50
20.074180782406039
51
162.60764794579677
0
ARC
5
122
100
AcDbEntity
8
0
100
AcDbCircle
10
-25.845583931689941
20
212.76177066397872
30
0
40
239.54855479869153
210
0
220
-0
230
-1
100
AcDbArc
50
267.42399986490278
51
279.41429810516848
0
ARC
5
123
100
AcDbEntity
8
0
100
AcDbCircle
10
17.746250134308692
20
110.82910820084841
30
0
40
133.65070733158953
210
0
220
0
230
1
100
AcDbArc
50
254.69131589845591
51
277.0270998370853
0
ARC
5
124
100
AcDbEntity
8
0
100
AcDbCircle
10
29.365085018343251
20
9.1358368990029106
30
0
40
1.6000000000131194
210
0
220
-0
230
-1
100
AcDbArc
50
238.42008005502333
51
316.33179944830721
0
ARC
5
125
100
AcDbEntity
8
0
100
AcDbCircle
10
-56.092954897079537
20
-22.716326634592722
30
0
40
1.5999999999769023
210
0
220
0
230
-1
100
AcDbArc
50
99.661787392846819
51
259.56305344360868
0
ARC
5
126
100
AcDbEntity
8
0
100
AcDbCircle
10
14.859334563537326
20
12.280975606861551
30
0
40
26.113438557930095
210
0
220
0
230
-1
100
AcDbArc
50
0.63001995196138338
51
25.122804162555148
0
ARC
5
127
100
AcDbEntity
8
0
100
AcDbCircle
10
37.05379920231217
20
22.688396485019897
30
0
40
1.5999999999278134
210
0
220
0
230
-1
100
AcDbArc
50
25.12280416255518
51
161.01568694803325
0
ARC
5
128
100
AcDbEntity
8
0
100
AcDbCircle
10
0.93767652897163167
20
36.271489098535582
30
0
40
40.899633251678189
210
-0
220
0
230
-1
100
AcDbArc
50
316.33179944830738
51
331.58239956201015
0
ARC
5
129
100
AcDbEntity
8
0
100
AcDbCircle
10
-1.0972471837400866
20
10.799072344371536
30
0
40
36.312312862636922
210
0
220
0
230
1
100
AcDbArc
50
170.47560224937612
51
206.52679098293439
0
ARC
5
130
100
AcDbEntity
8
0
100
AcDbCircle
10
-18.739401378357645
20
-12.366884713928741
30
0
40
1.6000000000113279
210
-0
220
0
230
-1
100
AcDbArc
50
-58.289763242004177
51
111.31082006369473
0
ARC
5
131
100
AcDbEntity
8
0
100
AcDbCircle
10
8.0009011576383067
20
8.6279243768153648
30
0
40
32.627768619793841
210
0
220
-0
230
-1
100
AcDbArc
50
279.41428720149457
51
348.38122376809019
0
ARC
5
132
100
AcDbEntity
8
0
100
AcDbCircle
10
11.349956222158008
20
12.974077258634829
30
0
40
15.313321028657196
210
0
220
-0
230
1
100
AcDbArc
50
52.093765055590296
51
107.5283902047357
0
ARC
5
133
100
AcDbEntity
8
0
100
AcDbCircle
10
18.310962332262978
20
10.91060925556976
30
0
40
23.011382889439886
210
0
220
0
230
1
100
AcDbArc
50
169.79294271137277
51
233.06508277604479
0
ARC
5
134
100
AcDbEntity
8
0
100
AcDbCircle
10
88.144449399410036
20
165.54857542003339
30
0
40
189.37374595865194
210
0
220
0
230
1
100
AcDbArc
50
248.68917993630541
51
260.33821260715303
0
ARC
5
135
100
AcDbEntity
8
0
100
AcDbCircle
10
6.7434424199101102
20
13.617274080832891
30
0
40
16.899341159500821
210
-0
220
0
230
-1
100
AcDbArc
50
-28.578780183174775
51
0.94338528679978628
0
ARC
5
136
100
AcDbEntity
8
0
100
AcDbCircle
10
-11.155203112173911
20
6.5126119166345333
30
0
40
25.40729104574481
210
0
220
0
230
1
100
AcDbArc
50
208.00819145368243
51
255.44542404558212
0
ARC
5
137
100
AcDbEntity
8
0
100
AcDbCircle
10
-70.681075864702606
20
71.700253962965533
30
0
40
100.41913455281741
210
-0
220
0
230
-1
100
AcDbArc
50
291.36541035270994
51
301.71023675799586
0
ARC
5
138
100
AcDbEntity
8
0
100
AcDbCircle
10
-30.088243047224982
20
118.45949188386477
30
0
40
145.15088565642421
210
0
220
-0
230
-1
100
AcDbArc
50
259.56305842433846
51
267.42399963621835
0
ARC
5
139
100
AcDbEntity
8
0
100
AcDbCircle
10
-8.5156861360519773
20
12.023935330772371
30
0
40
49.489872469238122
210
-0
220
0
230
-1
100
AcDbArc
50
-11.618777864201808
51
0.63001995196196192
0
ARC
5
140
100
AcDbEntity
8
0
100
AcDbCircle
10
-3.5217969686954476
20
-8.7617255214634184
30
0
40
1.6000000000015346
210
0
220
0
230
-1
100
AcDbArc
50
126.93499932311762
51
273.3050286565516
0
ARC
5
141
100
AcDbEntity
8
0
100
AcDbCircle
10
-5.1846932821084346
20
20.034164648493089
30
0
40
30.443864422600523
210
0
220
-0
230
-1
100
AcDbArc
50
273.3050286565516
51
331.5547761439193
0
ARC
5
142
100
AcDbEntity
8
0
100
AcDbCircle
10
11.621249900169255
20
12.115127787053691
30
0
40
16.214095392445593
210
0
220
0
230
1
100
AcDbArc
50
107.52839004851234
51
169.7929378270475
0
ARC
5
143
100
AcDbEntity
8
0
100
AcDbCircle
10
-428.16305651631887
20
290.46100059651792
30
0
40
485.89442879423785
210
0
220
0
230
1
100
AcDbArc
50
325.35176627301513
51
326.43438273414557
0
ARC
5
144
100
AcDbEntity
8
0
100
AcDbCircle
10
-14.139818122449135
20
30.571296162329354
30
0
40
22.632016759934274
210
0
220
0
230
1
100
AcDbArc
50
198.98431305196701
51
226.75908810834588
0
ARC
5
145
100
AcDbEntity
8
0
100
AcDbCircle
10
-34.575058824642127
20
17.611182504760755
30
0
40
11.548633584549201
210
0
220
0
230
1
100
AcDbArc
50
301.57991994497723
51
341.2317467848402
0
SPLINE
5
146
100
AcDbEntity
8
0
100
AcDbSpline
70
6
71
5
72
46
73
40
74
0
42
0.000000001
43
0.0000000001
44
0.0000000001
40
0
40
0
40
0
40
0
40
0
40
0
40
0.028571428571428571
40
0.057142857142857141
40
0.085714285714285715
40
0.11428571428571428
40
0.14285714285714285
40
0.17142857142857143
40
0.20000000000000001
40
0.22857142857142859
40
0.25714285714285717
40
0.28571428571428575
40
0.31428571428571433
40
0.34285714285714292
40
0.3714285714285715
40
0.40000000000000008
40
0.42857142857142866
40
0.45714285714285724
40
0.48571428571428582
40
0.51428571428571435
40
0.54285714285714293
40
0.57142857142857151
40
0.60000000000000009
40
0.62857142857142867
40
0.65714285714285725
40
0.68571428571428583
40
0.71428571428571441
40
0.74285714285714299
40
0.77142857142857157
40
0.80000000000000016
40
0.82857142857142874
40
0.85714285714285732
40
0.8857142857142859
40
0.91428571428571448
40
0.94285714285714306
40
0.97142857142857164
40
1
40
1
40
1
40
1
40
1
40
1
41
1
41
1
41
1
41
1
41
1
41
1
41
1
41
1
41
1
41
1
41
1
41
1
41
1
41
1
41
1
41
1
41
1
41
1
41
1
41
1
41
1
41
1
41
1
41
1
41
1
41
1
41
1
41
1
41
1
41
1
41
1
41
1
41
1
41
1
41
1
41
1
41
1
41
1
41
1
41
1
10
14.198401657609079
20
45.276451298900596
30
0
10
17.816588921124087
20
44.834759723553859
30
0
10
24.994879115966611
20
43.787055011062385
30
0
10
35.355922464833313
20
41.707696214697627
30
0
10
47.251966074678855
20
37.795388290881661
30
0
10
56.276662254460803
20
30.683638796545715
30
0
10
58.494252500772561
20
21.572197829594785
30
0
10
54.894447531752732
20
11.223595268050028
30
0
10
51.750251694135187
20
2.2461397133119934
30
0
10
56.510874014788342
20
-2.7809477456865244
30
0
10
66.533324094415747
20
-5.7080770077124097
30
0
10
76.978991505859639
20
-9.0912707526380778
30
0
10
82.590053745977485
20
-15.066856046276831
30
0
10
81.996188456345905
20
-23.144508180410259
30
0
10
76.081538048699699
20
-31.495983932589052
30
0
10
66.941865386721759
20
-37.930923451512868
30
0
10
56.427209523287544
20
-41.186620802442164
30
0
10
45.464373295534145
20
-41.44116576258844
30
0
10
34.444434718967891
20
-39.658500564146571
30
0
10
23.367065281903404
20
-37.207520532572062
30
0
10
12.080672169835854
20
-35.372048507526728
30
0
10
0.47868506760956764
20
-34.912734432300894
30
0
10
-11.280889980918145
20
-35.591420553907817
30
0
10
-22.852068075907127
20
-36.509842377035142
30
0
10
-33.776939748563507
20
-36.448408582672627
30
0
10
-43.564756048161684
20
-34.218644676120292
30
0
10
-51.761882011412872
20
-28.973671128332509
30
0
10
-58.044669264591739
20
-20.627182304127945
30
0
10
-62.224447142571591
20
-9.8557050643389115
30
0
10
-64.183171650330763
20
2.2350433563874219
30
0
10
-63.825868522266077
20
14.352178109818796
30
0
10
-61.034597165127941
20
25.278286842137852
30
0
10
-55.602940144785165
20
34.161980314687248
30
0
10
-47.240471419729488
20
40.679149763104405
30
0
10
-35.762708067779727
20
44.841477666214367
30
0
10
-21.242796748398103
20
46.876503834990253
30
0
10
-7.5980468036799298
20
47.037669203319325
30
0
10
3.2857555348766243
20
46.437204463142777
30
0
10
10.580214394094099
20
45.718142874247327
30
0
10
14.198401657609079
20
45.276451298900596
30
0
0
LWPOLYLINE
5
147
100
AcDbEntity
8
0
100
AcDbPolyline
90
4
70
1
43
0.0
10
-72.242193799648206
20
52.001297772000598
10
89.757806200351794
20
52.001297772000598
10
89.757806200351794
20
-45.998702227999416
10
-72.242193799648206
20
-45.998702227999324
0
LWPOLYLINE
5
148
100
AcDbEntity
8
0
100
AcDbPolyline
90
4
70
1
43
0.0
10
-68.242193799648192
20
48.001297772000591
10
85.75780620035178
20
48.001297772000591
10
85.75780620035178
20
-41.998702227952684
10
-68.242193799648192
20
-41.998702227952613
0
LINE
5
149
100
AcDbEntity
8
1
100
AcDbLine
10
-68.242193799648192
20
3.0012977720239875
30
0
11
85.75780620035178
21
3.0012977720240031
31
0
0
CIRCLE
5
150
100
AcDbEntity
8
0
100
AcDbCircle
10
65.75780620035178
20
3.0012977720240008
30
0
40
1.5499999999999992
210
0
220
0
230
1
0
CIRCLE
5
151
100
AcDbEntity
8
0
100
AcDbCircle
10
65.75780620035178
20
3.001297772023952
30
0
40
4.5499999999999998
210
0
220
0
230
1
0
ENDSEC
0
SECTION
2
OBJECTS
0
DICTIONARY
5
C
100
AcDbDictionary
3
ACAD_GROUP
350
D
3
ACAD_MLINESTYLE
350
17
0
DICTIONARY
5
D
100
AcDbDictionary
0
DICTIONARY
5
1A
330
C
100
AcDbDictionary
0
DICTIONARY
5
17
100
AcDbDictionary
0
ENDSEC
0
EOF
