  0
SECTION
  2
HEADER
  9
$ACADVER
  1
AC1009
  0
ENDSEC
  0
SECTION
  2
TABLES
  0
TABLE
  2
LAYER
  70
1
  0
LAYER
  2
Layer_0
  70
0
  62
7
  6
CONTINUOUS
  0
ENDTAB
  0
ENDSEC
  0
SECTION
  2
ENTITIES
  0
POLYLINE
  5
90
  8
Layer_0
  62
7
  70
1
  66
1
  10
0
  20
0
  30
0
  0
VERTEX
  5
90
  8
Layer_0
  10
499.73819
  20
264.4422
  42
0.089121808
  0
VERTEX
  5
91
  8
Layer_0
  10
503.92743
  20
266.67429
  42
0.38567233
  0
VERTEX
  5
92
  8
Layer_0
  10
505.22113
  20
279.35529
  42
0.20867714
  0
VERTEX
  5
93
  8
Layer_0
  10
494.23242
  20
285.0574
  42
0.00092910799
  0
VERTEX
  5
94
  8
Layer_0
  10
484.16168
  20
286.67435
  0
VERTEX
  5
95
  8
Layer_0
  10
483.84753
  20
286.72833
  42
-0.061081288
  0
VERTEX
  5
96
  8
Layer_0
  10
476.85486
  20
288.42462
  0
VERTEX
  5
97
  8
Layer_0
  10
476.83234
  20
288.58795
  42
-0.0096741875
  0
VERTEX
  5
98
  8
Layer_0
  10
480.14639
  20
292.9295
  0
VERTEX
  5
99
  8
Layer_0
  10
480.32474
  20
293.19336
  42
0.15344802
  0
VERTEX
  5
9a
  8
Layer_0
  10
484.10876
  20
309.37598
  42
0.20359298
  0
VERTEX
  5
9b
  8
Layer_0
  10
474.33102
  20
330.30161
  42
0.20359841
  0
VERTEX
  5
9c
  8
Layer_0
  10
452.47433
  20
337.76947
  42
0.26016394
  0
VERTEX
  5
9d
  8
Layer_0
  10
428.95517
  20
325.71753
  0
VERTEX
  5
9e
  8
Layer_0
  10
428.73691
  20
325.64056
  42
-0.034474679
  0
VERTEX
  5
9f
  8
Layer_0
  10
425.39816
  20
326.80341
  0
VERTEX
  5
a0
  8
Layer_0
  10
425.08987
  20
326.88098
  42
0.26674142
  0
VERTEX
  5
a1
  8
Layer_0
  10
414.02899
  20
323.01956
  0
VERTEX
  5
a2
  8
Layer_0
  10
413.82071
  20
322.9653
  42
-0.033468147
  0
VERTEX
  5
a3
  8
Layer_0
  10
410.48425
  20
325.28006
  0
VERTEX
  5
a4
  8
Layer_0
  10
410.20657
  20
325.43488
  42
0.40575985
  0
VERTEX
  5
a5
  8
Layer_0
  10
396.38907
  20
321.49304
  42
0.17048438
  0
VERTEX
  5
a6
  8
Layer_0
  10
395.40085
  20
286.53903
  42
0.19404961
  0
VERTEX
  5
a7
  8
Layer_0
  10
417.75684
  20
266.8103
  42
0.090249222
  0
VERTEX
  5
a8
  8
Layer_0
  10
437.18008
  20
263.82834
  0
VERTEX
  5
a9
  8
Layer_0
  10
440.6716
  20
263.50665
  0
VERTEX
  5
aa
  8
Layer_0
  10
440.98898
  20
263.47736
  0
VERTEX
  5
ab
  8
Layer_0
  10
441.3064
  20
263.44812
  42
0.00022101782
  0
VERTEX
  5
ac
  8
Layer_0
  10
449.8735
  20
262.63132
  0
VERTEX
  5
ad
  8
Layer_0
  10
450.19135
  20
262.60785
  42
0.035898666
  0
VERTEX
  5
ae
  8
Layer_0
  10
486.80957
  20
263.33124
  0
VERTEX
  5
af
  8
Layer_0
  10
487.12805
  20
263.34479
  42
-0.00036637926
  0
VERTEX
  5
b0
  8
Layer_0
  10
496.04535
  20
263.65237
  0
VERTEX
  5
b1
  8
Layer_0
  10
496.36203
  20
263.68555
  42
0.053914363
  0
SEQEND
  0
POLYLINE
  5
b3
  8
Layer_0
  62
7
  70
1
  66
1
  10
0
  20
0
  30
0
  0
VERTEX
  5
b3
  8
Layer_0
  10
405.95068
  20
318.48657
  0
VERTEX
  5
b4
  8
Layer_0
  10
406.2381
  20
318.3851
  42
-0.059445609
  0
VERTEX
  5
b5
  8
Layer_0
  10
411.48047
  20
312.09775
  0
VERTEX
  5
b6
  8
Layer_0
  10
411.67255
  20
311.84335
  42
0.21285074
  0
VERTEX
  5
b7
  8
Layer_0
  10
414.0452
  20
309.62173
  42
0.0088988068
  0
VERTEX
  5
b8
  8
Layer_0
  10
420.53409
  20
318.02524
  0
VERTEX
  5
b9
  8
Layer_0
  10
420.77011
  20
318.23419
  42
-0.20959092
  0
VERTEX
  5
ba
  8
Layer_0
  10
422.51163
  20
319.05334
  42
-0.21117694
  0
VERTEX
  5
bb
  8
Layer_0
  10
424.28586
  20
318.31204
  42
-0.13508548
  0
VERTEX
  5
bc
  8
Layer_0
  10
425.10669
  20
309.93842
  0
VERTEX
  5
bd
  8
Layer_0
  10
425.09906
  20
309.61987
  42
0.33560275
  0
VERTEX
  5
be
  8
Layer_0
  10
436.3114
  20
292.86438
  42
0.32387887
  0
VERTEX
  5
bf
  8
Layer_0
  10
437.98514
  20
292.68079
  42
0.093176095
  0
VERTEX
  5
c0
  8
Layer_0
  10
437.86887
  20
293.03583
  42
0.002975934
  0
VERTEX
  5
c1
  8
Layer_0
  10
437.37741
  20
293.81558
  0
VERTEX
  5
c2
  8
Layer_0
  10
437.2114
  20
294.08737
  42
-0.00051440534
  0
VERTEX
  5
c3
  8
Layer_0
  10
436.71786
  20
294.90579
  0
VERTEX
  5
c4
  8
Layer_0
  10
436.55301
  20
295.17838
  42
0.0030479576
  0
VERTEX
  5
c5
  8
Layer_0
  10
435.88162
  20
296.26141
  0
VERTEX
  5
c6
  8
Layer_0
  10
435.71545
  20
296.5332
  42
-0.15997133
  0
VERTEX
  5
c7
  8
Layer_0
  10
432.42184
  20
314.04462
  42
-0.23157017
  0
VERTEX
  5
c8
  8
Layer_0
  10
444.73077
  20
328.57111
  42
-0.17828764
  0
VERTEX
  5
c9
  8
Layer_0
  10
463.99963
  20
327.56171
  42
-0.34385543
  0
VERTEX
  5
ca
  8
Layer_0
  10
475.85699
  20
304.38049
  42
-0.30586552
  0
VERTEX
  5
cb
  8
Layer_0
  10
464.53174
  20
290.52539
  42
-0.19446994
  0
VERTEX
  5
cc
  8
Layer_0
  10
452.00671
  20
292.61981
  42
-0.1404362
  0
VERTEX
  5
cd
  8
Layer_0
  10
443.11813
  20
303.98886
  42
-0.29850972
  0
VERTEX
  5
ce
  8
Layer_0
  10
445.60721
  20
316.95288
  42
-0.36152886
  0
VERTEX
  5
cf
  8
Layer_0
  10
461.40833
  20
315.9834
  42
-0.37063298
  0
VERTEX
  5
d0
  8
Layer_0
  10
462.6698
  20
302.38879
  42
-0.35007671
  0
VERTEX
  5
d1
  8
Layer_0
  10
455.75403
  20
301.43277
  42
-0.40010721
  0
VERTEX
  5
d2
  8
Layer_0
  10
454.10403
  20
307.67361
  42
-0.30535145
  0
VERTEX
  5
d3
  8
Layer_0
  10
456.02966
  20
307.91223
  42
-0.015576147
  0
VERTEX
  5
d4
  8
Layer_0
  10
456.59253
  20
307.65091
  0
VERTEX
  5
d5
  8
Layer_0
  10
456.87268
  20
307.52429
  42
0.19595477
  0
VERTEX
  5
d6
  8
Layer_0
  10
457.98929
  20
307.44788
  42
0.19580861
  0
VERTEX
  5
d7
  8
Layer_0
  10
458.83725
  20
308.1785
  42
0.38234204
  0
VERTEX
  5
d8
  8
Layer_0
  10
456.98877
  20
312.9411
  42
0.20033732
  0
VERTEX
  5
d9
  8
Layer_0
  10
453.0119
  20
313.32935
  42
0.20053129
  0
VERTEX
  5
da
  8
Layer_0
  10
449.94183
  20
310.77246
  42
0.25033992
  0
VERTEX
  5
db
  8
Layer_0
  10
450.38858
  20
302.88004
  42
0.32090903
  0
VERTEX
  5
dc
  8
Layer_0
  10
460.45465
  20
295.4884
  42
0.35996862
  0
VERTEX
  5
dd
  8
Layer_0
  10
470.15213
  20
304.00488
  42
0.2519258
  0
VERTEX
  5
de
  8
Layer_0
  10
464.29999
  20
320.04663
  42
0.27151691
  0
VERTEX
  5
df
  8
Layer_0
  10
444.3302
  20
321.62646
  42
0.23380224
  0
VERTEX
  5
e0
  8
Layer_0
  10
438.96439
  20
313.3988
  42
0.27403255
  0
VERTEX
  5
e1
  8
Layer_0
  10
447.78979
  20
288.53015
  0
VERTEX
  5
e2
  8
Layer_0
  10
447.98502
  20
288.28891
  42
-0.41327167
  0
VERTEX
  5
e3
  8
Layer_0
  10
447.64465
  20
285.3165
  42
-0.16855163
  0
VERTEX
  5
e4
  8
Layer_0
  10
442.14944
  20
285.22961
  42
-0.23059119
  0
VERTEX
  5
e5
  8
Layer_0
  10
420.89813
  20
300.9371
  42
-0.055677138
  0
VERTEX
  5
e6
  8
Layer_0
  10
419.35675
  20
307.51923
  42
0.27100565
  0
VERTEX
  5
e7
  8
Layer_0
  10
418.82498
  20
307.0596
  42
0.00025690305
  0
VERTEX
  5
e8
  8
Layer_0
  10
416.34644
  20
303.34921
  0
VERTEX
  5
e9
  8
Layer_0
  10
416.16254
  20
303.08966
  42
-0.21507353
  0
VERTEX
  5
ea
  8
Layer_0
  10
414.24863
  20
301.39359
  42
-0.21536187
  0
VERTEX
  5
eb
  8
Layer_0
  10
411.71396
  20
301.7298
  42
-0.040947385
  0
VERTEX
  5
ec
  8
Layer_0
  10
408.42007
  20
307.82034
  0
VERTEX
  5
ed
  8
Layer_0
  10
408.24991
  20
308.08899
  42
0.29942397
  0
VERTEX
  5
ee
  8
Layer_0
  10
406.35507
  20
309.69327
  42
0.15436324
  0
VERTEX
  5
ef
  8
Layer_0
  10
406.02859
  20
309.06754
  42
0.12281624
  0
VERTEX
  5
f0
  8
Layer_0
  10
406.88776
  20
291.44598
  42
0.20656961
  0
VERTEX
  5
f1
  8
Layer_0
  10
422.4306
  20
278.1825
  42
0.072884886
  0
VERTEX
  5
f2
  8
Layer_0
  10
430.80307
  20
276.35138
  0
VERTEX
  5
f3
  8
Layer_0
  10
441.31012
  20
275.85556
  42
-0.0023867567
  0
VERTEX
  5
f4
  8
Layer_0
  10
448.91534
  20
275.06082
  0
VERTEX
  5
f5
  8
Layer_0
  10
449.23291
  20
275.03308
  42
0.044438392
  0
VERTEX
  5
f6
  8
Layer_0
  10
475.77969
  20
275.45465
  42
-0.055919991
  0
VERTEX
  5
f7
  8
Layer_0
  10
475.68777
  20
275.54837
  0
VERTEX
  5
f8
  8
Layer_0
  10
475.52383
  20
275.60468
  42
0.0014992711
  0
VERTEX
  5
f9
  8
Layer_0
  10
473.41574
  20
276.08859
  0
VERTEX
  5
fa
  8
Layer_0
  10
473.10541
  20
276.16132
  42
-0.047514663
  0
VERTEX
  5
fb
  8
Layer_0
  10
454.68326
  20
282.10303
  42
-0.27881992
  0
VERTEX
  5
fc
  8
Layer_0
  10
454.18381
  20
283.68396
  42
-0.38966583
  0
VERTEX
  5
fd
  8
Layer_0
  10
457.60486
  20
285.62817
  42
-0.0029830944
  0
VERTEX
  5
fe
  8
Layer_0
  10
465.4523
  20
283.00244
  0
VERTEX
  5
ff
  8
Layer_0
  10
465.7562
  20
282.90646
  42
0.040108466
  0
VERTEX
  5
100
  8
Layer_0
  10
495.35767
  20
276.71094
  0
VERTEX
  5
101
  8
Layer_0
  10
495.66241
  20
276.62369
  42
-0.32732233
  0
VERTEX
  5
102
  8
Layer_0
  10
498.89618
  20
273.43414
  42
-0.24787176
  0
VERTEX
  5
103
  8
Layer_0
  10
497.07544
  20
272.00397
  42
-0.023467591
  0
VERTEX
  5
104
  8
Layer_0
  10
483.74924
  20
271.19617
  0
VERTEX
  5
105
  8
Layer_0
  10
483.43091
  20
271.17941
  0
VERTEX
  5
106
  8
Layer_0
  10
483.11261
  20
271.16223
  0
VERTEX
  5
107
  8
Layer_0
  10
482.79437
  20
271.14462
  0
VERTEX
  5
108
  8
Layer_0
  10
482.47614
  20
271.12659
  0
VERTEX
  5
109
  8
Layer_0
  10
482.1579
  20
271.10812
  0
VERTEX
  5
10a
  8
Layer_0
  10
475.15738
  20
270.69858
  42
0.00022025547
  0
VERTEX
  5
10b
  8
Layer_0
  10
471.97589
  20
270.50394
  0
VERTEX
  5
10c
  8
Layer_0
  10
471.65765
  20
270.48572
  42
-0.044876348
  0
VERTEX
  5
10d
  8
Layer_0
  10
436.03442
  20
271.93521
  0
VERTEX
  5
10e
  8
Layer_0
  10
435.71619
  20
271.94995
  42
0.00067568439
  0
VERTEX
  5
10f
  8
Layer_0
  10
433.8049
  20
272.0119
  0
VERTEX
  5
110
  8
Layer_0
  10
433.48636
  20
272.02332
  42
-0.26323807
  0
VERTEX
  5
111
  8
Layer_0
  10
403.45328
  20
288.2135
  42
-0.13861697
  0
VERTEX
  5
112
  8
Layer_0
  10
401.15228
  20
310.41232
  42
-0.17124744
  0
VERTEX
  5
113
  8
Layer_0
  10
404.12869
  20
318.2262
  42
-0.21625463
  0
SEQEND
  0
ENDSEC
  0
EOF
